<svg width="327" height="119" viewBox="0 0 327 119" fill="none" xmlns="http://www.w3.org/2000/svg">
<path d="M235.266 67.1652C228.424 69.2972 226.142 70.2924 217.978 69.7932C206.122 69.0682 180.938 64.0315 174.505 64.6807" stroke="#411517" stroke-width="10" stroke-miterlimit="10"/>
<path d="M108.461 32.0009C116.472 39.7709 135.932 34.0331 147.886 32.9994C157.856 32.1365 185.057 34.2969 201.39 33C221.666 37.8096 238.52 32.8154 257.711 32C276.053 31.2206 297.499 32 297.499 32" stroke="#411517" stroke-width="10" stroke-miterlimit="10"/>
<path d="M317.523 103.529C304.06 102.472 297.567 107.406 287.127 107.636C267.427 108.062 245.771 109.86 225.907 103.53" stroke="#411517" stroke-width="10" stroke-miterlimit="10"/>
<path d="M48.9851 7.47951V12.1163H37.8971V17.7611H47.4395V22.1963H37.8971V30.9995H33.0922V7.47951H48.9851ZM53.9075 11.6795C52.4963 11.6795 51.3539 10.5707 51.3539 9.12591C51.3539 7.68111 52.4963 6.57231 53.9075 6.57231C55.3187 6.57231 56.4611 7.68111 56.4611 9.12591C56.4611 10.5707 55.3187 11.6795 53.9075 11.6795ZM56.1923 30.9995H51.6227V13.8635H56.1923V30.9995ZM64.7235 30.9995H60.1539V13.8635H63.5811L64.3203 15.5435H64.4883C64.8915 15.0395 66.6387 13.4267 69.1587 13.4267C73.2915 13.4267 76.0803 16.3835 76.0803 20.8859V30.9995H71.5107V21.2891C71.5107 19.2731 70.0659 17.6603 68.1171 17.6603C66.1347 17.6603 64.7235 19.2731 64.7235 21.2891V30.9995ZM86.8966 31.4363C82.6966 31.4363 78.967 27.6059 78.967 22.4315C78.967 17.2571 82.6966 13.4267 86.8966 13.4267C89.3494 13.4267 91.0294 14.8379 91.3654 15.3419H91.5334V7.47951H96.103V30.9995H92.6758L91.9366 29.3195H91.7686C91.2982 29.8907 89.5846 31.4363 86.8966 31.4363ZM87.535 27.2027C89.6518 27.2027 91.5334 25.2539 91.5334 22.4315C91.5334 19.6091 89.6518 17.6603 87.535 17.6603C85.4182 17.6603 83.5366 19.6091 83.5366 22.4315C83.5366 25.2539 85.4182 27.2027 87.535 27.2027ZM115.923 31.4363C111.185 31.4363 107.153 27.3035 107.153 22.4315C107.153 17.5595 111.185 13.4267 115.923 13.4267C120.391 13.4267 123.415 16.9883 124.087 20.3147H119.518C119.316 19.5755 118.174 17.6603 115.923 17.6603C113.537 17.6603 111.723 19.6427 111.723 22.4315C111.723 25.2203 113.537 27.2027 115.923 27.2027C118.174 27.2027 119.316 25.2539 119.518 24.5483H124.087C123.415 27.8747 120.391 31.4363 115.923 31.4363ZM131.731 30.9995H127.161V7.47951H131.731V15.5435H131.899C132.268 15.0059 134.049 13.4267 136.535 13.4267C140.299 13.4267 143.087 16.3835 143.087 20.8859V30.9995H138.518V21.2891C138.518 19.2731 137.073 17.6603 135.124 17.6603C133.142 17.6603 131.731 19.2731 131.731 21.2891V30.9995ZM163.106 22.1627C163.106 23.0699 163.005 23.7419 162.905 24.0779H150.573C151.077 26.1611 152.623 27.3707 154.673 27.3707C156.453 27.3707 157.394 26.4635 157.73 26.0939H162.535C161.628 28.4123 158.772 31.4363 154.74 31.4363C149.901 31.4363 145.97 27.4043 145.97 22.4315C145.97 17.5595 150.002 13.4267 154.673 13.4267C159.343 13.4267 163.106 17.1899 163.106 22.1627ZM154.673 17.4923C152.69 17.4923 151.111 18.7691 150.573 20.8187H158.705C158.167 18.8363 156.621 17.4923 154.673 17.4923ZM174.033 31.4363C169.296 31.4363 165.264 27.3035 165.264 22.4315C165.264 17.5595 169.296 13.4267 174.033 13.4267C178.502 13.4267 181.526 16.9883 182.198 20.3147H177.629C177.427 19.5755 176.285 17.6603 174.033 17.6603C171.648 17.6603 169.833 19.6427 169.833 22.4315C169.833 25.2203 171.648 27.2027 174.033 27.2027C176.285 27.2027 177.427 25.2539 177.629 24.5483H182.198C181.526 27.8747 178.502 31.4363 174.033 31.4363ZM194.109 21.9275L200.93 30.9995H195.318L189.842 23.3387V30.9995H185.272V7.47951H189.842V20.9195L194.982 13.8635H200.19L194.109 21.9275ZM207.064 37.0475H202.495V13.8635H205.922L206.661 15.5435H206.829C207.299 14.9723 209.013 13.4267 211.701 13.4267C215.901 13.4267 219.631 17.2571 219.631 22.4315C219.631 27.6059 215.901 31.4363 211.701 31.4363C209.248 31.4363 207.568 30.0251 207.232 29.5211H207.064V37.0475ZM211.063 27.2027C213.179 27.2027 215.061 25.2539 215.061 22.4315C215.061 19.6091 213.179 17.6603 211.063 17.6603C208.946 17.6603 207.064 19.6091 207.064 22.4315C207.064 25.2539 208.946 27.2027 211.063 27.2027ZM230.537 31.4363C225.799 31.4363 221.767 27.3035 221.767 22.4315C221.767 17.5595 225.799 13.4267 230.537 13.4267C235.274 13.4267 239.306 17.5595 239.306 22.4315C239.306 27.3035 235.274 31.4363 230.537 31.4363ZM230.537 27.2027C232.922 27.2027 234.737 25.2203 234.737 22.4315C234.737 19.6427 232.922 17.6603 230.537 17.6603C228.151 17.6603 226.337 19.6427 226.337 22.4315C226.337 25.2203 228.151 27.2027 230.537 27.2027ZM244.647 11.6795C243.235 11.6795 242.093 10.5707 242.093 9.12591C242.093 7.68111 243.235 6.57231 244.647 6.57231C246.058 6.57231 247.2 7.68111 247.2 9.12591C247.2 10.5707 246.058 11.6795 244.647 11.6795ZM246.931 30.9995H242.362V13.8635H246.931V30.9995ZM255.463 30.9995H250.893V13.8635H254.32L255.059 15.5435H255.227C255.631 15.0395 257.378 13.4267 259.898 13.4267C264.031 13.4267 266.819 16.3835 266.819 20.8859V30.9995H262.25V21.2891C262.25 19.2731 260.805 17.6603 258.856 17.6603C256.874 17.6603 255.463 19.2731 255.463 21.2891V30.9995ZM277.24 31.4363C273.88 31.4363 271.461 29.1179 271.461 25.1867V17.9291H268.807V14.1995H269.983C271.293 14.1995 272.032 13.4603 272.032 12.1835V9.56271H276.031V13.8635H279.559V17.9291H276.031V24.7163C276.031 26.3627 276.938 27.1355 278.383 27.1355C278.82 27.1355 279.223 27.0683 279.559 26.9003V31.0667C279.088 31.2347 278.282 31.4363 277.24 31.4363ZM288.407 31.4363C284.107 31.4363 281.452 28.8827 281.318 25.6235H285.787C285.887 26.9003 286.895 27.7739 288.407 27.7739C289.919 27.7739 290.659 27.0347 290.659 26.1947C290.659 23.2043 281.721 24.5483 281.721 18.6011C281.721 15.7115 284.039 13.4267 288.273 13.4267C292.271 13.4267 294.791 15.9131 295.027 19.0715H290.524C290.39 17.9291 289.751 17.0891 288.273 17.0891C286.929 17.0891 286.291 17.7275 286.291 18.4667C286.291 21.2555 295.228 19.8107 295.228 25.9259C295.228 29.0843 292.843 31.4363 288.407 31.4363ZM100.867 68.4363C95.3903 68.4363 92.0303 65.0427 91.8287 60.5739H96.6335C96.9023 62.5563 98.2463 64.1355 100.867 64.1355C103.354 64.1355 104.496 62.9931 104.496 61.6827C104.496 57.2139 92.3663 59.3643 92.3663 50.8635C92.3663 46.9995 95.3903 44.0427 100.565 44.0427C105.504 44.0427 108.797 47.4027 108.998 51.7035H104.194C104.059 49.7883 102.749 48.3435 100.565 48.3435C98.3471 48.3435 97.1711 49.4859 97.1711 50.9307C97.1711 55.3659 109.301 53.1483 109.301 61.5147C109.301 65.4123 106.277 68.4363 100.867 68.4363ZM120.352 68.4363C115.615 68.4363 111.583 64.3035 111.583 59.4315C111.583 54.5595 115.615 50.4267 120.352 50.4267C124.821 50.4267 127.845 53.9883 128.517 57.3147H123.947C123.746 56.5755 122.603 54.6603 120.352 54.6603C117.967 54.6603 116.152 56.6427 116.152 59.4315C116.152 62.2203 117.967 64.2027 120.352 64.2027C122.603 64.2027 123.746 62.2539 123.947 61.5483H128.517C127.845 64.8747 124.821 68.4363 120.352 68.4363ZM137.815 50.4267C142.317 50.4267 144.971 53.3835 144.971 57.7515V67.9995H141.544L140.805 66.3195H140.637C139.931 67.0587 138.419 68.4363 135.765 68.4363C132.506 68.4363 129.986 66.1851 129.986 63.3291C129.986 59.8011 133.346 57.6171 138.218 57.6171H140.402V57.2811C140.402 55.5003 139.394 54.4923 137.781 54.4923C136.235 54.4923 135.496 55.5339 135.362 56.2395H130.792C131.027 53.3499 133.312 50.4267 137.815 50.4267ZM136.84 64.7067C139.024 64.7067 140.402 63.1611 140.402 61.5483V60.6747H138.083C135.496 60.6747 134.555 61.6155 134.555 62.8923C134.555 63.9339 135.328 64.7067 136.84 64.7067ZM153.35 67.9995H148.78V50.8635H152.208L152.947 52.5435H153.115C153.518 52.0395 155.265 50.4267 157.785 50.4267C161.918 50.4267 164.707 53.3835 164.707 57.8859V67.9995H160.137V58.2891C160.137 56.2731 158.692 54.6603 156.744 54.6603C154.761 54.6603 153.35 56.2731 153.35 58.2891V67.9995ZM198.553 56.2395C198.553 58.9611 197.713 61.4475 196.302 63.4635L198.52 65.6475L195.63 68.6715L193.345 66.4203C191.497 67.6971 189.313 68.4363 186.995 68.4363C180.712 68.4363 175.437 63.0267 175.437 56.2395C175.437 49.4523 180.712 44.0427 186.995 44.0427C193.278 44.0427 198.553 49.4523 198.553 56.2395ZM186.995 63.9675C188.07 63.9675 189.112 63.6987 190.053 63.1947L187.163 60.3723L190.053 57.3483L192.976 60.2043C193.581 59.0619 193.917 57.7179 193.917 56.2395C193.917 51.7707 190.725 48.5115 186.995 48.5115C183.265 48.5115 180.073 51.7707 180.073 56.2395C180.073 60.7083 183.265 63.9675 186.995 63.9675ZM220.189 67.9995H214.645L209.941 59.5323H206.816V67.9995H202.011V44.4795H211.553C216.123 44.4795 219.517 47.6379 219.517 52.0731C219.517 55.0635 217.635 57.6171 214.645 58.7931L220.189 67.9995ZM211.419 49.0491H206.816V55.1643H211.419C213.301 55.1643 214.712 53.8875 214.712 52.1067C214.712 50.3259 213.301 49.0491 211.419 49.0491ZM228.361 68.4363C224.06 68.4363 221.405 65.8827 221.271 62.6235H225.74C225.841 63.9003 226.849 64.7739 228.361 64.7739C229.873 64.7739 230.612 64.0347 230.612 63.1947C230.612 60.2043 221.674 61.5483 221.674 55.6011C221.674 52.7115 223.993 50.4267 228.226 50.4267C232.225 50.4267 234.745 52.9131 234.98 56.0715H230.477C230.343 54.9291 229.705 54.0891 228.226 54.0891C226.882 54.0891 226.244 54.7275 226.244 55.4667C226.244 58.2555 235.181 56.8107 235.181 62.9259C235.181 66.0843 232.796 68.4363 228.361 68.4363ZM21.9153 105.436C15.6321 105.436 10.3569 100.027 10.3569 93.2395C10.3569 86.4523 15.6321 81.0427 21.9153 81.0427C27.8289 81.0427 31.5249 85.5115 32.5665 89.8459H27.5601C27.0225 87.8635 25.1073 85.6795 21.9153 85.6795C18.2865 85.6795 15.1617 88.8715 15.1617 93.2395C15.1617 97.6075 18.2865 100.8 21.9153 100.8C25.1073 100.8 27.0225 98.6155 27.7281 96.6667H32.7345C31.7265 100.934 27.9633 105.436 21.9153 105.436ZM40.3806 105H35.811V81.4795H40.3806V105ZM51.2223 87.4267C55.7247 87.4267 58.3791 90.3835 58.3791 94.7515V105H54.9519L54.2127 103.32H54.0447C53.3391 104.059 51.8271 105.436 49.1727 105.436C45.9135 105.436 43.3935 103.185 43.3935 100.329C43.3935 96.8011 46.7535 94.6171 51.6255 94.6171H53.8095V94.2811C53.8095 92.5003 52.8015 91.4923 51.1887 91.4923C49.6431 91.4923 48.9039 92.5339 48.7695 93.2395H44.1999C44.4351 90.3499 46.7199 87.4267 51.2223 87.4267ZM50.2479 101.707C52.4319 101.707 53.8095 100.161 53.8095 98.5483V97.6747H51.4911C48.9039 97.6747 47.9631 98.6155 47.9631 99.8923C47.9631 100.934 48.7359 101.707 50.2479 101.707ZM64.4731 85.6795C63.0619 85.6795 61.9195 84.5707 61.9195 83.1259C61.9195 81.6811 63.0619 80.5723 64.4731 80.5723C65.8843 80.5723 67.0267 81.6811 67.0267 83.1259C67.0267 84.5707 65.8843 85.6795 64.4731 85.6795ZM66.7579 105H62.1883V87.8635H66.7579V105ZM88.8971 87.4267C92.6267 87.4267 95.0459 90.0139 95.0459 94.7179V105H90.4763V94.8859C90.4763 92.8363 89.3003 91.6603 87.8219 91.6603C86.3435 91.6603 85.1675 92.8363 85.1675 94.8859V105H80.5979V94.8859C80.5979 92.8363 79.4219 91.6603 77.9435 91.6603C76.4651 91.6603 75.2891 92.8363 75.2891 94.8859V105H70.7195V87.8635H74.1467L74.8859 89.5435H75.0539C75.4235 89.0059 76.9019 87.4267 79.1867 87.4267C81.8075 87.4267 83.2859 88.8715 83.9243 89.8459C84.7307 88.7707 86.5787 87.4267 88.8971 87.4267ZM111.875 111.048H107.305V87.8635H110.733L111.472 89.5435H111.64C112.11 88.9723 113.824 87.4267 116.512 87.4267C120.712 87.4267 124.441 91.2571 124.441 96.4315C124.441 101.606 120.712 105.436 116.512 105.436C114.059 105.436 112.379 104.025 112.043 103.521H111.875V111.048ZM115.873 101.203C117.99 101.203 119.872 99.2539 119.872 96.4315C119.872 93.6091 117.99 91.6603 115.873 91.6603C113.757 91.6603 111.875 93.6091 111.875 96.4315C111.875 99.2539 113.757 101.203 115.873 101.203ZM132.055 105H127.485V87.8635H130.912L131.652 89.5435H131.82C132.156 89.0731 133.567 87.4267 135.818 87.4267C136.524 87.4267 136.86 87.4603 137.364 87.5947V92.1643C136.86 92.0299 136.356 91.9963 135.65 91.9963C133.5 91.9963 132.055 93.3739 132.055 95.7259V105ZM142.042 85.6795C140.631 85.6795 139.488 84.5707 139.488 83.1259C139.488 81.6811 140.631 80.5723 142.042 80.5723C143.453 80.5723 144.595 81.6811 144.595 83.1259C144.595 84.5707 143.453 85.6795 142.042 85.6795ZM144.327 105H139.757V87.8635H144.327V105ZM160.418 91.5931L152.623 100.9H160.687V105H147.247V101.27L155.042 91.9627H147.415V87.8635H160.418V91.5931ZM179.512 96.1627C179.512 97.0699 179.412 97.7419 179.311 98.0779H166.98C167.484 100.161 169.029 101.371 171.079 101.371C172.86 101.371 173.8 100.464 174.136 100.094H178.941C178.034 102.412 175.178 105.436 171.146 105.436C166.308 105.436 162.376 101.404 162.376 96.4315C162.376 91.5595 166.408 87.4267 171.079 87.4267C175.749 87.4267 179.512 91.1899 179.512 96.1627ZM171.079 91.4923C169.096 91.4923 167.517 92.7691 166.98 94.8187H175.111C174.573 92.8363 173.028 91.4923 171.079 91.4923ZM197.107 87.4267C201.609 87.4267 204.264 90.3835 204.264 94.7515V105H200.836L200.097 103.32H199.929C199.224 104.059 197.712 105.436 195.057 105.436C191.798 105.436 189.278 103.185 189.278 100.329C189.278 96.8011 192.638 94.6171 197.51 94.6171H199.694V94.2811C199.694 92.5003 198.686 91.4923 197.073 91.4923C195.528 91.4923 194.788 92.5339 194.654 93.2395H190.084C190.32 90.3499 192.604 87.4267 197.107 87.4267ZM196.132 101.707C198.316 101.707 199.694 100.161 199.694 98.5483V97.6747H197.376C194.788 97.6747 193.848 98.6155 193.848 99.8923C193.848 100.934 194.62 101.707 196.132 101.707ZM214.7 105.436C211.34 105.436 208.921 103.118 208.921 99.1867V91.9291H206.266V88.1995H207.442C208.753 88.1995 209.492 87.4603 209.492 86.1835V83.5627H213.49V87.8635H217.018V91.9291H213.49V98.7163C213.49 100.363 214.397 101.136 215.842 101.136C216.279 101.136 216.682 101.068 217.018 100.9V105.067C216.548 105.235 215.741 105.436 214.7 105.436ZM237.364 105.436C234.676 105.436 232.963 103.891 232.492 103.32H232.324L231.585 105H228.158V81.4795H232.727V89.3419H232.895C233.231 88.8379 234.911 87.4267 237.364 87.4267C241.564 87.4267 245.294 91.2571 245.294 96.4315C245.294 101.606 241.564 105.436 237.364 105.436ZM236.726 101.203C238.843 101.203 240.724 99.2539 240.724 96.4315C240.724 93.6091 238.843 91.6603 236.726 91.6603C234.609 91.6603 232.727 93.6091 232.727 96.4315C232.727 99.2539 234.609 101.203 236.726 101.203ZM256.229 105.436C251.491 105.436 247.459 101.304 247.459 96.4315C247.459 91.5595 251.491 87.4267 256.229 87.4267C260.966 87.4267 264.998 91.5595 264.998 96.4315C264.998 101.304 260.966 105.436 256.229 105.436ZM256.229 101.203C258.614 101.203 260.429 99.2203 260.429 96.4315C260.429 93.6427 258.614 91.6603 256.229 91.6603C253.843 91.6603 252.029 93.6427 252.029 96.4315C252.029 99.2203 253.843 101.203 256.229 101.203ZM275.916 105.436C271.179 105.436 267.147 101.304 267.147 96.4315C267.147 91.5595 271.179 87.4267 275.916 87.4267C280.654 87.4267 284.686 91.5595 284.686 96.4315C284.686 101.304 280.654 105.436 275.916 105.436ZM275.916 101.203C278.302 101.203 280.116 99.2203 280.116 96.4315C280.116 93.6427 278.302 91.6603 275.916 91.6603C273.531 91.6603 271.716 93.6427 271.716 96.4315C271.716 99.2203 273.531 101.203 275.916 101.203ZM294.369 105.436C291.009 105.436 288.589 103.118 288.589 99.1867V91.9291H285.935V88.1995H287.111C288.421 88.1995 289.161 87.4603 289.161 86.1835V83.5627H293.159V87.8635H296.687V91.9291H293.159V98.7163C293.159 100.363 294.066 101.136 295.511 101.136C295.948 101.136 296.351 101.068 296.687 100.9V105.067C296.217 105.235 295.41 105.436 294.369 105.436ZM304.587 105H300.017V81.4795H304.587V89.5435H304.755C305.124 89.0059 306.905 87.4267 309.392 87.4267C313.155 87.4267 315.944 90.3835 315.944 94.8859V105H311.374V95.2891C311.374 93.2731 309.929 91.6603 307.98 91.6603C305.998 91.6603 304.587 93.2731 304.587 95.2891V105Z" fill="white"/>
</svg>
