<svg width="495" height="462" viewBox="0 0 495 462" fill="none" xmlns="http://www.w3.org/2000/svg">
<path d="M-10.2616 2.7373C8.03638 8.82904 132.203 39.2865 179.255 31.9769C216.897 26.1291 349.166 35.2259 410.595 40.5053C448.499 61.6228 524.567 108 525.612 124.569C526.919 145.281 409.288 204.978 333.482 206.196C257.675 207.415 193.632 224.471 136.123 236.654C78.6149 248.838 15.8783 290.26 2.80834 302.444C-10.2616 314.627 -49.472 368.233 -23.3319 393.817C2.80834 419.402 123.054 427.93 179.255 423.057C235.456 418.184 337.403 403.564 370.078 413.31C402.753 423.057 485.095 427.93 498.165 432.803C511.235 437.677 532.147 447.423 545.217 459.606" stroke="white" stroke-width="5" stroke-dasharray="10 10"/>
<path d="M116.723 2.7373L144.578 5.48071L162.485 10.6646L169.179 23.2511C171.208 27.0651 171.942 31.4531 171.263 35.732L169.661 45.885C168.511 53.1678 163.45 59.1829 156.558 61.4685L150.283 63.5463C150.283 63.5463 114.895 65.7403 109.592 61.7924C107.172 59.9929 104.662 55.869 102.644 51.9141C99.8716 46.4731 99.4285 40.113 101.398 34.3233L105.573 22.0749L110.326 5.66382L116.723 2.74083V2.7373Z" fill="#F4EDE3"/>
<path d="M461.562 29.0068C463.205 39.0484 460.029 55.1562 457.902 64.1572C455.777 73.1563 457.404 74.6955 455.549 78.0742C453.694 81.4529 440.977 83.9685 434.451 83.9798C427.926 83.9911 405.473 82.6276 399.022 74.9958C390.096 64.4367 393.382 44.497 393.443 43.7453C393.503 42.9956 403.422 17.9378 403.422 17.9378L411.39 12.6951C411.39 12.6951 438.875 12.4344 447.107 17.0426C453.509 20.6271 461.562 29.0068 461.562 29.0068Z" fill="#F4EDE3"/>
<path d="M406.301 393.58C406.301 393.58 420.435 392.227 427.101 409.173C433.766 426.119 428.394 431.427 428.394 431.427L419.668 445.315L402.84 448.476C389.659 450.735 382.595 450.372 379.852 449.327C369.026 445.208 362.685 440.283 361.161 431.884C359.637 423.487 358.758 421.76 359.327 416.719C359.896 411.678 360.197 409.987 361.303 406.423C362.41 402.859 366.348 397.719 366.348 397.719C366.348 397.719 397.205 392.557 406.302 393.579L406.301 393.58Z" fill="#F4EDE3"/>
<path d="M206.927 201.211C205.284 211.253 208.461 227.36 210.587 236.361C212.712 245.36 211.086 246.9 212.94 250.278C214.795 253.657 227.513 256.173 234.038 256.184C240.563 256.195 263.016 254.832 269.468 247.2C278.393 236.641 275.107 216.701 275.047 215.949C274.986 215.2 265.067 190.142 265.067 190.142L257.099 184.899C257.099 184.899 229.615 184.639 221.382 189.247C214.98 192.831 206.927 201.211 206.927 201.211Z" fill="#F4EDE3"/>
<path d="M93.5729 407.165C92.1911 415.61 94.8625 429.155 96.6508 436.725C98.4376 444.293 97.0701 445.587 98.6297 448.429C100.189 451.27 110.884 453.385 116.372 453.395C121.859 453.404 140.741 452.258 146.167 445.84C153.673 436.96 150.909 420.192 150.858 419.559C150.807 418.929 142.466 397.856 142.466 397.856L135.765 393.448C135.765 393.448 112.652 393.228 105.729 397.104C100.345 400.118 93.5729 407.165 93.5729 407.165Z" fill="#F4EDE3"/>
</svg>
