<svg width="394" height="148" viewBox="0 0 394 148" fill="none" xmlns="http://www.w3.org/2000/svg">
<path d="M31.4638 129.398C19.4829 131.062 11.7156 124.452 10.0251 116.933L23.7775 113.602C24.8253 116.493 26.7922 118.094 29.6448 117.697C31.8635 117.389 32.7369 116.234 32.5784 115.093C31.786 109.388 10.4002 113.586 8.36627 98.9423C7.35373 91.6523 12.4849 84.8659 24.4659 83.2018C34.5451 81.8018 42.7033 87.9701 44.3497 95.1721L30.6607 98.495C29.6852 95.6582 27.7429 94.7003 25.9046 94.9556C23.876 95.2374 23.0027 96.3925 23.1611 97.5336C23.9448 103.175 45.1985 98.0265 47.3292 113.367C48.3418 120.657 42.9377 127.805 31.4638 129.398ZM73.3037 123.587C60.1183 125.418 48.7042 116.278 46.9521 103.663C45.1999 91.0479 53.6908 79.1426 66.8762 77.3112C83.358 75.022 89.8997 87.2301 91.1958 91.4439L77.3166 94.7931C76.2741 92.8703 73.5817 89.3027 68.6372 89.9895C63.6926 90.6763 60.1445 95.369 61.025 101.708C61.9055 108.047 66.5982 111.595 71.5427 110.909C76.2971 110.248 78.0685 106.255 78.5844 103.922L92.8598 103.425C92.7912 107.117 89.7855 121.298 73.3037 123.587ZM138.342 113.584L123.445 115.653L120.144 108.164L107.529 109.917L106.393 118.022L91.9399 120.029L101.815 73.4277L116.141 71.4378L138.342 113.584ZM108.46 98.4796L116.131 97.4142L110.557 85.2008L108.46 98.4796ZM151.661 94.8054L155.791 65.9306L170.372 63.9055L161.004 110.437L146.361 112.471L124.73 70.2449L139.753 68.1582L151.661 94.8054ZM188.925 89.1127L189.674 94.5009L209.705 91.7187L211.334 103.446L177.23 108.183L171.066 63.809L204.537 59.1601L206.166 70.8875L186.768 73.5818L187.428 78.3361L204.417 75.9765L205.914 86.753L188.925 89.1127ZM239.899 77.962L236.668 54.6973L250.424 52.7867L256.587 97.1607L243.021 99.0449L225.21 77.8054L228.441 101.07L214.685 102.981L208.522 58.6066L222.024 56.7312L239.899 77.962ZM280.212 78.178L279.067 69.9371L302.205 66.7234L305.489 90.3684L298.009 91.4074L295.303 86.808C293.762 89.6712 289.964 93.4941 281.469 94.6739C269.805 96.294 258.4 87.2167 256.639 74.5384C254.887 61.9235 263.378 50.0182 276.563 48.1868C293.045 45.8976 299.84 58.0705 300.689 60.9249L286.565 64.3727C285.738 63.0662 283.035 59.8878 278.28 60.5482C273.336 61.2349 269.788 65.9277 270.712 72.5838C271.637 79.2399 276.329 82.788 281.527 82.066C285.584 81.5025 287.486 78.9123 288.073 77.0863L280.212 78.178ZM321.597 70.6853L322.345 76.0736L342.377 73.2913L344.006 85.0187L309.901 89.7557L303.738 45.3817L337.208 40.7328L338.837 52.4602L319.44 55.1544L320.1 59.9088L337.089 57.5491L338.586 68.3257L321.597 70.6853ZM387.42 78.9887L371.952 81.1371L362.433 68.8903L359.58 69.2865L361.429 82.5987L347.356 84.5533L341.193 40.1793L362.429 37.2297C372.699 35.8034 380.279 41.535 381.512 50.4098C382.26 55.798 380.079 60.5595 375.576 63.9633L387.42 78.9887ZM361.688 48.6402L356.173 49.4062L357.45 58.598L362.965 57.832C365.881 57.4269 367.518 55.2611 367.14 52.5352C366.77 49.8728 364.604 48.2352 361.688 48.6402Z" fill="#F4EDE3"/>
<path d="M10.0251 116.933L8.61242 111.102C5.42945 111.873 3.45285 115.054 4.17124 118.249L10.0251 116.933ZM23.7775 113.602L29.4186 111.557C28.3765 108.682 25.3377 107.05 22.3648 107.77L23.7775 113.602ZM44.3497 95.1721L45.7651 101.003C48.9548 100.229 50.9304 97.0348 50.1988 93.8349L44.3497 95.1721ZM30.6607 98.495L24.9868 100.446C25.9942 103.375 29.0658 105.056 32.076 104.326L30.6607 98.495ZM31.4638 129.398L30.6384 123.455C21.4506 124.731 16.821 119.807 15.879 115.617L10.0251 116.933L4.17124 118.249C6.61022 129.097 17.5151 137.393 32.2893 135.341L31.4638 129.398ZM10.0251 116.933L11.4378 122.765L25.1902 119.433L23.7775 113.602L22.3648 107.77L8.61242 111.102L10.0251 116.933ZM23.7775 113.602L18.1365 115.646C18.93 117.836 20.2744 120.113 22.5058 121.735C24.8606 123.447 27.6596 124.031 30.4702 123.64L29.6448 117.697L28.8193 111.754C28.7506 111.764 28.8374 111.742 29.0267 111.786C29.2246 111.832 29.4152 111.922 29.5629 112.029C29.6999 112.129 29.7303 112.192 29.6884 112.131C29.6429 112.064 29.5388 111.889 29.4186 111.557L23.7775 113.602ZM29.6448 117.697L30.4702 123.64C32.412 123.371 34.5457 122.629 36.219 120.977C38.0103 119.208 38.8672 116.758 38.5213 114.268L32.5784 115.093L26.6354 115.918C26.4481 114.569 26.9475 113.267 27.7871 112.438C28.5086 111.726 29.0962 111.716 28.8193 111.754L29.6448 117.697ZM32.5784 115.093L38.5213 114.268C38.1245 111.41 36.3956 109.526 34.8078 108.427C33.3524 107.42 31.7142 106.844 30.4541 106.47C29.1341 106.078 27.6795 105.757 26.3861 105.475C25.0195 105.176 23.7388 104.901 22.4593 104.566C19.8424 103.88 17.8798 103.095 16.5322 102.069C15.3988 101.205 14.5848 100.101 14.3092 98.1169L8.36627 98.9423L2.42332 99.7678C3.16472 105.106 5.78661 108.968 9.2599 111.614C12.5189 114.097 16.3336 115.365 19.4165 116.173C20.9869 116.585 22.5366 116.917 23.8251 117.198C25.1867 117.496 26.2117 117.728 27.0398 117.974C27.9279 118.237 28.1063 118.383 27.9801 118.296C27.7214 118.117 26.8342 117.349 26.6354 115.918L32.5784 115.093ZM8.36627 98.9423L14.3092 98.1169C14.0447 96.2125 14.5439 94.5269 15.9099 93.0775C17.3698 91.5284 20.2315 89.8475 25.2913 89.1447L24.4659 83.2018L23.6404 77.2588C16.7192 78.2202 11.0248 80.7645 7.17709 84.8472C3.2354 89.0295 1.67528 94.3822 2.42332 99.7678L8.36627 98.9423ZM24.4659 83.2018L25.2913 89.1447C32.6142 88.1276 37.6188 92.6521 38.5006 96.5093L44.3497 95.1721L50.1988 93.8349C47.7877 83.2882 36.476 75.476 23.6404 77.2588L24.4659 83.2018ZM44.3497 95.1721L42.9344 89.3414L29.2454 92.6643L30.6607 98.495L32.076 104.326L45.7651 101.003L44.3497 95.1721ZM30.6607 98.495L36.3346 96.5438C35.5156 94.1623 34.0921 92.0221 31.9507 90.5843C29.7884 89.1326 27.3348 88.6994 25.0791 89.0127L25.9046 94.9556L26.73 100.899C26.3127 100.957 25.7494 100.875 25.2617 100.547C24.7949 100.234 24.8303 99.9909 24.9868 100.446L30.6607 98.495ZM25.9046 94.9556L25.0791 89.0127C23.1218 89.2845 21.0245 90.0743 19.4035 91.7474C17.7083 93.4971 16.8766 95.9 17.2182 98.359L23.1611 97.5336L29.1041 96.7081C29.2871 98.0261 28.813 99.2809 28.0219 100.097C27.3052 100.837 26.6588 100.908 26.73 100.899L25.9046 94.9556ZM23.1611 97.5336L17.2182 98.359C17.6223 101.268 19.4122 103.16 21.0678 104.236C22.5603 105.205 24.226 105.72 25.4713 106.041C26.7814 106.378 28.2324 106.644 29.5032 106.878C30.8503 107.127 32.1136 107.359 33.3661 107.654C35.932 108.257 37.8256 108.991 39.1189 109.98C40.1923 110.801 41.075 111.951 41.3863 114.193L47.3292 113.367L53.2722 112.542C52.5181 107.113 49.945 103.153 46.4097 100.449C43.0941 97.9129 39.2257 96.7047 36.1139 95.9727C34.5276 95.5996 32.9731 95.3158 31.678 95.0772C30.3067 94.8245 29.2914 94.633 28.4654 94.4202C27.5747 94.1907 27.4348 94.0618 27.6066 94.1736C27.9416 94.3912 28.8959 95.2093 29.1041 96.7081L23.1611 97.5336ZM47.3292 113.367L41.3863 114.193C41.6417 116.031 41.1295 117.859 39.6582 119.462C38.141 121.116 35.3162 122.806 30.6384 123.455L31.4638 129.398L32.2893 135.341C39.0853 134.397 44.6995 131.717 48.4997 127.576C52.3457 123.384 54.0293 117.993 53.2722 112.542L47.3292 113.367ZM91.1958 91.4439L92.6032 97.2765C94.2125 96.8881 95.5898 95.8522 96.4092 94.4137C97.2286 92.9753 97.4173 91.2623 96.9306 89.68L91.1958 91.4439ZM77.3166 94.7931L72.0418 97.6527C73.338 100.044 76.0803 101.264 78.724 100.626L77.3166 94.7931ZM78.5844 103.922L78.3758 97.9251C75.6409 98.0203 73.3168 99.954 72.726 102.626L78.5844 103.922ZM92.8598 103.425L98.8588 103.536C98.8894 101.89 98.2419 100.303 97.068 99.148C95.8941 97.993 94.2971 97.3712 92.6512 97.4285L92.8598 103.425ZM73.3037 123.587L72.4782 117.644C62.6704 119.006 54.2046 112.266 52.895 102.837L46.9521 103.663L41.0091 104.488C43.2038 120.289 57.5661 131.83 74.1291 129.53L73.3037 123.587ZM46.9521 103.663L52.895 102.837C51.5854 93.4085 57.8938 84.6164 67.7017 83.2542L66.8762 77.3112L66.0508 71.3683C49.4878 73.6688 38.8145 88.6874 41.0091 104.488L46.9521 103.663ZM66.8762 77.3112L67.7017 83.2542C74.1741 82.3552 78.2272 84.2764 80.8354 86.5026C83.663 88.916 85.0784 91.9643 85.4609 93.2077L91.1958 91.4439L96.9306 89.68C96.017 86.7096 93.5137 81.5471 88.6259 77.3752C83.5188 73.0163 76.0601 69.978 66.0508 71.3683L66.8762 77.3112ZM91.1958 91.4439L89.7883 85.6113L75.9091 88.9606L77.3166 94.7931L78.724 100.626L92.6032 97.2765L91.1958 91.4439ZM77.3166 94.7931L82.5913 91.9335C81.2186 89.4015 76.6394 82.8205 67.8117 84.0466L68.6372 89.9895L69.4626 95.9325C69.9002 95.8717 70.1672 95.9167 70.3261 95.9608C70.4978 96.0086 70.6793 96.0946 70.8832 96.2447C71.3494 96.5879 71.7674 97.1465 72.0418 97.6527L77.3166 94.7931ZM68.6372 89.9895L67.8117 84.0466C59.037 85.2653 53.8257 93.4885 55.082 102.534L61.025 101.708L66.9679 100.883C66.7086 99.0157 67.1414 97.7895 67.6082 97.1032C68.0693 96.4251 68.7046 96.0377 69.4626 95.9325L68.6372 89.9895ZM61.025 101.708L55.082 102.534C56.3383 111.579 63.5934 118.07 72.3682 116.852L71.5427 110.909L70.7173 104.966C69.9593 105.071 69.2425 104.872 68.614 104.345C67.9779 103.812 67.2272 102.75 66.9679 100.883L61.025 101.708ZM71.5427 110.909L72.3682 116.852C80.8847 115.669 83.731 108.436 84.4429 105.217L78.5844 103.922L72.726 102.626C72.6036 103.179 72.3395 103.831 71.9737 104.287C71.8118 104.489 71.654 104.623 71.4978 104.716C71.3524 104.803 71.1175 104.91 70.7173 104.966L71.5427 110.909ZM78.5844 103.922L78.7931 109.918L93.0685 109.421L92.8598 103.425L92.6512 97.4285L78.3758 97.9251L78.5844 103.922ZM92.8598 103.425L86.8609 103.313C86.845 104.168 86.3472 107.503 84.2221 110.738C82.2647 113.717 78.856 116.758 72.4782 117.644L73.3037 123.587L74.1291 129.53C84.2331 128.127 90.5682 122.933 94.2513 117.327C97.7666 111.976 98.806 106.374 98.8588 103.536L92.8598 103.425ZM138.342 113.584L139.168 119.527C141.105 119.258 142.789 118.062 143.681 116.323C144.573 114.583 144.562 112.518 143.651 110.788L138.342 113.584ZM123.445 115.653L117.955 118.074C119.037 120.527 121.615 121.965 124.271 121.596L123.445 115.653ZM120.144 108.164L125.634 105.744C124.552 103.291 121.974 101.853 119.318 102.221L120.144 108.164ZM107.529 109.917L106.703 103.974C104.048 104.342 101.959 106.429 101.587 109.084L107.529 109.917ZM106.393 118.022L107.219 123.965C109.874 123.596 111.963 121.51 112.335 118.854L106.393 118.022ZM91.9399 120.029L86.0703 118.786C85.665 120.698 86.2171 122.689 87.5498 124.119C88.8825 125.55 90.8288 126.241 92.7654 125.972L91.9399 120.029ZM101.815 73.4277L100.989 67.4847C98.4859 67.8324 96.4689 69.7115 95.945 72.1839L101.815 73.4277ZM116.141 71.4378L121.45 68.6415C120.272 66.4054 117.819 65.1472 115.316 65.4949L116.141 71.4378ZM108.46 98.4796L102.534 97.5436C102.237 99.4204 102.847 101.327 104.178 102.683C105.509 104.039 107.404 104.684 109.286 104.423L108.46 98.4796ZM116.131 97.4142L116.956 103.357C118.833 103.096 120.477 101.964 121.389 100.303C122.302 98.6421 122.376 96.6476 121.589 94.9234L116.131 97.4142ZM110.557 85.2008L116.016 82.71C114.917 80.3013 112.369 78.8978 109.746 79.256C107.122 79.6143 105.044 81.6496 104.631 84.2649L110.557 85.2008ZM138.342 113.584L137.517 107.641L122.62 109.71L123.445 115.653L124.271 121.596L139.168 119.527L138.342 113.584ZM123.445 115.653L128.936 113.233L125.634 105.744L120.144 108.164L114.654 110.585L117.955 118.074L123.445 115.653ZM120.144 108.164L119.318 102.221L106.703 103.974L107.529 109.917L108.354 115.859L120.969 114.107L120.144 108.164ZM107.529 109.917L101.587 109.084L100.451 117.189L106.393 118.022L112.335 118.854L113.471 110.749L107.529 109.917ZM106.393 118.022L105.568 112.079L91.1145 114.086L91.9399 120.029L92.7654 125.972L107.219 123.965L106.393 118.022ZM91.9399 120.029L97.8096 121.273L107.684 74.6714L101.815 73.4277L95.945 72.1839L86.0703 118.786L91.9399 120.029ZM101.815 73.4277L102.64 79.3706L116.967 77.3808L116.141 71.4378L115.316 65.4949L100.989 67.4847L101.815 73.4277ZM116.141 71.4378L110.833 74.2342L133.034 116.381L138.342 113.584L143.651 110.788L121.45 68.6415L116.141 71.4378ZM108.46 98.4796L109.286 104.423L116.956 103.357L116.131 97.4142L115.305 91.4713L107.635 92.5367L108.46 98.4796ZM116.131 97.4142L121.589 94.9234L116.016 82.71L110.557 85.2008L105.099 87.6917L110.672 99.9051L116.131 97.4142ZM110.557 85.2008L104.631 84.2649L102.534 97.5436L108.46 98.4796L114.387 99.4156L116.484 86.1368L110.557 85.2008ZM151.661 94.8054L146.183 97.2532C147.273 99.6933 149.846 101.118 152.492 100.748C155.139 100.377 157.222 98.3007 157.6 95.6552L151.661 94.8054ZM155.791 65.9306L154.966 59.9876C152.317 60.3556 150.231 62.433 149.852 65.0809L155.791 65.9306ZM170.372 63.9055L176.254 65.0897C176.637 63.1834 176.073 61.2095 174.741 59.7935C173.408 58.3775 171.472 57.695 169.546 57.9626L170.372 63.9055ZM161.004 110.437L161.829 116.38C164.355 116.029 166.383 114.12 166.886 111.621L161.004 110.437ZM146.361 112.471L141.02 115.206C142.184 117.478 144.658 118.765 147.186 118.414L146.361 112.471ZM124.73 70.2449L123.904 64.302C121.98 64.5693 120.304 65.7521 119.407 67.4759C118.51 69.1997 118.504 71.2511 119.39 72.9805L124.73 70.2449ZM139.753 68.1582L145.231 65.7104C144.142 63.2725 141.573 61.8479 138.928 62.2152L139.753 68.1582ZM151.661 94.8054L157.6 95.6552L161.731 66.7803L155.791 65.9306L149.852 65.0809L145.721 93.9557L151.661 94.8054ZM155.791 65.9306L156.617 71.8735L171.197 69.8485L170.372 63.9055L169.546 57.9626L154.966 59.9876L155.791 65.9306ZM170.372 63.9055L164.49 62.7213L155.122 109.253L161.004 110.437L166.886 111.621L176.254 65.0897L170.372 63.9055ZM161.004 110.437L160.178 104.494L145.535 106.528L146.361 112.471L147.186 118.414L161.829 116.38L161.004 110.437ZM146.361 112.471L151.701 109.735L130.07 67.5093L124.73 70.2449L119.39 72.9805L141.02 115.206L146.361 112.471ZM124.73 70.2449L125.555 76.1879L140.579 74.1011L139.753 68.1582L138.928 62.2152L123.904 64.302L124.73 70.2449ZM139.753 68.1582L134.275 70.606L146.183 97.2532L151.661 94.8054L157.139 92.3576L145.231 65.7104L139.753 68.1582ZM188.925 89.1127L188.1 83.1697C184.818 83.6256 182.526 86.6559 182.982 89.9381L188.925 89.1127ZM189.674 94.5009L183.731 95.3264C184.187 98.6086 187.217 100.9 190.499 100.444L189.674 94.5009ZM209.705 91.7187L215.648 90.8932C215.192 87.611 212.162 85.3198 208.88 85.7757L209.705 91.7187ZM211.334 103.446L212.16 109.389C215.442 108.933 217.733 105.903 217.277 102.621L211.334 103.446ZM177.23 108.183L171.287 109.008C171.743 112.291 174.773 114.582 178.055 114.126L177.23 108.183ZM171.066 63.809L170.241 57.866C166.959 58.3219 164.668 61.3522 165.123 64.6344L171.066 63.809ZM204.537 59.1601L210.48 58.3347C210.024 55.0525 206.994 52.7613 203.712 53.2172L204.537 59.1601ZM206.166 70.8875L206.991 76.8305C210.274 76.3746 212.565 73.3443 212.109 70.0621L206.166 70.8875ZM186.768 73.5818L185.943 67.6388C182.66 68.0947 180.369 71.125 180.825 74.4072L186.768 73.5818ZM187.428 78.3361L181.486 79.1616C181.941 82.4438 184.972 84.735 188.254 84.2791L187.428 78.3361ZM204.417 75.9765L210.36 75.151C209.904 71.8688 206.874 69.5776 203.592 70.0335L204.417 75.9765ZM205.914 86.753L206.74 92.696C210.022 92.2401 212.313 89.2098 211.857 85.9276L205.914 86.753ZM188.925 89.1127L182.982 89.9381L183.731 95.3264L189.674 94.5009L195.617 93.6755L194.868 88.2872L188.925 89.1127ZM189.674 94.5009L190.499 100.444L210.531 97.6616L209.705 91.7187L208.88 85.7757L188.848 88.558L189.674 94.5009ZM209.705 91.7187L203.762 92.5441L205.391 104.272L211.334 103.446L217.277 102.621L215.648 90.8932L209.705 91.7187ZM211.334 103.446L210.509 97.5031L176.404 102.24L177.23 108.183L178.055 114.126L212.16 109.389L211.334 103.446ZM177.23 108.183L183.173 107.358L177.009 62.9836L171.066 63.809L165.123 64.6344L171.287 109.008L177.23 108.183ZM171.066 63.809L171.892 69.7519L205.362 65.103L204.537 59.1601L203.712 53.2172L170.241 57.866L171.066 63.809ZM204.537 59.1601L198.594 59.9855L200.223 71.713L206.166 70.8875L212.109 70.0621L210.48 58.3347L204.537 59.1601ZM206.166 70.8875L205.34 64.9446L185.943 67.6388L186.768 73.5818L187.594 79.5247L206.991 76.8305L206.166 70.8875ZM186.768 73.5818L180.825 74.4072L181.486 79.1616L187.428 78.3361L193.371 77.5107L192.711 72.7563L186.768 73.5818ZM187.428 78.3361L188.254 84.2791L205.243 81.9194L204.417 75.9765L203.592 70.0335L186.603 72.3932L187.428 78.3361ZM204.417 75.9765L198.474 76.8019L199.971 87.5785L205.914 86.753L211.857 85.9276L210.36 75.151L204.417 75.9765ZM205.914 86.753L205.089 80.8101L188.1 83.1697L188.925 89.1127L189.751 95.0556L206.74 92.696L205.914 86.753ZM239.899 77.962L235.309 81.8263C237.031 83.8712 239.897 84.5305 242.339 83.4432C244.781 82.3559 246.21 79.7843 245.842 77.1366L239.899 77.962ZM236.668 54.6973L235.842 48.7544C232.56 49.2103 230.269 52.2406 230.725 55.5228L236.668 54.6973ZM250.424 52.7867L256.366 51.9613C255.911 48.6791 252.88 46.3879 249.598 46.8438L250.424 52.7867ZM256.587 97.1607L257.412 103.104C260.694 102.648 262.986 99.6175 262.53 96.3353L256.587 97.1607ZM243.021 99.0449L238.424 102.9C239.751 104.483 241.8 105.272 243.847 104.988L243.021 99.0449ZM225.21 77.8054L229.807 73.95C228.088 71.9001 225.22 71.236 222.775 72.3218C220.329 73.4076 218.899 75.981 219.267 78.6308L225.21 77.8054ZM228.441 101.07L229.266 107.013C232.549 106.557 234.84 103.527 234.384 100.245L228.441 101.07ZM214.685 102.981L208.742 103.806C209.198 107.088 212.228 109.379 215.511 108.924L214.685 102.981ZM208.522 58.6066L207.696 52.6637C204.414 53.1196 202.123 56.1499 202.579 59.4321L208.522 58.6066ZM222.024 56.7312L226.614 52.8669C225.286 51.2895 223.241 50.5046 221.199 50.7883L222.024 56.7312ZM239.899 77.962L245.842 77.1366L242.611 53.8719L236.668 54.6973L230.725 55.5228L233.956 78.7875L239.899 77.962ZM236.668 54.6973L237.493 60.6403L251.249 58.7297L250.424 52.7867L249.598 46.8438L235.842 48.7544L236.668 54.6973ZM250.424 52.7867L244.481 53.6122L250.644 97.9862L256.587 97.1607L262.53 96.3353L256.366 51.9613L250.424 52.7867ZM256.587 97.1607L255.761 91.2178L242.196 93.102L243.021 99.0449L243.847 104.988L257.412 103.104L256.587 97.1607ZM243.021 99.0449L247.618 95.1896L229.807 73.95L225.21 77.8054L220.612 81.6607L238.424 102.9L243.021 99.0449ZM225.21 77.8054L219.267 78.6308L222.498 101.895L228.441 101.07L234.384 100.245L231.153 76.9799L225.21 77.8054ZM228.441 101.07L227.616 95.1271L213.86 97.0377L214.685 102.981L215.511 108.924L229.266 107.013L228.441 101.07ZM214.685 102.981L220.628 102.155L214.465 57.7812L208.522 58.6066L202.579 59.4321L208.742 103.806L214.685 102.981ZM208.522 58.6066L209.347 64.5496L222.85 62.6742L222.024 56.7312L221.199 50.7883L207.696 52.6637L208.522 58.6066ZM222.024 56.7312L217.434 60.5956L235.309 81.8263L239.899 77.962L244.489 74.0977L226.614 52.8669L222.024 56.7312ZM280.212 78.178L274.269 79.0035C274.725 82.2857 277.755 84.5769 281.037 84.121L280.212 78.178ZM279.067 69.9371L278.242 63.9942C274.96 64.4501 272.669 67.4804 273.124 70.7626L279.067 69.9371ZM302.205 66.7234L308.148 65.898C307.692 62.6158 304.662 60.3246 301.38 60.7805L302.205 66.7234ZM305.489 90.3684L306.315 96.3114C309.597 95.8555 311.888 92.8252 311.432 89.543L305.489 90.3684ZM298.009 91.4074L292.838 94.4503C294.068 96.5397 296.433 97.6839 298.835 97.3503L298.009 91.4074ZM295.303 86.808L300.474 83.7651C299.375 81.8976 297.355 80.7677 295.188 80.8091C293.022 80.8505 291.046 82.0567 290.019 83.9648L295.303 86.808ZM300.689 60.9249L302.112 66.7537C303.708 66.3641 305.075 65.337 305.893 63.9122C306.711 62.4874 306.908 60.7895 306.44 59.2148L300.689 60.9249ZM286.565 64.3727L281.496 67.5834C282.874 69.7587 285.487 70.8122 287.988 70.2016L286.565 64.3727ZM288.073 77.0863L293.785 78.9207C294.416 76.9559 293.993 74.8049 292.665 73.2253C291.337 71.6458 289.291 70.8594 287.247 71.1433L288.073 77.0863ZM280.212 78.178L286.155 77.3526L285.01 69.1117L279.067 69.9371L273.124 70.7626L274.269 79.0035L280.212 78.178ZM279.067 69.9371L279.893 75.8801L303.031 72.6664L302.205 66.7234L301.38 60.7805L278.242 63.9942L279.067 69.9371ZM302.205 66.7234L296.262 67.5489L299.546 91.1939L305.489 90.3684L311.432 89.543L308.148 65.898L302.205 66.7234ZM305.489 90.3684L304.664 84.4255L297.184 85.4644L298.009 91.4074L298.835 97.3503L306.315 96.3114L305.489 90.3684ZM298.009 91.4074L303.18 88.3645L300.474 83.7651L295.303 86.808L290.132 89.8509L292.838 94.4503L298.009 91.4074ZM295.303 86.808L290.019 83.9648C289.477 84.9719 287.444 87.7865 280.644 88.731L281.469 94.6739L282.295 100.617C292.484 99.2017 298.047 94.3705 300.586 89.6512L295.303 86.808ZM281.469 94.6739L280.644 88.731C272.605 89.8475 263.936 83.4632 262.582 73.713L256.639 74.5384L250.696 75.3639C252.864 90.9703 267.005 102.74 282.295 100.617L281.469 94.6739ZM256.639 74.5384L262.582 73.713C261.272 64.2841 267.581 55.492 277.389 54.1298L276.563 48.1868L275.738 42.2439C259.175 44.5444 248.502 59.563 250.696 75.3639L256.639 74.5384ZM276.563 48.1868L277.389 54.1298C283.878 53.2284 288.058 55.151 290.724 57.2994C292.122 58.4254 293.172 59.6747 293.901 60.7581C294.677 61.9108 294.944 62.6551 294.938 62.635L300.689 60.9249L306.44 59.2148C305.666 56.6098 303.056 51.8239 298.253 47.9546C293.189 43.8753 285.73 40.856 275.738 42.2439L276.563 48.1868ZM300.689 60.9249L299.266 55.096L285.142 58.5439L286.565 64.3727L287.988 70.2016L302.112 66.7537L300.689 60.9249ZM286.565 64.3727L291.634 61.1621C290.294 59.0474 285.663 53.4652 277.455 54.6052L278.28 60.5482L279.106 66.4911C279.549 66.4296 279.852 66.4666 280.057 66.5161C280.273 66.5681 280.474 66.6572 280.67 66.7826C281.117 67.0672 281.421 67.4649 281.496 67.5834L286.565 64.3727ZM278.28 60.5482L277.455 54.6052C268.567 55.8397 263.486 64.1734 264.769 73.4092L270.712 72.5838L276.655 71.7583C276.364 69.6619 276.829 68.3462 277.292 67.6482C277.743 66.9703 278.357 66.5952 279.106 66.4911L278.28 60.5482ZM270.712 72.5838L264.769 73.4092C265.402 77.9692 267.41 81.9571 270.657 84.6854C273.929 87.4341 278.114 88.5977 282.353 88.009L281.527 82.066L280.702 76.1231C279.743 76.2563 278.982 76.0069 278.377 75.498C277.747 74.9687 276.946 73.8545 276.655 71.7583L270.712 72.5838ZM281.527 82.066L282.353 88.009C288.982 87.0883 292.588 82.6493 293.785 78.9207L288.073 77.0863L282.36 75.2518C282.372 75.2137 282.312 75.3887 282.097 75.5814C281.937 75.7245 281.557 76.0044 280.702 76.1231L281.527 82.066ZM288.073 77.0863L287.247 71.1433L279.387 72.2351L280.212 78.178L281.037 84.121L288.898 83.0292L288.073 77.0863ZM321.597 70.6853L320.771 64.7424C317.489 65.1983 315.198 68.2286 315.654 71.5108L321.597 70.6853ZM322.345 76.0736L316.402 76.8991C316.858 80.1813 319.888 82.4724 323.17 82.0166L322.345 76.0736ZM342.377 73.2913L348.32 72.4659C347.864 69.1837 344.834 66.8925 341.551 67.3484L342.377 73.2913ZM344.006 85.0187L344.831 90.9617C348.113 90.5058 350.404 87.4755 349.949 84.1933L344.006 85.0187ZM309.901 89.7557L303.958 90.5811C304.414 93.8633 307.444 96.1545 310.726 95.6986L309.901 89.7557ZM303.738 45.3817L302.912 39.4387C299.63 39.8946 297.339 42.9249 297.795 46.2071L303.738 45.3817ZM337.208 40.7328L343.151 39.9073C342.695 36.6251 339.665 34.3339 336.383 34.7898L337.208 40.7328ZM338.837 52.4602L339.663 58.4031C342.945 57.9473 345.236 54.9169 344.78 51.6347L338.837 52.4602ZM319.439 55.1544L318.614 49.2115C315.332 49.6674 313.041 52.6977 313.497 55.9799L319.439 55.1544ZM320.1 59.9088L314.157 60.7342C314.613 64.0164 317.643 66.3076 320.925 65.8517L320.1 59.9088ZM337.089 57.5491L343.032 56.7237C342.576 53.4415 339.546 51.1503 336.263 51.6062L337.089 57.5491ZM338.586 68.3257L339.411 74.2686C342.693 73.8127 344.984 70.7824 344.529 67.5002L338.586 68.3257ZM321.597 70.6853L315.654 71.5108L316.402 76.8991L322.345 76.0736L328.288 75.2482L327.54 69.8599L321.597 70.6853ZM322.345 76.0736L323.17 82.0166L343.202 79.2343L342.377 73.2913L341.551 67.3484L321.52 70.1307L322.345 76.0736ZM342.377 73.2913L336.434 74.1168L338.063 85.8442L344.006 85.0187L349.949 84.1933L348.32 72.4659L342.377 73.2913ZM344.006 85.0187L343.18 79.0758L309.076 83.8127L309.901 89.7557L310.726 95.6986L344.831 90.9617L344.006 85.0187ZM309.901 89.7557L315.844 88.9302L309.681 44.5562L303.738 45.3817L297.795 46.2071L303.958 90.5811L309.901 89.7557ZM303.738 45.3817L304.563 51.3246L338.034 46.6757L337.208 40.7328L336.383 34.7898L302.912 39.4387L303.738 45.3817ZM337.208 40.7328L331.265 41.5582L332.894 53.2856L338.837 52.4602L344.78 51.6347L343.151 39.9073L337.208 40.7328ZM338.837 52.4602L338.012 46.5172L318.614 49.2115L319.439 55.1544L320.265 61.0974L339.663 58.4031L338.837 52.4602ZM319.439 55.1544L313.497 55.9799L314.157 60.7342L320.1 59.9088L326.043 59.0834L325.382 54.329L319.439 55.1544ZM320.1 59.9088L320.925 65.8517L337.914 63.4921L337.089 57.5491L336.263 51.6062L319.274 53.9658L320.1 59.9088ZM337.089 57.5491L331.146 58.3746L332.643 69.1511L338.586 68.3257L344.529 67.5002L343.032 56.7237L337.089 57.5491ZM338.586 68.3257L337.76 62.3827L320.771 64.7424L321.597 70.6853L322.422 76.6283L339.411 74.2686L338.586 68.3257ZM387.42 78.9887L388.245 84.9317C390.375 84.6359 392.183 83.2234 392.986 81.2289C393.789 79.2344 393.463 76.9629 392.132 75.2744L387.42 78.9887ZM371.952 81.1371L367.215 84.8193C368.532 86.5132 370.653 87.3752 372.778 87.08L371.952 81.1371ZM362.433 68.8903L367.17 65.2081C365.854 63.5141 363.733 62.6521 361.608 62.9473L362.433 68.8903ZM359.58 69.2865L358.755 63.3435C355.473 63.7994 353.182 66.8297 353.637 70.1119L359.58 69.2865ZM361.429 82.5987L362.255 88.5416C365.537 88.0857 367.828 85.0554 367.372 81.7732L361.429 82.5987ZM347.356 84.5533L341.414 85.3788C341.869 88.661 344.9 90.9522 348.182 90.4963L347.356 84.5533ZM341.193 40.1793L340.368 34.2364C337.086 34.6922 334.794 37.7225 335.25 41.0047L341.193 40.1793ZM375.576 63.9633L371.958 59.177C370.672 60.1493 369.831 61.5984 369.625 63.1975C369.419 64.7966 369.866 66.4113 370.864 67.6776L375.576 63.9633ZM356.173 49.4062L355.348 43.4633C352.065 43.9191 349.774 46.9495 350.23 50.2317L356.173 49.4062ZM357.45 58.598L351.507 59.4234C351.963 62.7056 354.993 64.9968 358.275 64.5409L357.45 58.598ZM387.42 78.9887L386.594 73.0458L371.127 75.1941L371.952 81.1371L372.778 87.08L388.245 84.9317L387.42 78.9887ZM371.952 81.1371L376.69 77.4549L367.17 65.2081L362.433 68.8903L357.696 72.5725L367.215 84.8193L371.952 81.1371ZM362.433 68.8903L361.608 62.9473L358.755 63.3435L359.58 69.2865L360.406 75.2294L363.258 74.8332L362.433 68.8903ZM359.58 69.2865L353.637 70.1119L355.486 83.4241L361.429 82.5987L367.372 81.7732L365.523 68.461L359.58 69.2865ZM361.429 82.5987L360.604 76.6557L346.531 78.6104L347.356 84.5533L348.182 90.4963L362.255 88.5416L361.429 82.5987ZM347.356 84.5533L353.299 83.7279L347.136 39.3539L341.193 40.1793L335.25 41.0047L341.414 85.3788L347.356 84.5533ZM341.193 40.1793L342.019 46.1223L363.255 43.1727L362.429 37.2297L361.604 31.2868L340.368 34.2364L341.193 40.1793ZM362.429 37.2297L363.255 43.1727C367.088 42.6402 369.966 43.4875 371.888 44.8508C373.793 46.2021 375.167 48.3397 375.569 51.2352L381.512 50.4098L387.455 49.5843C386.624 43.6051 383.591 38.4394 378.831 35.0628C374.087 31.6982 368.04 30.3929 361.604 31.2868L362.429 37.2297ZM381.512 50.4098L375.569 51.2352C375.988 54.2498 374.911 56.9447 371.958 59.177L375.576 63.9633L379.194 68.7495C385.247 64.1742 388.533 57.3463 387.455 49.5843L381.512 50.4098ZM375.576 63.9633L370.864 67.6776L382.708 82.703L387.42 78.9887L392.132 75.2744L380.288 60.249L375.576 63.9633ZM361.688 48.6402L360.863 42.6973L355.348 43.4633L356.173 49.4062L356.998 55.3492L362.513 54.5831L361.688 48.6402ZM356.173 49.4062L350.23 50.2317L351.507 59.4234L357.45 58.598L363.393 57.7725L362.116 48.5808L356.173 49.4062ZM357.45 58.598L358.275 64.5409L363.79 63.7749L362.965 57.832L362.139 51.889L356.624 52.655L357.45 58.598ZM362.965 57.832L363.79 63.7749C366.562 63.3899 369.2 62.0794 371.021 59.7408C372.851 57.3914 373.47 54.497 373.083 51.7098L367.14 52.5352L361.197 53.3607C361.195 53.3484 361.181 53.2248 361.231 53.0222C361.282 52.8149 361.387 52.5822 361.554 52.367C361.922 51.8941 362.284 51.869 362.139 51.889L362.965 57.832ZM367.14 52.5352L373.083 51.7098C372.695 48.9164 371.287 46.3205 368.895 44.5827C366.515 42.8547 363.633 42.3124 360.863 42.6973L361.688 48.6402L362.513 54.5831C362.659 54.563 362.318 54.6369 361.843 54.2921C361.355 53.9375 361.215 53.4916 361.197 53.3607L367.14 52.5352Z" fill="#411517"/>
<path d="M29.8496 126.174C17.8686 127.838 10.1013 121.228 8.41086 113.709L22.1633 110.377C23.211 113.268 25.1779 114.869 28.0305 114.473C30.2492 114.165 31.1226 113.009 30.9641 111.868C30.1717 106.163 8.7859 110.361 6.75201 95.7177C5.73947 88.4277 10.8706 81.6413 22.8516 79.9772C32.9308 78.5772 41.089 84.7455 42.7355 91.9475L29.0464 95.2704C28.0709 92.4336 26.1287 91.4757 24.2903 91.731C22.2618 92.0128 21.3884 93.1679 21.5469 94.309C22.3305 99.9508 43.5842 94.8019 45.715 110.143C46.7275 117.433 41.3234 124.58 29.8496 126.174ZM71.6894 120.362C58.504 122.194 47.09 113.053 45.3378 100.438C43.5857 87.8233 52.0765 75.918 65.262 74.0866C81.7438 71.7974 88.2855 84.0055 89.5815 88.2193L75.7023 91.5685C74.6599 89.6457 71.9675 86.0781 67.0229 86.7649C62.0784 87.4517 58.5302 92.1444 59.4107 98.4836C60.2912 104.823 64.9839 108.371 69.9285 107.684C74.6828 107.024 76.4543 103.03 76.9702 100.697L91.2456 100.2C91.1769 103.893 88.1712 118.073 71.6894 120.362ZM136.728 110.36L121.831 112.429L118.53 104.94L105.915 106.692L104.779 114.797L90.3257 116.805L100.2 70.2031L114.527 68.2132L136.728 110.36ZM106.846 95.255L114.516 94.1896L108.943 81.9762L106.846 95.255ZM150.046 91.5808L154.177 62.706L168.757 60.6809L159.39 107.212L144.746 109.246L123.115 67.0203L138.139 64.9336L150.046 91.5808ZM187.311 85.8881L188.059 91.2763L208.091 88.494L209.72 100.221L175.615 104.958L169.452 60.5844L202.923 55.9355L204.552 67.6629L185.154 70.3572L185.814 75.1115L202.803 72.7519L204.3 83.5284L187.311 85.8881ZM238.285 74.7374L235.053 51.4727L248.809 49.5621L254.973 93.9361L241.407 95.8203L223.595 74.5808L226.827 97.8454L213.071 99.7561L206.908 55.382L220.41 53.5066L238.285 74.7374ZM278.598 74.9534L277.453 66.7125L300.591 63.4988L303.875 87.1438L296.395 88.1828L293.688 83.5834C292.148 86.4466 288.35 90.2695 279.855 91.4493C268.191 93.0694 256.786 83.9921 255.025 71.3138C253.273 58.6989 261.764 46.7936 274.949 44.9622C291.431 42.673 298.226 54.8459 299.075 57.7003L284.951 61.1481C284.123 59.8416 281.42 56.6632 276.666 57.3236C271.721 58.0103 268.173 62.7031 269.098 69.3592C270.022 76.0153 274.715 79.5634 279.913 78.8414C283.97 78.2779 285.872 75.6877 286.458 73.8616L278.598 74.9534ZM319.982 67.4607L320.731 72.849L340.763 70.0667L342.391 81.7941L308.287 86.5311L302.123 42.1571L335.594 37.5082L337.223 49.2356L317.825 51.9298L318.486 56.6842L335.475 54.3245L336.971 65.1011L319.982 67.4607ZM385.806 75.7641L370.338 77.9125L360.819 65.6657L357.966 66.0619L359.815 79.3741L345.742 81.3287L339.579 36.9547L360.815 34.0051C371.084 32.5787 378.665 38.3104 379.898 47.1852C380.646 52.5734 378.464 57.3349 373.962 60.7386L385.806 75.7641ZM360.074 45.4156L354.559 46.1816L355.835 55.3734L361.35 54.6074C364.266 54.2023 365.904 52.0364 365.525 49.3106C365.156 46.6482 362.99 45.0106 360.074 45.4156Z" fill="#F4EDE3"/>
<path d="M102.658 48.0706L104.035 37.3983L108.144 36.8078L105.474 54.1641L102.053 54.6556L97.8399 45.2472L96.4227 55.4646L92.978 55.9595L85.5524 40.0539L89.7573 39.4498L94.0757 49.2553L95.4587 38.6306L98.3332 38.2175L102.658 48.0706ZM121.451 45.4673C121.547 46.1325 121.544 46.6179 121.507 46.8657L112.86 48.1081C113.407 49.3872 114.511 49.9803 115.794 49.796C116.981 49.6253 117.514 48.9427 117.714 48.6472L121.491 48.2742C121.072 50.0802 119.383 52.505 116.295 52.9487C112.755 53.4573 109.539 50.9856 109.034 47.4697C108.536 44.0013 110.967 40.6697 114.435 40.1714C117.951 39.6662 120.96 42.0465 121.451 45.4673ZM114.835 43.2903C113.575 43.4712 112.667 44.4019 112.501 45.7834L117.752 45.0291C117.289 43.8347 116.165 43.0991 114.835 43.2903ZM128.243 50.8926L124.489 51.4319L122.1 34.8027L125.853 34.2634L128.243 50.8926ZM136.78 50.0054C133.288 50.5072 130.017 47.9948 129.519 44.5264C129.021 41.058 131.451 37.7264 134.944 37.2247C138.602 36.699 140.963 39.2936 141.637 41.282L137.958 42.0045C137.71 41.4583 136.786 40.4272 135.432 40.6218C133.959 40.8334 133.023 42.2529 133.272 43.9871C133.522 45.7213 134.819 46.8199 136.292 46.6083C137.646 46.4137 138.242 45.1642 138.327 44.5702L142.06 44.2278C141.973 46.3254 140.438 49.4798 136.78 50.0054ZM150.468 48.0387C146.952 48.5438 143.682 46.0314 143.183 42.5631C142.685 39.0947 145.116 35.7631 148.632 35.2579C152.124 34.7562 155.418 37.2651 155.917 40.7335C156.415 44.2019 153.96 47.5369 150.468 48.0387ZM149.98 44.6416C151.453 44.4299 152.412 43.007 152.163 41.2728C151.914 39.5386 150.593 38.4434 149.12 38.655C147.623 38.8701 146.688 40.2896 146.937 42.0238C147.186 43.7579 148.483 44.8566 149.98 44.6416ZM170.36 32.1359C172.974 31.7604 174.994 33.3371 175.452 36.5204L176.52 43.956L172.767 44.4953L171.756 37.4635C171.582 36.252 170.764 35.6179 169.861 35.7476C168.958 35.8774 168.351 36.7162 168.525 37.9277L169.536 44.9595L165.782 45.4988L164.772 38.4671C164.598 37.2555 163.779 36.6215 162.877 36.7512C161.974 36.8809 161.367 37.7197 161.541 38.9313L162.551 45.9631L158.798 46.5024L157.057 34.3868L159.837 33.9874L160.554 35.0967L160.673 35.0796C160.961 34.5533 161.808 33.3647 163.471 33.1258C165.348 32.8561 166.509 33.6833 167.032 34.2871C167.48 33.5196 168.602 32.3885 170.36 32.1359ZM189.959 35.624C190.054 36.2892 190.051 36.7746 190.014 37.0224L181.367 38.2648C181.915 39.544 183.018 40.137 184.301 39.9527C185.489 39.782 186.021 39.0994 186.221 38.8039L189.998 38.4309C189.579 40.2369 187.891 42.6617 184.802 43.1054C181.263 43.614 178.047 41.1423 177.541 37.6264C177.043 34.158 179.474 30.8264 182.942 30.3281C186.458 29.8229 189.467 32.2032 189.959 35.624ZM183.342 33.447C182.083 33.6279 181.174 34.5586 181.009 35.9401L186.259 35.1858C185.796 33.9914 184.672 33.2558 183.342 33.447ZM203.372 40.4373C200.783 40.8093 198.779 39.3515 198.359 36.4295L197.707 31.8921L195.854 32.1583L195.417 29.1176L196.296 28.9913C197.175 28.865 197.623 28.2672 197.5 27.412L197.22 25.464L200.546 24.9862L200.99 28.0745L203.437 27.7229L203.908 31.0012L201.461 31.3528L202.027 35.2963C202.191 36.4366 202.86 36.8739 203.858 36.7305C204.143 36.6896 204.469 36.5943 204.689 36.4414L205.181 39.8622C204.845 40.056 204.227 40.3144 203.372 40.4373ZM212.92 39.0654C209.405 39.5705 206.134 37.0582 205.636 33.5898C205.137 30.1214 207.568 26.7898 211.084 26.2846C214.576 25.7829 217.871 28.2918 218.369 31.7602C218.867 35.2286 216.413 38.5636 212.92 39.0654ZM212.432 35.6683C213.905 35.4566 214.865 34.0337 214.615 32.2995C214.366 30.5653 213.045 29.4701 211.572 29.6817C210.076 29.8968 209.14 31.3163 209.389 33.0505C209.638 34.7847 210.936 35.8833 212.432 35.6683ZM234.263 35.6594L230.224 36.2397L228.391 23.4827L223.64 24.1654L223.084 20.2931L236.601 18.3509L237.157 22.2232L232.43 22.9024L234.263 35.6594ZM241.968 21.8472C245.27 21.3728 247.501 23.2343 247.945 26.3226L248.983 33.5444L246.203 33.9438L245.486 32.8345L245.367 32.8516C244.883 33.5274 243.97 34.6041 242.094 34.8737C239.766 35.2082 237.772 33.8216 237.479 31.7786C237.127 29.3317 239.111 27.4464 242.864 26.9071L244.266 26.7057L244.249 26.5869C244.075 25.3754 243.341 24.8261 242.367 24.9661C241.465 25.0958 241.051 25.7614 241.031 26.2976L237.345 26.6332C237.269 24.9227 238.381 22.3626 241.968 21.8472ZM242.746 31.8219C244.077 31.6307 244.819 30.5542 244.655 29.4139L244.584 28.915L243.087 29.1301C241.471 29.3622 240.963 30.0414 241.079 30.8491C241.175 31.5143 241.772 31.9618 242.746 31.8219ZM255.947 32.8833C252.787 33.3373 250.651 31.8015 250.15 29.4973L253.713 28.8156C253.928 29.6334 254.627 30.1148 255.53 29.9851C256.409 29.8588 256.775 29.3697 256.707 28.8946C256.434 26.9941 250.289 28.6045 249.695 24.4709C249.404 22.4517 250.856 20.5702 254.039 20.1128C257.008 19.6861 259.09 21.1812 259.605 23.4108L256.038 24.0687C255.813 23.3493 255.334 22.8847 254.479 23.0076C253.719 23.1168 253.393 23.5515 253.455 23.9792C253.714 25.7846 259.829 23.9604 260.447 28.2603C260.768 30.4933 259.296 32.402 255.947 32.8833ZM269.349 23.9988L274.747 29.8425L270.281 30.4842L266.001 25.668L266.765 30.9894L263.012 31.5287L260.623 14.8995L264.376 14.3602L265.724 23.7438L268.303 18.4028L272.484 17.802L269.349 23.9988ZM280.266 29.389C277.368 29.8054 275.099 28.022 274.645 24.8624L273.608 17.6406L277.361 17.1013L278.33 23.848C278.511 25.1071 279.554 25.9514 280.742 25.7807C281.953 25.6066 282.692 24.5063 282.511 23.2472L281.542 16.5005L285.295 15.9612L287.036 28.0768L284.281 28.4728L283.54 27.3669L283.421 27.3839C283.15 27.8593 282.095 29.1262 280.266 29.389ZM288.797 10.5118C290.033 10.3343 291.065 11.1073 291.28 12.6039C291.673 15.3359 289.981 17.3975 289.062 18.2569L288.325 17.5142C288.745 16.8961 289.267 15.9725 289.286 14.7574C288.136 14.85 287.175 14.0667 287.011 12.9264C286.84 11.7386 287.61 10.6824 288.797 10.5118ZM300.002 26.5533C296.842 27.0073 294.706 25.4715 294.205 23.1673L297.769 22.4856C297.983 23.3034 298.683 23.7848 299.586 23.6551C300.465 23.5288 300.831 23.0397 300.762 22.5646C300.489 20.6641 294.344 22.2745 293.75 18.141C293.46 16.1217 294.911 14.2402 298.094 13.7828C301.064 13.3561 303.146 14.8513 303.66 17.0808L300.093 17.7387C299.869 17.0194 299.39 16.5548 298.535 16.6776C297.774 16.7869 297.449 17.2216 297.51 17.6492C297.77 19.4546 303.884 17.6305 304.502 21.9303C304.823 24.1634 303.352 26.072 300.002 26.5533Z" fill="#F4EDE3"/>
</svg>
