<svg width="788" height="661" viewBox="0 0 788 661" fill="none" xmlns="http://www.w3.org/2000/svg">
<path d="M312.074 5.79702C254.446 10.3822 229.23 5.79701 170.472 38.6762C136.196 49.1811 75.7799 72.3182 54.5874 98.2037C33.3949 124.089 37.5115 186.942 28.0746 206.143C18.631 225.349 3.47501 297.667 0.933257 327.301C-1.60849 356.936 1.55513 429.93 4.29292 472.685C7.03071 515.44 39.4992 604.885 54.5874 619.981C69.6757 635.077 243.576 641.409 290.713 650.888C337.85 660.367 406.896 668.226 466.391 650.046C525.879 631.865 687.611 623.934 741.853 601.685C824.872 576.245 753.615 485.657 779.621 439.634C805.62 393.61 762.842 186.259 762.565 139.055C762.166 70.2961 692.14 -24.4422 312.074 5.78518" fill="#F4EDE3"/>
</svg>
