<svg width="447" height="233" viewBox="0 0 447 233" fill="none" xmlns="http://www.w3.org/2000/svg">
<path d="M91.7175 86.1203C94.7618 86.9427 100.455 89.961 101.423 96.9318C102.571 105.196 97.1355 112.471 86.3558 113.968L58.9754 117.771L51.9883 67.4656L77.7158 63.8922C88.4236 62.405 95.2887 67.5313 96.2669 74.574C97.0754 80.395 94.3007 84.15 91.7175 86.1203ZM75.4322 75.9296L69.5393 76.748L70.6372 84.6532L76.5301 83.8347C79.1173 83.4753 80.6024 81.511 80.293 79.2832C79.9836 77.0554 78.0193 75.5702 75.4322 75.9296ZM73.3323 104.057L80.7343 103.028C83.6089 102.629 85.2797 100.419 84.9304 97.9041C84.581 95.3889 82.3612 93.6461 79.4866 94.0454L72.0846 95.0735L73.3323 104.057ZM153.926 104.583L137.038 106.928L133.295 98.4384L118.994 100.425L117.706 109.613L101.321 111.889L112.516 59.0587L128.757 56.8029L153.926 104.583ZM120.05 87.4592L128.745 86.2514L122.427 72.4055L120.05 87.4592ZM177.469 102.411C162.521 104.488 149.582 94.1252 147.595 79.8242C145.609 65.5231 155.235 52.0265 170.183 49.9503C188.867 47.3551 196.284 61.195 197.753 65.972L182.018 69.7689C180.837 67.589 177.784 63.5447 172.179 64.3232C166.574 65.1018 162.551 70.4218 163.549 77.6082C164.547 84.7947 169.867 88.8171 175.473 88.0385C180.863 87.2899 182.871 82.7624 183.456 80.1174L199.639 79.5544C199.562 83.7405 196.154 99.8162 177.469 102.411ZM232.145 66.9819L251.886 90.9766L233.561 93.5219L217.858 73.2881L220.913 95.2786L204.959 97.4945L197.972 47.1893L213.926 44.9734L216.87 66.1735L225.711 43.3364L243.174 40.9109L232.145 66.9819ZM292.192 85.3784L276.238 87.5943L271.347 52.3806L257.477 54.3071L255.381 39.2155L299.074 33.1467L301.171 48.2383L287.301 50.1647L292.192 85.3784ZM330.757 81.1205C315.738 83.2067 302.726 72.8543 300.74 58.5532C298.744 44.1803 308.451 30.7456 323.471 28.6594C338.491 26.5732 351.502 36.9257 353.488 51.2267C355.475 65.5278 345.777 79.0344 330.757 81.1205ZM328.761 66.7476C334.51 65.9491 338.533 60.6291 337.535 53.4426C336.536 46.2562 331.216 42.2338 325.467 43.0323C319.718 43.8308 315.696 49.1508 316.694 56.3373C317.692 63.5238 323.012 67.5462 328.761 66.7476Z" fill="#F4EDE3"/>
<path d="M91.7175 86.1203L87.5923 80.712C85.5323 82.2833 84.5438 84.8884 85.043 87.4308C85.5422 89.9731 87.4423 92.0111 89.9435 92.6868L91.7175 86.1203ZM58.9754 117.771L52.2381 118.707C52.7549 122.428 56.1903 125.025 59.9112 124.508L58.9754 117.771ZM51.9883 67.4656L51.0525 60.7283C47.3316 61.2451 44.7342 64.6805 45.251 68.4014L51.9883 67.4656ZM69.5393 76.748L68.6035 70.0107C64.8826 70.5276 62.2851 73.9629 62.802 77.6838L69.5393 76.748ZM70.6372 84.6532L63.8999 85.5889C64.4168 89.3098 67.8521 91.9073 71.573 91.3905L70.6372 84.6532ZM73.3323 104.057L66.595 104.992C67.1118 108.713 70.5471 111.311 74.268 110.794L73.3323 104.057ZM72.0846 95.0735L71.1488 88.3362C67.4279 88.853 64.8305 92.2884 65.3473 96.0093L72.0846 95.0735ZM91.7175 86.1203L89.9435 92.6868C90.6116 92.8673 91.7965 93.3763 92.804 94.2811C93.7096 95.0944 94.4533 96.1919 94.686 97.8676L101.423 96.9318L108.161 95.9961C106.658 85.1806 97.8413 80.7288 93.4915 79.5537L91.7175 86.1203ZM101.423 96.9318L94.686 97.8676C95.0103 100.202 94.4092 102.124 93.1628 103.602C91.8819 105.121 89.4816 106.666 85.42 107.231L86.3558 113.968L87.2916 120.705C94.0096 119.772 99.7171 116.932 103.562 112.373C107.441 107.773 108.984 101.926 108.161 95.9961L101.423 96.9318ZM86.3558 113.968L85.42 107.231L58.0396 111.034L58.9754 117.771L59.9112 124.508L87.2916 120.705L86.3558 113.968ZM58.9754 117.771L65.7127 116.835L58.7256 66.5299L51.9883 67.4656L45.251 68.4014L52.2381 118.707L58.9754 117.771ZM51.9883 67.4656L52.924 74.2029L78.6516 70.6295L77.7158 63.8922L76.78 57.1549L51.0525 60.7283L51.9883 67.4656ZM77.7158 63.8922L78.6516 70.6295C82.778 70.0564 85.492 70.8428 87.0475 71.8103C88.5421 72.7398 89.3235 74.026 89.5296 75.5098L96.2669 74.574L103.004 73.6382C102.232 68.0792 99.0919 63.2809 94.2324 60.2584C89.4338 57.2739 83.3614 56.2408 76.78 57.1549L77.7158 63.8922ZM96.2669 74.574L89.5296 75.5098C89.7502 77.098 89.4682 78.1453 89.1287 78.8544C88.7578 79.6294 88.1873 80.2581 87.5923 80.712L91.7175 86.1203L95.8428 91.5285C99.889 88.4423 104.227 82.4432 103.004 73.6382L96.2669 74.574ZM75.4322 75.9296L74.4964 69.1923L68.6035 70.0107L69.5393 76.748L70.475 83.4853L76.3679 82.6669L75.4322 75.9296ZM69.5393 76.748L62.802 77.6838L63.8999 85.5889L70.6372 84.6532L77.3745 83.7174L76.2766 75.8123L69.5393 76.748ZM70.6372 84.6532L71.573 91.3905L77.4659 90.572L76.5301 83.8347L75.5944 77.0974L69.7015 77.9158L70.6372 84.6532ZM76.5301 83.8347L77.4659 90.572C83.3785 89.7507 87.9098 84.6797 87.0303 78.3474L80.293 79.2832L73.5557 80.219C73.4601 79.5306 73.6443 78.6834 74.2004 77.9929C74.7473 77.3139 75.3659 77.1291 75.5944 77.0974L76.5301 83.8347ZM80.293 79.2832L87.0303 78.3474C86.1508 72.0152 80.4089 68.371 74.4964 69.1923L75.4322 75.9296L76.3679 82.6669C76.1395 82.6986 75.494 82.6894 74.7827 82.1851C74.0594 81.6723 73.6513 80.9074 73.5557 80.219L80.293 79.2832ZM73.3323 104.057L74.268 110.794L81.6701 109.766L80.7343 103.028L79.7985 96.2912L72.3965 97.3193L73.3323 104.057ZM80.7343 103.028L81.6701 109.766C87.9139 108.899 92.5814 103.547 91.6677 96.9683L84.9304 97.9041L78.1931 98.8399C78.1186 98.3037 78.2605 97.5974 78.7297 97.0108C79.1914 96.4337 79.6924 96.3059 79.7985 96.2912L80.7343 103.028ZM84.9304 97.9041L91.6677 96.9683C90.7731 90.5279 84.9387 86.4209 78.5508 87.3081L79.4866 94.0454L80.4224 100.783C80.2457 100.807 79.7157 100.793 79.1417 100.373C78.5752 99.9593 78.2655 99.3609 78.1931 98.8399L84.9304 97.9041ZM79.4866 94.0454L78.5508 87.3081L71.1488 88.3362L72.0846 95.0735L73.0203 101.811L80.4224 100.783L79.4866 94.0454ZM72.0846 95.0735L65.3473 96.0093L66.595 104.992L73.3323 104.057L80.0696 103.121L78.8219 94.1377L72.0846 95.0735ZM153.926 104.583L154.862 111.32C157.057 111.015 158.966 109.66 159.978 107.687C160.99 105.715 160.977 103.374 159.944 101.413L153.926 104.583ZM137.038 106.928L130.814 109.672C132.04 112.454 134.963 114.084 137.973 113.666L137.038 106.928ZM133.295 98.4384L139.519 95.6944C138.292 92.9131 135.37 91.2829 132.359 91.7011L133.295 98.4384ZM118.994 100.425L118.058 93.6874C115.047 94.1056 112.679 96.4706 112.257 99.4809L118.994 100.425ZM117.706 109.613L118.642 116.351C121.653 115.933 124.021 113.568 124.442 110.557L117.706 109.613ZM101.321 111.889L94.6668 110.479C94.2073 112.648 94.8332 114.904 96.3441 116.526C97.855 118.148 100.061 118.931 102.257 118.627L101.321 111.889ZM112.516 59.0587L111.58 52.3214C108.742 52.7156 106.455 54.8458 105.861 57.6487L112.516 59.0587ZM128.757 56.8029L134.775 53.6327C133.44 51.0978 130.659 49.6714 127.821 50.0656L128.757 56.8029ZM120.05 87.4592L113.331 86.3981C112.995 88.5257 113.686 90.6867 115.195 92.2239C116.704 93.7611 118.852 94.4928 120.985 94.1965L120.05 87.4592ZM128.745 86.2514L129.681 92.9887C131.809 92.6931 133.672 91.4095 134.707 89.5264C135.741 87.6433 135.825 85.3822 134.933 83.4276L128.745 86.2514ZM122.427 72.4055L128.615 69.5817C127.369 66.8511 124.481 65.2599 121.507 65.6661C118.533 66.0722 116.177 68.3796 115.708 71.3444L122.427 72.4055ZM153.926 104.583L152.99 97.8454L136.102 100.191L137.038 106.928L137.973 113.666L154.862 111.32L153.926 104.583ZM137.038 106.928L143.262 104.184L139.519 95.6944L133.295 98.4384L127.071 101.182L130.814 109.672L137.038 106.928ZM133.295 98.4384L132.359 91.7011L118.058 93.6874L118.994 100.425L119.929 107.162L134.23 105.176L133.295 98.4384ZM118.994 100.425L112.257 99.4809L110.97 108.67L117.706 109.613L124.442 110.557L125.73 101.369L118.994 100.425ZM117.706 109.613L116.77 102.876L100.385 105.152L101.321 111.889L102.257 118.627L118.642 116.351L117.706 109.613ZM101.321 111.889L107.975 113.299L119.17 60.4687L112.516 59.0587L105.861 57.6487L94.6668 110.479L101.321 111.889ZM112.516 59.0587L113.451 65.796L129.693 63.5402L128.757 56.8029L127.821 50.0656L111.58 52.3214L112.516 59.0587ZM128.757 56.8029L122.739 59.973L147.908 107.753L153.926 104.583L159.944 101.413L134.775 53.6327L128.757 56.8029ZM120.05 87.4592L120.985 94.1965L129.681 92.9887L128.745 86.2514L127.809 79.5141L119.114 80.7219L120.05 87.4592ZM128.745 86.2514L134.933 83.4276L128.615 69.5817L122.427 72.4055L116.239 75.2293L122.557 89.0752L128.745 86.2514ZM122.427 72.4055L115.708 71.3444L113.331 86.3981L120.05 87.4592L126.768 88.5203L129.146 73.4666L122.427 72.4055ZM197.753 65.972L199.348 72.5842C201.173 72.1439 202.734 70.9695 203.663 69.3388C204.592 67.7081 204.806 65.7661 204.254 63.9723L197.753 65.972ZM182.018 69.7689L176.039 73.0107C177.508 75.7212 180.617 77.1043 183.614 76.3811L182.018 69.7689ZM183.456 80.1174L183.219 73.3195C180.119 73.4274 177.484 75.6196 176.814 78.6488L183.456 80.1174ZM199.639 79.5544L206.44 79.6808C206.475 77.8142 205.741 76.0153 204.41 74.7059C203.079 73.3965 201.269 72.6916 199.403 72.7565L199.639 79.5544ZM177.469 102.411L176.533 95.6741C165.415 97.2185 155.817 89.5776 154.333 78.8884L147.595 79.8242L140.858 80.7599C143.346 98.6729 159.628 111.757 178.405 109.149L177.469 102.411ZM147.595 79.8242L154.333 78.8884C152.848 68.1992 160 58.232 171.118 56.6876L170.183 49.9503L169.247 43.213C150.47 45.821 138.37 62.847 140.858 80.7599L147.595 79.8242ZM170.183 49.9503L171.118 56.6876C178.456 55.6685 183.051 57.8465 186.008 60.3703C189.213 63.1062 190.818 66.562 191.251 67.9716L197.753 65.972L204.254 63.9723C203.219 60.605 200.381 54.7523 194.839 50.0229C189.05 45.0813 180.594 41.6369 169.247 43.213L170.183 49.9503ZM197.753 65.972L196.157 59.3598L180.423 63.1567L182.018 69.7689L183.614 76.3811L199.348 72.5842L197.753 65.972ZM182.018 69.7689L187.998 66.5271C186.442 63.6566 181.251 56.1959 171.243 57.5859L172.179 64.3232L173.115 71.0605C173.611 70.9916 173.914 71.0426 174.094 71.0927C174.288 71.1468 174.494 71.2443 174.725 71.4145C175.254 71.8036 175.728 72.4368 176.039 73.0107L182.018 69.7689ZM172.179 64.3232L171.243 57.5859C161.296 58.9676 155.388 68.2899 156.812 78.544L163.549 77.6082L170.287 76.6725C169.993 74.5559 170.483 73.1658 171.012 72.3877C171.535 71.619 172.255 71.1799 173.115 71.0605L172.179 64.3232ZM163.549 77.6082L156.812 78.544C158.236 88.7981 166.461 96.1575 176.409 94.7758L175.473 88.0385L174.537 81.3012C173.678 81.4206 172.865 81.1944 172.153 80.5972C171.432 79.9928 170.581 78.789 170.287 76.6725L163.549 77.6082ZM175.473 88.0385L176.409 94.7758C186.064 93.4348 189.29 85.2356 190.097 81.586L183.456 80.1174L176.814 78.6488C176.676 79.276 176.376 80.0149 175.961 80.5316C175.778 80.7602 175.599 80.9127 175.422 81.0185C175.257 81.1171 174.991 81.2382 174.537 81.3012L175.473 88.0385ZM183.456 80.1174L183.692 86.9153L199.876 86.3522L199.639 79.5544L199.403 72.7565L183.219 73.3195L183.456 80.1174ZM199.639 79.5544L192.839 79.4279C192.821 80.3967 192.256 84.1775 189.847 87.8447C187.628 91.2223 183.764 94.6699 176.533 95.6741L177.469 102.411L178.405 109.149C189.86 107.558 197.041 101.67 201.217 95.3143C205.202 89.2483 206.38 82.8982 206.44 79.6808L199.639 79.5544ZM232.145 66.9819L225.881 64.3317C224.895 66.6629 225.284 69.3488 226.893 71.3034L232.145 66.9819ZM251.886 90.9766L252.822 97.7139C255.261 97.375 257.327 95.7442 258.223 93.45C259.118 91.1559 258.704 88.5568 257.139 86.655L251.886 90.9766ZM233.561 93.5219L228.187 97.6921C229.68 99.6151 232.086 100.594 234.497 100.259L233.561 93.5219ZM217.858 73.2881L223.232 69.1178C221.343 66.684 218.055 65.8235 215.216 67.0204C212.377 68.2172 210.697 71.1724 211.121 74.2238L217.858 73.2881ZM220.913 95.2786L221.848 102.016C225.569 101.499 228.167 98.0638 227.65 94.3428L220.913 95.2786ZM204.959 97.4945L198.221 98.4303C198.738 102.151 202.174 104.749 205.894 104.232L204.959 97.4945ZM197.972 47.1893L197.036 40.452C193.315 40.9688 190.717 44.4042 191.234 48.1251L197.972 47.1893ZM213.926 44.9734L220.663 44.0376C220.146 40.3167 216.711 37.7193 212.99 38.2361L213.926 44.9734ZM216.87 66.1735L210.133 67.1092C210.559 70.1789 213.007 72.5723 216.085 72.93C219.163 73.2877 222.094 71.5193 223.213 68.6292L216.87 66.1735ZM225.711 43.3364L224.776 36.5991C222.329 36.9389 220.26 38.5777 219.368 40.8807L225.711 43.3364ZM243.174 40.9109L249.439 43.561C250.393 41.3066 250.061 38.7135 248.572 36.7712C247.082 34.8289 244.663 33.8368 242.239 34.1736L243.174 40.9109ZM232.145 66.9819L226.893 71.3034L246.634 95.2981L251.886 90.9766L257.139 86.655L237.398 62.6603L232.145 66.9819ZM251.886 90.9766L250.951 84.2393L232.625 86.7846L233.561 93.5219L234.497 100.259L252.822 97.7139L251.886 90.9766ZM233.561 93.5219L238.934 89.3516L223.232 69.1178L217.858 73.2881L212.485 77.4583L228.187 97.6921L233.561 93.5219ZM217.858 73.2881L211.121 74.2238L214.175 96.2144L220.913 95.2786L227.65 94.3428L224.596 72.3523L217.858 73.2881ZM220.913 95.2786L219.977 88.5413L204.023 90.7572L204.959 97.4945L205.894 104.232L221.848 102.016L220.913 95.2786ZM204.959 97.4945L211.696 96.5588L204.709 46.2536L197.972 47.1893L191.234 48.1251L198.221 98.4303L204.959 97.4945ZM197.972 47.1893L198.907 53.9266L214.861 51.7107L213.926 44.9734L212.99 38.2361L197.036 40.452L197.972 47.1893ZM213.926 44.9734L207.188 45.9092L210.133 67.1092L216.87 66.1735L223.607 65.2377L220.663 44.0376L213.926 44.9734ZM216.87 66.1735L223.213 68.6292L232.055 45.7922L225.711 43.3364L219.368 40.8807L210.527 63.7177L216.87 66.1735ZM225.711 43.3364L226.647 50.0737L244.11 47.6482L243.174 40.9109L242.239 34.1736L224.776 36.5991L225.711 43.3364ZM243.174 40.9109L236.91 38.2608L225.881 64.3317L232.145 66.9819L238.41 69.632L249.439 43.561L243.174 40.9109ZM292.192 85.3784L293.127 92.1157C296.848 91.5988 299.446 88.1635 298.929 84.4426L292.192 85.3784ZM276.238 87.5943L269.5 88.5301C270.017 92.251 273.453 94.8484 277.173 94.3316L276.238 87.5943ZM271.347 52.3806L278.084 51.4449C277.567 47.724 274.132 45.1265 270.411 45.6433L271.347 52.3806ZM257.477 54.3071L250.74 55.2429C251.256 58.9638 254.692 61.5612 258.413 61.0444L257.477 54.3071ZM255.381 39.2155L254.445 32.4782C250.724 32.995 248.127 36.4304 248.643 40.1513L255.381 39.2155ZM299.074 33.1467L305.812 32.2109C305.295 28.49 301.86 25.8926 298.139 26.4094L299.074 33.1467ZM301.171 48.2383L302.106 54.9756C305.827 54.4588 308.425 51.0234 307.908 47.3025L301.171 48.2383ZM287.301 50.1647L286.365 43.4274C282.644 43.9442 280.047 47.3796 280.563 51.1005L287.301 50.1647ZM292.192 85.3784L291.256 78.6411L275.302 80.857L276.238 87.5943L277.173 94.3316L293.127 92.1157L292.192 85.3784ZM276.238 87.5943L282.975 86.6585L278.084 51.4449L271.347 52.3806L264.609 53.3164L269.5 88.5301L276.238 87.5943ZM271.347 52.3806L270.411 45.6433L256.541 47.5698L257.477 54.3071L258.413 61.0444L272.283 59.1179L271.347 52.3806ZM257.477 54.3071L264.214 53.3713L262.118 38.2797L255.381 39.2155L248.643 40.1513L250.74 55.2429L257.477 54.3071ZM255.381 39.2155L256.316 45.9528L300.01 39.884L299.074 33.1467L298.139 26.4094L254.445 32.4782L255.381 39.2155ZM299.074 33.1467L292.337 34.0825L294.433 49.174L301.171 48.2383L307.908 47.3025L305.812 32.2109L299.074 33.1467ZM301.171 48.2383L300.235 41.501L286.365 43.4274L287.301 50.1647L288.236 56.902L302.106 54.9756L301.171 48.2383ZM287.301 50.1647L280.563 51.1005L285.454 86.3141L292.192 85.3784L298.929 84.4426L294.038 49.2289L287.301 50.1647ZM330.757 81.1205L329.822 74.3832C318.595 75.9426 308.957 68.27 307.477 57.6174L300.74 58.5532L294.003 59.489C296.496 77.4386 312.881 90.4708 331.693 87.8578L330.757 81.1205ZM300.74 58.5532L307.477 57.6174C305.989 46.9051 313.168 36.9577 324.407 35.3967L323.471 28.6594L322.535 21.9221C303.734 24.5334 291.498 41.4555 294.003 59.489L300.74 58.5532ZM323.471 28.6594L324.407 35.3967C335.634 33.8374 345.272 41.51 346.751 52.1625L353.488 51.2267L360.226 50.2909C357.733 32.3414 341.348 19.3091 322.535 21.9221L323.471 28.6594ZM353.488 51.2267L346.751 52.1625C348.231 62.815 341.049 72.8239 329.822 74.3832L330.757 81.1205L331.693 87.8578C350.506 85.2449 362.719 68.2405 360.226 50.2909L353.488 51.2267ZM328.761 66.7476L329.697 73.4849C339.731 72.0913 345.705 62.8243 344.272 52.5069L337.535 53.4426L330.797 54.3784C331.091 56.4943 330.6 57.8704 330.072 58.6389C329.553 59.3942 328.804 59.8744 327.825 60.0103L328.761 66.7476ZM337.535 53.4426L344.272 52.5069C342.839 42.1895 334.565 34.9014 324.531 36.295L325.467 43.0323L326.403 49.7696C327.381 49.6337 328.233 49.8917 328.938 50.4769C329.656 51.0725 330.503 52.2625 330.797 54.3784L337.535 53.4426ZM325.467 43.0323L324.531 36.295C314.498 37.6887 308.523 46.9557 309.957 57.2731L316.694 56.3373L323.431 55.4015C323.137 53.2857 323.629 51.9096 324.157 51.141C324.676 50.3858 325.425 49.9055 326.403 49.7696L325.467 43.0323ZM316.694 56.3373L309.957 57.2731C311.39 67.5905 319.663 74.8786 329.697 73.4849L328.761 66.7476L327.825 60.0103C326.847 60.1462 325.995 59.8883 325.29 59.303C324.573 58.7075 323.725 57.5174 323.431 55.4015L316.694 56.3373Z" fill="#411517"/>
<path d="M89.8887 82.4689C92.933 83.2913 98.6262 86.3096 99.5945 93.2805C100.742 101.545 95.3066 108.819 84.5269 110.316L57.1465 114.119L50.1594 63.8143L75.8869 60.2408C86.5948 58.7536 93.4598 63.8799 94.438 70.9226C95.2466 76.7437 92.4718 80.4986 89.8887 82.4689ZM73.6033 72.2782L67.7104 73.0967L68.8084 81.0018L74.7013 80.1833C77.2884 79.824 78.7736 77.8596 78.4642 75.6318C78.1547 73.404 76.1904 71.9189 73.6033 72.2782ZM71.5034 100.405L78.9055 99.3771C81.78 98.9778 83.4509 96.768 83.1015 94.2527C82.7522 91.7375 80.5323 89.9948 77.6578 90.394L70.2557 91.4221L71.5034 100.405ZM152.097 100.931L135.209 103.277L131.466 94.787L117.165 96.7734L115.877 105.962L99.4922 108.238L110.687 55.4073L126.928 53.1515L152.097 100.931ZM118.221 83.8078L126.916 82.6L120.598 68.7541L118.221 83.8078ZM175.64 98.7601C160.693 100.836 147.753 90.4738 145.767 76.1728C143.78 61.8717 153.406 48.3751 168.354 46.2989C187.039 43.7037 194.455 57.5436 195.924 62.3206L180.19 66.1175C179.008 63.9377 175.956 59.8933 170.35 60.6719C164.745 61.4504 160.722 66.7704 161.72 73.9569C162.719 81.1433 168.039 85.1657 173.644 84.3872C179.034 83.6385 181.042 79.1111 181.627 76.466L197.81 75.903C197.733 80.0891 194.325 96.1649 175.64 98.7601ZM230.316 63.3305L250.057 87.3252L231.732 89.8705L216.029 69.6367L219.084 91.6273L203.13 93.8432L196.143 43.538L212.097 41.3221L215.041 62.5221L223.882 39.6851L241.346 37.2595L230.316 63.3305ZM290.363 81.727L274.409 83.9429L269.518 48.7293L255.648 50.6557L253.552 35.5642L297.246 29.4953L299.342 44.5869L285.472 46.5134L290.363 81.727ZM328.929 77.4692C313.909 79.5553 300.897 69.2029 298.911 54.9019C296.915 40.5289 306.622 27.0942 321.642 25.008C336.662 22.9219 349.673 33.2743 351.66 47.5754C353.646 61.8764 343.948 75.383 328.929 77.4692ZM326.932 63.0963C332.681 62.2977 336.704 56.9777 335.706 49.7913C334.708 42.6048 329.388 38.5824 323.638 39.3809C317.889 40.1795 313.867 45.4995 314.865 52.6859C315.863 59.8724 321.183 63.8948 326.932 63.0963Z" fill="#F4EDE3"/>
<path d="M37.1619 193.829C23.5795 195.716 14.774 188.222 12.8576 179.698L28.4482 175.921C29.636 179.199 31.8658 181.014 35.0997 180.564C37.6149 180.215 38.6051 178.906 38.4254 177.612C37.5271 171.144 13.2827 175.903 10.977 159.303C9.82911 151.038 15.6461 143.345 29.2285 141.458C40.655 139.871 49.9036 146.864 51.7701 155.028L36.2514 158.795C35.1455 155.579 32.9436 154.494 30.8595 154.783C28.5599 155.102 27.5697 156.412 27.7494 157.706C28.6378 164.101 52.7323 158.264 55.1479 175.656C56.2958 183.92 50.1694 192.023 37.1619 193.829ZM84.7379 187.221C69.7182 189.308 56.7067 178.955 54.7203 164.654C52.724 150.281 62.4316 136.846 77.4513 134.76C92.471 132.674 105.483 143.027 107.469 157.328C109.455 171.629 99.7576 185.135 84.7379 187.221ZM82.7416 172.848C88.4907 172.05 92.5131 166.73 91.515 159.543C90.5168 152.357 85.1968 148.335 79.4476 149.133C73.6985 149.932 69.6761 155.252 70.6743 162.438C71.6724 169.625 76.9924 173.647 82.7416 172.848ZM140.894 157.593L149.523 125.849L165.693 123.603L172.68 173.908L157.085 176.074L153.851 152.79L146.737 177.511L140.269 178.41L126.86 156.758L130.064 179.827L114.47 181.993L107.483 131.688L123.94 129.402L140.894 157.593ZM191.104 151.571L191.953 157.68L214.662 154.525L216.509 167.82L177.845 173.19L170.858 122.885L208.803 117.615L210.649 130.91L188.659 133.964L189.407 139.354L208.667 136.679L210.364 148.896L191.104 151.571ZM246.267 163.687L230.313 165.903L225.422 130.689L211.552 132.616L209.456 117.524L253.15 111.455L255.246 126.547L241.376 128.473L246.267 163.687ZM288.561 123.897L286.196 106.866L302.15 104.65L309.137 154.955L293.183 157.171L290.658 138.989L275.566 141.085L278.091 159.267L262.137 161.483L255.15 111.178L271.104 108.962L273.47 125.994L288.561 123.897ZM330.238 152.024L314.284 154.24L307.297 103.935L323.251 101.719L330.238 152.024ZM363.995 122.943L360.332 96.5684L375.927 94.4024L382.914 144.708L367.535 146.844L347.343 122.765L351.006 149.139L335.411 151.305L328.424 101L343.731 98.8742L363.995 122.943ZM409.697 123.188L408.399 113.845L434.63 110.202L438.353 137.007L429.873 138.185L426.804 132.971C425.058 136.217 420.752 140.551 411.122 141.888C397.899 143.725 384.969 133.434 382.973 119.062C380.987 104.76 390.612 91.2639 405.56 89.1877C424.245 86.5925 431.949 100.392 432.911 103.628L416.899 107.537C415.961 106.056 412.897 102.453 407.507 103.201C401.901 103.98 397.879 109.3 398.927 116.846C399.975 124.391 405.295 128.414 411.188 127.595C415.787 126.956 417.943 124.02 418.608 121.95L409.697 123.188Z" fill="#F4EDE3"/>
<path d="M12.8576 179.698L11.2561 173.087C7.64763 173.962 5.40683 177.568 6.22125 181.19L12.8576 179.698ZM28.4482 175.921L34.8432 173.604C33.6618 170.344 30.2169 168.494 26.8467 169.31L28.4482 175.921ZM51.7701 155.028L53.3746 161.638C56.9908 160.761 59.2303 157.14 58.401 153.513L51.7701 155.028ZM36.2514 158.795L29.8191 161.007C30.9611 164.328 34.4433 166.234 37.8559 165.405L36.2514 158.795ZM37.1619 193.829L36.2261 187.092C25.8103 188.539 20.5618 182.956 19.4939 178.206L12.8576 179.698L6.22125 181.19C8.98623 193.488 21.3487 202.893 38.0976 200.567L37.1619 193.829ZM12.8576 179.698L14.4591 186.309L30.0497 182.532L28.4482 175.921L26.8467 169.31L11.2561 173.087L12.8576 179.698ZM28.4482 175.921L22.0531 178.239C22.9527 180.721 24.4768 183.303 27.0064 185.142C29.676 187.083 32.8492 187.744 36.0355 187.302L35.0997 180.564L34.1639 173.827C34.086 173.838 34.1844 173.813 34.399 173.863C34.6233 173.915 34.8394 174.017 35.0068 174.139C35.1621 174.252 35.1966 174.324 35.1491 174.254C35.0976 174.179 34.9796 173.98 34.8432 173.604L28.4482 175.921ZM35.0997 180.564L36.0355 187.302C38.2368 186.996 40.6557 186.155 42.5526 184.282C44.5833 182.277 45.5548 179.499 45.1627 176.676L38.4254 177.612L31.6881 178.548C31.4757 177.018 32.0419 175.542 32.9937 174.602C33.8116 173.795 34.4778 173.784 34.1639 173.827L35.0997 180.564ZM38.4254 177.612L45.1627 176.676C44.7128 173.437 42.7529 171.301 40.9528 170.056C39.3028 168.914 37.4457 168.26 36.0171 167.836C34.5208 167.392 32.8717 167.029 31.4054 166.708C29.8562 166.37 28.4042 166.058 26.9537 165.677C23.9871 164.9 21.7621 164.011 20.2344 162.847C18.9495 161.868 18.0267 160.616 17.7143 158.367L10.977 159.303L4.2397 160.238C5.08019 166.29 8.05253 170.668 11.9901 173.668C15.6847 176.483 20.0092 177.921 23.5042 178.837C25.2845 179.303 27.0414 179.68 28.5021 179.999C30.0457 180.336 31.2077 180.599 32.1465 180.878C33.1532 181.177 33.3556 181.342 33.2124 181.243C32.9192 181.04 31.9134 180.17 31.6881 178.548L38.4254 177.612ZM10.977 159.303L17.7143 158.367C17.4144 156.208 17.9803 154.297 19.5289 152.654C21.184 150.898 24.4282 148.992 30.1643 148.195L29.2285 141.458L28.2927 134.721C20.4464 135.811 13.9909 138.695 9.62887 143.323C5.16032 148.065 3.39167 154.133 4.2397 160.238L10.977 159.303ZM29.2285 141.458L30.1643 148.195C38.466 147.042 44.1396 152.172 45.1392 156.544L51.7701 155.028L58.401 153.513C55.6676 141.556 42.844 132.7 28.2927 134.721L29.2285 141.458ZM51.7701 155.028L50.1656 148.418L34.6469 152.185L36.2514 158.795L37.8559 165.405L53.3746 161.638L51.7701 155.028ZM36.2514 158.795L42.6836 156.583C41.7552 153.884 40.1415 151.457 37.7138 149.827C35.2624 148.182 32.4809 147.691 29.9237 148.046L30.8595 154.783L31.7953 161.52C31.3222 161.586 30.6836 161.493 30.1307 161.122C29.6015 160.767 29.6416 160.491 29.8191 161.007L36.2514 158.795ZM30.8595 154.783L29.9237 148.046C27.7048 148.354 25.3271 149.249 23.4895 151.146C21.5677 153.13 20.6249 155.854 21.0121 158.641L27.7494 157.706L34.4867 156.77C34.6942 158.264 34.1567 159.686 33.2599 160.612C32.4473 161.451 31.7146 161.532 31.7953 161.52L30.8595 154.783ZM27.7494 157.706L21.0121 158.641C21.4702 161.939 23.4994 164.084 25.3762 165.303C27.0682 166.403 28.9566 166.986 30.3683 167.35C31.8535 167.732 33.4985 168.034 34.9392 168.3C36.4663 168.581 37.8985 168.845 39.3184 169.179C42.2273 169.863 44.3739 170.694 45.8401 171.816C47.0571 172.747 48.0577 174.051 48.4106 176.591L55.1479 175.656L61.8852 174.72C61.0303 168.565 58.1133 164.077 54.1054 161.011C50.3467 158.136 45.9613 156.766 42.4335 155.936C40.6351 155.513 38.8728 155.191 37.4047 154.921C35.8501 154.634 34.699 154.417 33.7627 154.176C32.7529 153.916 32.5942 153.77 32.7891 153.896C33.1688 154.143 34.2507 155.071 34.4867 156.77L27.7494 157.706ZM55.1479 175.656L48.4106 176.591C48.7001 178.676 48.1195 180.747 46.4515 182.565C44.7315 184.44 41.5291 186.356 36.2261 187.092L37.1619 193.829L38.0976 200.567C45.8021 199.497 52.1667 196.458 56.4748 191.763C60.8349 187.012 62.7436 180.9 61.8852 174.72L55.1479 175.656ZM84.7379 187.221L83.8021 180.484C72.5753 182.043 62.9372 174.371 61.4576 163.718L54.7203 164.654L47.983 165.59C50.4761 183.539 66.8611 196.572 85.6737 193.959L84.7379 187.221ZM54.7203 164.654L61.4576 163.718C59.9697 153.006 67.1484 143.059 78.3871 141.498L77.4513 134.76L76.5156 128.023C57.7149 130.634 45.4783 147.556 47.983 165.59L54.7203 164.654ZM77.4513 134.76L78.3871 141.498C89.6139 139.938 99.252 147.611 100.732 158.263L107.469 157.328L114.206 156.392C111.713 138.442 95.3281 125.41 76.5156 128.023L77.4513 134.76ZM107.469 157.328L100.732 158.263C102.211 168.916 95.0289 178.925 83.8021 180.484L84.7379 187.221L85.6737 193.959C104.486 191.346 116.699 174.341 114.206 156.392L107.469 157.328ZM82.7416 172.848L83.6774 179.586C93.7112 178.192 99.6853 168.925 98.2523 158.608L91.515 159.543L84.7777 160.479C85.0716 162.595 84.5802 163.971 84.0522 164.74C83.5333 165.495 82.7843 165.975 81.8058 166.111L82.7416 172.848ZM91.515 159.543L98.2523 158.608C96.8192 148.29 88.5457 141.002 78.5119 142.396L79.4476 149.133L80.3834 155.87C81.3619 155.735 82.2134 155.993 82.9185 156.578C83.636 157.173 84.4838 158.363 84.7777 160.479L91.515 159.543ZM79.4476 149.133L78.5119 142.396C68.478 143.79 62.5039 153.057 63.937 163.374L70.6743 162.438L77.4116 161.502C77.1177 159.386 77.6091 158.01 78.1371 157.242C78.6559 156.487 79.405 156.006 80.3834 155.87L79.4476 149.133ZM70.6743 162.438L63.937 163.374C65.37 173.691 73.6435 180.979 83.6774 179.586L82.7416 172.848L81.8058 166.111C80.8273 166.247 79.9758 165.989 79.2707 165.404C78.5532 164.808 77.7054 163.618 77.4116 161.502L70.6743 162.438ZM140.894 157.593L135.065 161.098C136.469 163.433 139.131 164.705 141.83 164.33C144.528 163.955 146.743 162.006 147.458 159.377L140.894 157.593ZM149.523 125.849L148.588 119.111C145.889 119.486 143.674 121.435 142.96 124.064L149.523 125.849ZM165.693 123.603L172.43 122.667C171.913 118.946 168.478 116.349 164.757 116.865L165.693 123.603ZM172.68 173.908L173.616 180.645C177.337 180.128 179.934 176.693 179.417 172.972L172.68 173.908ZM157.086 176.074L150.348 177.01C150.865 180.731 154.3 183.328 158.021 182.811L157.086 176.074ZM153.851 152.79L160.589 151.854C160.147 148.672 157.539 146.233 154.335 146.005C151.13 145.777 148.203 147.822 147.315 150.909L153.851 152.79ZM146.737 177.511L147.673 184.249C150.335 183.879 152.53 181.976 153.274 179.392L146.737 177.511ZM140.269 178.41L134.486 181.991C135.904 184.28 138.538 185.517 141.205 185.147L140.269 178.41ZM126.86 156.758L132.643 153.177C130.951 150.444 127.576 149.269 124.552 150.36C121.528 151.451 119.681 154.51 120.123 157.694L126.86 156.758ZM130.064 179.827L131 186.564C134.721 186.048 137.319 182.612 136.802 178.891L130.064 179.827ZM114.47 181.993L107.732 182.929C108.249 186.65 111.685 189.247 115.406 188.73L114.47 181.993ZM107.483 131.688L106.547 124.951C102.826 125.467 100.229 128.903 100.745 132.624L107.483 131.688ZM123.94 129.402L129.769 125.896C128.364 123.562 125.703 122.29 123.004 122.665L123.94 129.402ZM140.894 157.593L147.458 159.377L156.087 127.633L149.523 125.849L142.96 124.064L134.33 155.808L140.894 157.593ZM149.523 125.849L150.459 132.586L166.629 130.34L165.693 123.603L164.757 116.865L148.588 119.111L149.523 125.849ZM165.693 123.603L158.956 124.538L165.943 174.844L172.68 173.908L179.417 172.972L172.43 122.667L165.693 123.603ZM172.68 173.908L171.744 167.171L156.15 169.337L157.086 176.074L158.021 182.811L173.616 180.645L172.68 173.908ZM157.086 176.074L163.823 175.138L160.589 151.854L153.851 152.79L147.114 153.726L150.348 177.01L157.086 176.074ZM153.851 152.79L147.315 150.909L140.2 175.63L146.737 177.511L153.274 179.392L160.388 154.671L153.851 152.79ZM146.737 177.511L145.801 170.774L139.333 171.672L140.269 178.41L141.205 185.147L147.673 184.249L146.737 177.511ZM140.269 178.41L146.052 174.828L132.643 153.177L126.86 156.758L121.078 160.34L134.486 181.991L140.269 178.41ZM126.86 156.758L120.123 157.694L123.327 180.763L130.064 179.827L136.802 178.891L133.598 155.823L126.86 156.758ZM130.064 179.827L129.129 173.09L113.534 175.256L114.47 181.993L115.406 188.73L131 186.564L130.064 179.827ZM114.47 181.993L121.207 181.057L114.22 130.752L107.483 131.688L100.745 132.624L107.732 182.929L114.47 181.993ZM107.483 131.688L108.418 138.425L124.875 136.139L123.94 129.402L123.004 122.665L106.547 124.951L107.483 131.688ZM123.94 129.402L118.111 132.908L135.065 161.098L140.894 157.593L146.723 154.087L129.769 125.896L123.94 129.402ZM191.104 151.571L190.168 144.834C186.448 145.351 183.85 148.786 184.367 152.507L191.104 151.571ZM191.953 157.68L185.215 158.615C185.732 162.336 189.168 164.934 192.888 164.417L191.953 157.68ZM214.662 154.525L221.399 153.59C220.882 149.869 217.447 147.271 213.726 147.788L214.662 154.525ZM216.509 167.82L217.444 174.558C221.165 174.041 223.763 170.606 223.246 166.885L216.509 167.82ZM177.845 173.19L171.108 174.126C171.625 177.847 175.06 180.445 178.781 179.928L177.845 173.19ZM170.858 122.885L169.922 116.148C166.202 116.665 163.604 120.1 164.121 123.821L170.858 122.885ZM208.803 117.615L215.54 116.679C215.023 112.958 211.588 110.361 207.867 110.878L208.803 117.615ZM210.649 130.91L211.585 137.647C215.306 137.13 217.903 133.695 217.387 129.974L210.649 130.91ZM188.659 133.964L187.723 127.227C184.002 127.744 181.405 131.179 181.921 134.9L188.659 133.964ZM189.407 139.354L182.67 140.29C183.187 144.011 186.622 146.608 190.343 146.091L189.407 139.354ZM208.667 136.679L215.404 135.743C214.888 132.022 211.452 129.425 207.731 129.942L208.667 136.679ZM210.364 148.896L211.3 155.633C215.021 155.117 217.618 151.681 217.101 147.96L210.364 148.896ZM191.104 151.571L184.367 152.507L185.215 158.615L191.953 157.68L198.69 156.744L197.842 150.635L191.104 151.571ZM191.953 157.68L192.888 164.417L215.598 161.263L214.662 154.525L213.726 147.788L191.017 150.942L191.953 157.68ZM214.662 154.525L207.925 155.461L209.771 168.756L216.509 167.82L223.246 166.885L221.399 153.59L214.662 154.525ZM216.509 167.82L215.573 161.083L176.91 166.453L177.845 173.19L178.781 179.928L217.444 174.558L216.509 167.82ZM177.845 173.19L184.583 172.255L177.596 121.95L170.858 122.885L164.121 123.821L171.108 174.126L177.845 173.19ZM170.858 122.885L171.794 129.623L209.739 124.352L208.803 117.615L207.867 110.878L169.922 116.148L170.858 122.885ZM208.803 117.615L202.065 118.551L203.912 131.846L210.649 130.91L217.387 129.974L215.54 116.679L208.803 117.615ZM210.649 130.91L209.714 124.173L187.723 127.227L188.659 133.964L189.595 140.702L211.585 137.647L210.649 130.91ZM188.659 133.964L181.921 134.9L182.67 140.29L189.407 139.354L196.145 138.418L195.396 133.029L188.659 133.964ZM189.407 139.354L190.343 146.091L209.603 143.416L208.667 136.679L207.731 129.942L188.472 132.617L189.407 139.354ZM208.667 136.679L201.93 137.615L203.627 149.832L210.364 148.896L217.101 147.96L215.404 135.743L208.667 136.679ZM210.364 148.896L209.428 142.159L190.168 144.834L191.104 151.571L192.04 158.308L211.3 155.633L210.364 148.896ZM246.267 163.687L247.203 170.424C250.924 169.908 253.521 166.472 253.004 162.751L246.267 163.687ZM230.313 165.903L223.576 166.839C224.093 170.56 227.528 173.157 231.249 172.64L230.313 165.903ZM225.422 130.689L232.16 129.754C231.643 126.033 228.207 123.435 224.486 123.952L225.422 130.689ZM211.552 132.616L204.815 133.552C205.332 137.272 208.767 139.87 212.488 139.353L211.552 132.616ZM209.456 117.524L208.52 110.787C204.8 111.304 202.202 114.739 202.719 118.46L209.456 117.524ZM253.15 111.455L259.887 110.52C259.37 106.799 255.935 104.201 252.214 104.718L253.15 111.455ZM255.246 126.547L256.182 133.284C259.903 132.767 262.5 129.332 261.983 125.611L255.246 126.547ZM241.376 128.473L240.44 121.736C236.72 122.253 234.122 125.688 234.639 129.409L241.376 128.473ZM246.267 163.687L245.331 156.95L229.377 159.166L230.313 165.903L231.249 172.64L247.203 170.424L246.267 163.687ZM230.313 165.903L237.051 164.967L232.16 129.754L225.422 130.689L218.685 131.625L223.576 166.839L230.313 165.903ZM225.422 130.689L224.486 123.952L210.617 125.879L211.552 132.616L212.488 139.353L226.358 137.427L225.422 130.689ZM211.552 132.616L218.29 131.68L216.194 116.588L209.456 117.524L202.719 118.46L204.815 133.552L211.552 132.616ZM209.456 117.524L210.392 124.262L254.086 118.193L253.15 111.455L252.214 104.718L208.52 110.787L209.456 117.524ZM253.15 111.455L246.413 112.391L248.509 127.483L255.246 126.547L261.983 125.611L259.887 110.52L253.15 111.455ZM255.246 126.547L254.31 119.81L240.44 121.736L241.376 128.473L242.312 135.211L256.182 133.284L255.246 126.547ZM241.376 128.473L234.639 129.409L239.53 164.623L246.267 163.687L253.004 162.751L248.113 127.538L241.376 128.473ZM288.561 123.897L289.497 130.635C293.218 130.118 295.816 126.683 295.299 122.962L288.561 123.897ZM286.196 106.866L285.26 100.128C281.539 100.645 278.942 104.08 279.459 107.801L286.196 106.866ZM302.15 104.65L308.887 103.714C308.37 99.9929 304.935 97.3955 301.214 97.9123L302.15 104.65ZM309.137 154.955L310.073 161.692C313.794 161.175 316.391 157.74 315.874 154.019L309.137 154.955ZM293.183 157.171L286.446 158.107C286.962 161.827 290.398 164.425 294.119 163.908L293.183 157.171ZM290.658 138.989L297.395 138.053C296.878 134.332 293.443 131.735 289.722 132.252L290.658 138.989ZM275.566 141.085L274.63 134.348C270.909 134.865 268.312 138.3 268.829 142.021L275.566 141.085ZM278.091 159.267L279.027 166.004C282.748 165.487 285.345 162.052 284.829 158.331L278.091 159.267ZM262.137 161.483L255.4 162.419C255.917 166.139 259.352 168.737 263.073 168.22L262.137 161.483ZM255.15 111.178L254.215 104.44C250.494 104.957 247.896 108.392 248.413 112.113L255.15 111.178ZM271.104 108.962L277.842 108.026C277.325 104.305 273.889 101.708 270.168 102.224L271.104 108.962ZM273.47 125.994L266.733 126.929C267.249 130.65 270.685 133.248 274.406 132.731L273.47 125.994ZM288.561 123.897L295.299 122.962L292.933 105.93L286.196 106.866L279.459 107.801L281.824 124.833L288.561 123.897ZM286.196 106.866L287.132 113.603L303.086 111.387L302.15 104.65L301.214 97.9123L285.26 100.128L286.196 106.866ZM302.15 104.65L295.412 105.585L302.4 155.891L309.137 154.955L315.874 154.019L308.887 103.714L302.15 104.65ZM309.137 154.955L308.201 148.218L292.247 150.433L293.183 157.171L294.119 163.908L310.073 161.692L309.137 154.955ZM293.183 157.171L299.92 156.235L297.395 138.053L290.658 138.989L283.92 139.925L286.446 158.107L293.183 157.171ZM290.658 138.989L289.722 132.252L274.63 134.348L275.566 141.085L276.502 147.822L291.593 145.726L290.658 138.989ZM275.566 141.085L268.829 142.021L271.354 160.203L278.091 159.267L284.829 158.331L282.303 140.149L275.566 141.085ZM278.091 159.267L277.156 152.53L261.202 154.745L262.137 161.483L263.073 168.22L279.027 166.004L278.091 159.267ZM262.137 161.483L268.875 160.547L261.888 110.242L255.15 111.178L248.413 112.113L255.4 162.419L262.137 161.483ZM255.15 111.178L256.086 117.915L272.04 115.699L271.104 108.962L270.168 102.224L254.215 104.44L255.15 111.178ZM271.104 108.962L264.367 109.897L266.733 126.929L273.47 125.994L280.207 125.058L277.842 108.026L271.104 108.962ZM273.47 125.994L274.406 132.731L289.497 130.635L288.561 123.897L287.626 117.16L272.534 119.256L273.47 125.994ZM330.238 152.024L331.174 158.761C334.895 158.244 337.492 154.809 336.975 151.088L330.238 152.024ZM314.284 154.24L307.547 155.176C308.064 158.897 311.499 161.494 315.22 160.977L314.284 154.24ZM307.297 103.935L306.361 97.1974C302.64 97.7142 300.043 101.15 300.56 104.87L307.297 103.935ZM323.251 101.719L329.988 100.783C329.471 97.0621 326.036 94.4647 322.315 94.9815L323.251 101.719ZM330.238 152.024L329.302 145.287L313.348 147.503L314.284 154.24L315.22 160.977L331.174 158.761L330.238 152.024ZM314.284 154.24L321.021 153.304L314.034 102.999L307.297 103.935L300.56 104.87L307.547 155.176L314.284 154.24ZM307.297 103.935L308.233 110.672L324.187 108.456L323.251 101.719L322.315 94.9815L306.361 97.1974L307.297 103.935ZM323.251 101.719L316.514 102.655L323.501 152.96L330.238 152.024L336.975 151.088L329.988 100.783L323.251 101.719ZM363.995 122.943L358.792 127.324C360.744 129.642 363.994 130.389 366.762 129.157C369.53 127.924 371.149 125.009 370.733 122.007L363.995 122.943ZM360.332 96.5684L359.396 89.8311C355.675 90.3479 353.078 93.7833 353.595 97.5042L360.332 96.5684ZM375.927 94.4024L382.664 93.4666C382.147 89.7457 378.712 87.1483 374.991 87.6651L375.927 94.4024ZM382.914 144.708L383.85 151.445C387.57 150.928 390.168 147.493 389.651 143.772L382.914 144.708ZM367.535 146.844L362.323 151.214C363.828 153.009 366.15 153.903 368.47 153.581L367.535 146.844ZM347.343 122.765L352.555 118.394C350.606 116.071 347.354 115.318 344.582 116.549C341.81 117.78 340.188 120.697 340.605 123.701L347.343 122.765ZM351.006 149.139L351.942 155.877C355.663 155.36 358.26 151.925 357.743 148.204L351.006 149.139ZM335.411 151.305L328.674 152.241C329.191 155.962 332.626 158.56 336.347 158.043L335.411 151.305ZM328.424 101L327.488 94.2629C323.767 94.7798 321.17 98.2151 321.687 101.936L328.424 101ZM343.731 98.8742L348.935 94.4933C347.429 92.7051 345.111 91.8153 342.796 92.1369L343.731 98.8742ZM363.995 122.943L370.733 122.007L367.069 95.6326L360.332 96.5684L353.595 97.5042L357.258 123.878L363.995 122.943ZM360.332 96.5684L361.268 103.306L376.862 101.14L375.927 94.4024L374.991 87.6651L359.396 89.8311L360.332 96.5684ZM375.927 94.4024L369.189 95.3382L376.176 145.643L382.914 144.708L389.651 143.772L382.664 93.4666L375.927 94.4024ZM382.914 144.708L381.978 137.97L366.599 140.106L367.535 146.844L368.47 153.581L383.85 151.445L382.914 144.708ZM367.535 146.844L372.747 142.473L352.555 118.394L347.343 122.765L342.131 127.136L362.323 151.214L367.535 146.844ZM347.343 122.765L340.605 123.701L344.269 150.075L351.006 149.139L357.743 148.204L354.08 121.829L347.343 122.765ZM351.006 149.139L350.07 142.402L334.475 144.568L335.411 151.305L336.347 158.043L351.942 155.877L351.006 149.139ZM335.411 151.305L342.149 150.37L335.161 100.064L328.424 101L321.687 101.936L328.674 152.241L335.411 151.305ZM328.424 101L329.36 107.738L344.667 105.611L343.731 98.8742L342.796 92.1369L327.488 94.2629L328.424 101ZM343.731 98.8742L338.528 103.255L358.792 127.324L363.995 122.943L369.199 118.562L348.935 94.4933L343.731 98.8742ZM409.697 123.188L402.959 124.123C403.476 127.844 406.912 130.442 410.632 129.925L409.697 123.188ZM408.399 113.845L407.463 107.108C403.742 107.625 401.145 111.06 401.662 114.781L408.399 113.845ZM434.63 110.202L441.367 109.266C440.85 105.545 437.415 102.948 433.694 103.465L434.63 110.202ZM438.353 137.007L439.289 143.745C443.009 143.228 445.607 139.793 445.09 136.072L438.353 137.007ZM429.873 138.185L424.01 141.635C425.404 144.004 428.086 145.301 430.809 144.923L429.873 138.185ZM426.804 132.971L432.667 129.521C431.421 127.404 429.131 126.123 426.675 126.17C424.219 126.217 421.979 127.585 420.815 129.748L426.804 132.971ZM432.911 103.628L434.524 110.236C436.333 109.795 437.882 108.63 438.81 107.015C439.737 105.4 439.962 103.475 439.431 101.69L432.911 103.628ZM416.899 107.537L411.153 111.177C412.715 113.643 415.676 114.837 418.512 114.145L416.899 107.537ZM418.608 121.95L425.084 124.03C425.799 121.802 425.32 119.364 423.814 117.573C422.309 115.782 419.989 114.891 417.672 115.213L418.608 121.95ZM409.697 123.188L416.434 122.252L415.136 112.909L408.399 113.845L401.662 114.781L402.959 124.123L409.697 123.188ZM408.399 113.845L409.335 120.583L435.565 116.939L434.63 110.202L433.694 103.465L407.463 107.108L408.399 113.845ZM434.63 110.202L427.892 111.138L431.615 137.943L438.353 137.007L445.09 136.072L441.367 109.266L434.63 110.202ZM438.353 137.007L437.417 130.27L428.937 131.448L429.873 138.185L430.809 144.923L439.289 143.745L438.353 137.007ZM429.873 138.185L435.735 134.736L432.667 129.521L426.804 132.971L420.942 136.421L424.01 141.635L429.873 138.185ZM426.804 132.971L420.815 129.748C420.2 130.89 417.895 134.08 410.186 135.151L411.122 141.888L412.058 148.626C423.608 147.021 429.915 141.544 432.794 136.194L426.804 132.971ZM411.122 141.888L410.186 135.151C401.073 136.417 391.246 129.179 389.71 118.126L382.973 119.062L376.236 119.997C378.693 137.69 394.725 151.033 412.058 148.626L411.122 141.888ZM382.973 119.062L389.71 118.126C388.226 107.437 395.377 97.4693 406.496 95.925L405.56 89.1877L404.624 82.4504C385.848 85.0584 373.748 102.084 376.236 119.997L382.973 119.062ZM405.56 89.1877L406.496 95.925C413.853 94.9032 418.591 97.0827 421.614 99.5182C423.199 100.795 424.389 102.211 425.216 103.439C426.095 104.746 426.398 105.59 426.391 105.567L432.911 103.628L439.431 101.69C438.553 98.7365 435.594 93.3109 430.149 88.9245C424.408 84.2999 415.953 80.877 404.624 82.4504L405.56 89.1877ZM432.911 103.628L431.298 97.0204L415.286 100.929L416.899 107.537L418.512 114.145L434.524 110.236L432.911 103.628ZM416.899 107.537L422.645 103.897C421.127 101.5 415.876 95.1716 406.571 96.464L407.507 103.201L408.442 109.939C408.945 109.869 409.288 109.911 409.521 109.967C409.765 110.026 409.993 110.127 410.216 110.269C410.723 110.592 411.068 111.043 411.153 111.177L416.899 107.537ZM407.507 103.201L406.571 96.464C396.495 97.8634 390.735 107.311 392.19 117.781L398.927 116.846L405.664 115.91C405.334 113.533 405.861 112.042 406.387 111.25C406.898 110.482 407.593 110.057 408.442 109.939L407.507 103.201ZM398.927 116.846L392.19 117.781C392.908 122.951 395.184 127.472 398.865 130.565C402.574 133.681 407.318 135 412.124 134.333L411.188 127.595L410.252 120.858C409.165 121.009 408.303 120.726 407.616 120.149C406.902 119.549 405.994 118.286 405.664 115.91L398.927 116.846ZM411.188 127.595L412.124 134.333C419.639 133.289 423.727 128.257 425.084 124.03L418.608 121.95L412.132 119.87C412.145 119.827 412.078 120.025 411.834 120.244C411.653 120.406 411.221 120.723 410.252 120.858L411.188 127.595ZM418.608 121.95L417.672 115.213L408.761 116.45L409.697 123.188L410.632 129.925L419.544 128.687L418.608 121.95Z" fill="#411517"/>
<path d="M35.333 190.176C21.7506 192.062 12.9452 184.568 11.0287 176.044L26.6193 172.267C27.8071 175.545 30.0369 177.36 33.2708 176.911C35.7861 176.561 36.7762 175.252 36.5965 173.958C35.6982 167.49 11.4539 172.25 9.14814 155.649C8.00026 147.384 13.8173 139.691 27.3997 137.804C38.8261 136.217 48.0747 143.21 49.9413 151.375L34.4225 155.142C33.3166 151.926 31.1147 150.84 29.0307 151.129C26.731 151.449 25.7409 152.758 25.9205 154.052C26.8089 160.448 50.9035 154.611 53.319 172.002C54.4669 180.266 48.3405 188.369 35.333 190.176ZM82.909 183.568C67.8893 185.654 54.8778 175.301 52.8915 161C50.8951 146.627 60.6028 133.193 75.6225 131.106C90.6422 129.02 103.654 139.373 105.64 153.674C107.626 167.975 97.9287 181.481 82.909 183.568ZM80.9127 169.195C86.6619 168.396 90.6843 163.076 89.6861 155.89C88.688 148.703 83.368 144.681 77.6188 145.479C71.8696 146.278 67.8472 151.598 68.8454 158.784C69.8436 165.971 75.1636 169.993 80.9127 169.195ZM139.065 153.939L147.695 122.195L163.864 119.949L170.851 170.254L155.257 172.42L152.023 149.136L144.908 173.857L138.44 174.756L125.031 153.105L128.236 176.173L112.641 178.339L105.654 128.034L122.111 125.748L139.065 153.939ZM189.275 147.917L190.124 154.026L212.833 150.872L214.68 164.167L176.017 169.537L169.029 119.231L206.974 113.961L208.82 127.256L186.83 130.311L187.579 135.7L206.838 133.025L208.535 145.242L189.275 147.917ZM244.438 160.033L228.484 162.249L223.593 127.036L209.724 128.962L207.627 113.87L251.321 107.802L253.417 122.893L239.547 124.82L244.438 160.033ZM286.733 120.244L284.367 103.212L300.321 100.996L307.308 151.301L291.354 153.517L288.829 135.335L273.737 137.431L276.263 155.613L260.309 157.829L253.321 107.524L269.275 105.308L271.641 122.34L286.733 120.244ZM328.409 148.37L312.455 150.586L305.468 100.281L321.422 98.065L328.409 148.37ZM362.166 119.289L358.503 92.9146L374.098 90.7486L381.085 141.054L365.706 143.19L345.514 119.111L349.177 145.486L333.582 147.652L326.595 97.3464L341.902 95.2204L362.166 119.289ZM407.868 119.534L406.57 110.191L432.801 106.548L436.524 133.354L428.044 134.531L424.976 129.317C423.229 132.563 418.923 136.897 409.293 138.235C396.07 140.071 383.14 129.781 381.144 115.408C379.158 101.107 388.784 87.6101 403.731 85.5339C422.416 82.9387 430.12 96.7386 431.082 99.9745L415.07 103.883C414.132 102.402 411.068 98.7989 405.678 99.5475C400.072 100.326 396.05 105.646 397.098 113.192C398.146 120.738 403.466 124.76 409.359 123.942C413.958 123.303 416.114 120.366 416.779 118.296L407.868 119.534Z" fill="#F4EDE3"/>
<path d="M419.251 157.18L338.388 178.074L290.157 182.282L296.589 232.872L350.374 228.773L438.297 212.788L419.251 157.18Z" fill="#411517"/>
<path d="M326.872 206.974L323.551 211.489L333.351 209.655L334.775 217.267L312.771 221.385L311.666 215.479L319.609 204.213C322.106 200.621 322.678 199.563 322.359 197.857C322.08 196.37 320.738 195.489 319.164 195.784C317.632 196.07 316.402 197.478 316.688 199.733L308.385 200.608C307.495 194.888 311.213 189.348 317.906 188.095C324.993 186.769 329.874 190.112 330.857 195.361C331.692 199.823 329.465 203.41 326.872 206.974ZM350.955 214.873C343.824 216.207 337.089 211.672 335.158 201.348C333.226 191.024 337.865 184.36 344.995 183.026C352.126 181.692 358.861 186.227 360.793 196.551C362.725 206.875 358.085 213.539 350.955 214.873ZM349.506 207.13C351.781 206.704 353.444 204.22 352.306 198.139C351.168 192.058 348.719 190.343 346.444 190.769C344.169 191.195 342.55 193.671 343.688 199.752C344.826 205.833 347.231 207.556 349.506 207.13ZM380.486 196.941L377.166 201.456L386.965 199.622L388.389 207.234L366.385 211.352L365.28 205.446L373.223 194.179C375.721 190.588 376.292 189.53 375.973 187.824C375.695 186.337 374.353 185.456 372.778 185.751C371.247 186.037 370.016 187.445 370.302 189.7L361.999 190.575C361.11 184.855 364.827 179.315 371.52 178.062C378.607 176.736 383.489 180.079 384.471 185.328C385.306 189.79 383.079 193.376 380.486 196.941ZM401.288 183.675C406.975 182.611 412.272 186.238 413.344 191.969C414.474 198.006 410.606 203.71 403.476 205.045C396.345 206.379 391.28 203.025 389.858 198.085L398.003 195.881C398.385 196.715 399.793 197.946 401.718 197.586C403.817 197.193 405.018 195.383 404.642 193.371C404.249 191.271 402.475 190.019 400.375 190.411C398.669 190.731 397.728 191.993 397.482 192.855L389.87 194.279L388.575 175.505L407.342 171.993L408.693 179.211L396.4 181.511L396.721 185.888C397.632 184.948 399.144 184.077 401.288 183.675Z" fill="#CFFF00"/>
</svg>
