<svg width="87" height="89" viewBox="0 0 87 89" fill="none" xmlns="http://www.w3.org/2000/svg">
<path d="M28.2281 88.3509L23.7782 87.4009C9.78816 64.1809 2.24811 49.2309 0.728109 41.6909C-0.461891 35.8109 -0.191842 30.6509 1.52816 26.3709C3.40816 21.6909 7.35817 17.6609 11.8482 15.8409C15.3182 14.4409 18.8481 14.4509 22.0481 15.8909C28.3281 18.6909 31.1682 25.1709 33.3382 31.0209C34.2082 33.3809 34.9881 35.9109 35.7481 38.9109C37.7581 35.1509 39.9681 31.8309 42.9881 28.4109C46.9881 23.8809 52.4481 21.3009 57.2981 21.7409C60.0381 21.9709 63.9181 23.2409 66.8581 27.9809C69.2881 31.9109 70.5182 37.2609 70.0982 41.9309C69.4582 49.0709 66.0281 56.5309 60.4481 62.9209C53.9581 70.3609 29.2881 87.6208 28.2381 88.3509H28.2281Z" fill="#FF5900"/>
<path d="M58.2684 1C57.7984 3.35 56.0784 11.98 55.6084 14.33" stroke="#411517" stroke-width="7.07" stroke-linejoin="bevel"/>
<path d="M73.0488 24.1491C75.0588 22.8491 82.4589 18.0891 84.4689 16.7891" stroke="#411517" stroke-width="7.07" stroke-linejoin="bevel"/>
</svg>
