<svg width="455" height="263" viewBox="0 0 455 263" fill="none" xmlns="http://www.w3.org/2000/svg">
<path d="M416.103 150.216L292.565 172.208L234.194 179.814L241.546 213.692L306.632 205.615L421.701 183.658L416.103 150.216Z" fill="#411517"/>
<path d="M258.561 198.352L259.322 189.061L265.124 188.056L262.519 205.071L257.663 205.912L253.812 198.493L252.618 206.786L247.763 207.628L239.584 192.482L245.575 191.443L249.407 199.873L250.62 190.569L254.277 189.936L258.561 198.352ZM269.064 185.717C267.235 186.034 265.682 184.939 265.398 183.299C265.108 181.628 266.203 180.075 268.031 179.758C269.829 179.446 271.382 180.541 271.672 182.212C271.956 183.852 270.861 185.406 269.064 185.717ZM274.967 202.914L269.291 203.897L266.505 187.817L272.18 186.833L274.967 202.914ZM285.585 201.528C281.832 202.179 279.026 200.229 278.322 196.162L277.42 190.959L274.992 191.38L274.2 186.808L275.43 186.595C276.533 186.404 277.107 185.59 276.916 184.486L276.457 181.838L281.533 180.958L282.249 185.089L285.465 184.531L286.312 189.419L283.096 189.976L283.806 194.075C284.057 195.525 284.934 196.088 286.195 195.869C286.574 195.804 287.036 195.659 287.355 195.441L288.257 200.643C287.811 200.883 286.877 201.304 285.585 201.528ZM296.74 199.141L291.064 200.124L287.24 178.053L292.915 177.07L294.188 184.416L294.346 184.389C294.684 183.713 295.958 182.258 298.228 181.865C301.665 181.27 304.778 183.491 305.499 187.653L307.176 197.332L301.501 198.316L299.982 189.55C299.736 188.132 298.51 187.24 297.154 187.475C295.798 187.71 294.975 188.957 295.221 190.375L296.74 199.141ZM329.137 193.527L322.894 194.609L320.097 178.465L313.917 179.536L312.89 173.609L331.492 170.385L332.519 176.313L326.34 177.384L329.137 193.527ZM355.895 188.89L349.274 190.038L347.34 186.183L340.403 187.385L339.878 191.666L333.477 192.775L337.725 169.305L343.999 168.218L355.895 188.89ZM340.842 182.048L345.13 181.305L341.817 174.929L340.842 182.048ZM365.571 187.668C359.864 188.657 355.968 185.663 355.007 181.802L361.136 180.253C361.693 181.78 362.862 182.714 364.596 182.414C366.078 182.157 366.651 181.343 366.52 180.586C365.957 177.339 355.191 180.244 353.896 172.771C353.268 169.145 355.698 165.736 361.31 164.764C366.229 163.911 370.23 166.758 371.163 170.461L365.066 172.005C364.577 170.498 363.421 169.821 362.159 170.04C360.835 170.269 360.262 171.083 360.398 171.872C360.956 175.088 371.662 171.836 372.995 179.529C373.623 183.155 371.089 186.712 365.571 187.668ZM386.942 171.689L396.403 181.871L389.12 183.133L381.341 174.413L383.034 184.188L376.791 185.269L372.967 163.198L379.21 162.117L380.844 171.544L384.917 161.128L391.854 159.926L386.942 171.689ZM406.899 180.507C400.877 181.551 396.458 178.354 395.497 172.805L393.224 159.688L399.467 158.606L401.74 171.723C402.089 173.741 403.696 174.956 405.872 174.579C408.079 174.197 409.152 172.517 408.802 170.499L406.53 157.383L412.773 156.301L415.045 169.417C416.007 174.967 412.921 179.463 406.899 180.507Z" fill="#F4EDE3"/>
<path d="M33.433 131.63C19.5691 133.457 10.6433 125.752 8.74977 117.046L24.675 113.306C25.8628 116.657 28.1237 118.523 31.4246 118.088C33.992 117.75 35.011 116.422 34.837 115.101C33.967 108.499 9.21038 113.18 6.97742 96.235C5.86578 87.7993 11.8524 79.9954 25.7163 78.1684C37.3795 76.6315 46.7608 83.8281 48.606 92.1672L32.7542 95.8979C31.6494 92.6106 29.4118 91.4876 27.2845 91.7679C24.9372 92.0772 23.9182 93.4056 24.0922 94.7259C24.9525 101.254 49.5642 95.4738 51.9035 113.225C53.0151 121.661 46.7101 129.88 33.433 131.63ZM81.8483 125.25C66.5907 127.26 53.4695 116.601 51.5458 102.004C49.6222 87.4063 59.5341 73.712 74.7917 71.7013C93.8638 69.188 101.328 83.3539 102.792 88.2356L86.7199 91.9954C85.5303 89.764 82.4466 85.6181 76.725 86.3721C71.0034 87.1261 66.8638 92.5224 67.8304 99.8578C68.7971 107.193 74.1934 111.333 79.915 110.579C85.4165 109.854 87.4966 105.251 88.1119 102.558L104.619 102.1C104.51 106.368 100.92 122.736 81.8483 125.25ZM157.116 114.212L139.878 116.483L136.122 107.799L121.524 109.723L120.146 119.083L103.421 121.287L115.213 67.4941L131.791 65.3094L157.116 114.212ZM122.693 96.5087L131.569 95.339L125.225 81.1749L122.693 96.5087ZM172.664 92.6102L177.673 59.2632L194.544 57.0399L183.339 110.756L166.394 112.989L141.729 63.9998L159.114 61.7088L172.664 92.6102ZM215.789 86.3302L216.611 92.5652L239.791 89.5106L241.579 103.081L202.115 108.282L195.348 56.9339L234.079 51.83L235.867 65.4005L213.421 68.3585L214.146 73.86L233.805 71.2694L235.448 83.7395L215.789 86.3302ZM274.807 73.8514L271.259 46.9305L287.177 44.8329L293.944 96.1806L278.246 98.2492L257.827 73.5516L261.374 100.473L245.457 102.57L238.69 51.2224L254.315 49.1634L274.807 73.8514ZM321.408 74.4268L320.152 64.8908L346.926 61.3625L350.532 88.7235L341.876 89.8641L338.784 84.5252C336.98 87.8227 332.558 92.2114 322.729 93.5067C309.232 95.2854 296.12 84.6996 294.187 70.0288C292.263 55.4314 302.175 41.737 317.433 39.7264C336.505 37.2131 344.262 51.3403 345.22 54.6469L328.864 58.5187C327.918 57.0015 324.819 53.3054 319.318 54.0304C313.596 54.7844 309.456 60.1807 310.471 67.8829C311.486 75.585 316.883 79.7247 322.898 78.9321C327.592 78.3134 329.812 75.3343 330.504 73.2281L321.408 74.4268ZM369.311 66.0992L370.133 72.3343L393.313 69.2797L395.101 82.8502L355.637 88.0508L348.87 36.703L387.601 31.5991L389.389 45.1696L366.943 48.1275L367.668 53.6291L387.327 51.0385L388.97 63.5086L369.311 66.0992ZM445.338 76.23L427.44 78.5886L416.534 64.3539L413.233 64.7889L415.263 80.1933L398.978 82.3392L392.212 30.9915L416.785 27.7532C428.669 26.1872 437.386 32.8744 438.739 43.144C439.561 49.3791 437 54.8658 431.768 58.7643L445.338 76.23ZM415.836 40.9381L409.454 41.7791L410.856 52.4154L417.238 51.5745C420.612 51.1298 422.523 48.6392 422.107 45.485C421.701 42.4041 419.211 40.4935 415.836 40.9381Z" fill="#F4EDE3"/>
<path d="M8.74977 117.046L7.62194 112.245L2.89879 113.354L3.92992 118.095L8.74977 117.046ZM24.675 113.306L29.324 111.658L27.848 107.494L23.5471 108.504L24.675 113.306ZM48.606 92.1672L49.736 96.9685L54.4736 95.8536L53.4221 91.1015L48.606 92.1672ZM32.7542 95.8979L28.0787 97.4694L29.5102 101.729L33.8842 100.699L32.7542 95.8979ZM33.433 131.63L32.7886 126.74C21.2231 128.264 14.8669 121.963 13.5696 115.998L8.74977 117.046L3.92992 118.095C6.41963 129.542 17.9151 138.65 34.0774 136.52L33.433 131.63ZM8.74977 117.046L9.87761 121.848L25.8028 118.108L24.675 113.306L23.5471 108.504L7.62194 112.245L8.74977 117.046ZM24.675 113.306L20.0259 114.954C20.8372 117.243 22.1784 119.499 24.3288 121.086C26.5802 122.747 29.2795 123.346 32.0691 122.979L31.4246 118.088L30.7802 113.198C30.4853 113.237 30.3371 113.209 30.2918 113.199C30.2535 113.189 30.2279 113.179 30.186 113.148C30.0837 113.072 29.7006 112.72 29.324 111.658L24.675 113.306ZM31.4246 118.088L32.0691 122.979C34.0378 122.719 36.0551 122.001 37.6001 120.497C39.2429 118.897 40.0224 116.697 39.7273 114.457L34.837 115.101L29.9468 115.746C29.8932 115.339 29.9285 114.885 30.0861 114.438C30.244 113.99 30.4875 113.653 30.7176 113.429C31.1548 113.004 31.3789 113.119 30.7802 113.198L31.4246 118.088ZM34.837 115.101L39.7273 114.457C39.386 111.867 37.8364 110.121 36.3165 109.054C34.905 108.062 33.2591 107.456 31.8674 107.032C30.4266 106.594 28.8192 106.227 27.3149 105.887C25.7505 105.534 24.2273 105.195 22.7024 104.784C19.6051 103.949 17.0338 102.944 15.1667 101.5C13.4749 100.193 12.2441 98.4468 11.8677 95.5906L6.97742 96.235L2.08716 96.8795C2.82725 102.496 5.52839 106.519 9.1336 109.306C12.5636 111.957 16.6546 113.371 20.1343 114.309C21.8979 114.785 23.6419 115.171 25.1422 115.51C26.7025 115.862 27.9572 116.154 28.9945 116.47C30.081 116.801 30.5294 117.044 30.6469 117.127C30.6562 117.133 30.0705 116.685 29.9468 115.746L34.837 115.101ZM6.97742 96.235L11.8677 95.5906C11.5006 92.805 12.2727 90.2494 14.2969 88.1315C16.3988 85.9322 20.1946 83.8713 26.3607 83.0587L25.7163 78.1684L25.0718 73.2782C17.3741 74.2926 11.2446 77.0471 7.16517 81.3154C3.00795 85.6652 1.34259 91.2293 2.08716 96.8795L6.97742 96.235ZM25.7163 78.1684L26.3607 83.0587C35.7559 81.8206 42.5542 87.6478 43.79 93.2328L48.606 92.1672L53.4221 91.1015C50.9675 80.0084 39.0032 71.4423 25.0718 73.2782L25.7163 78.1684ZM48.606 92.1672L47.476 87.3658L31.6242 91.0966L32.7542 95.8979L33.8842 100.699L49.736 96.9685L48.606 92.1672ZM32.7542 95.8979L37.4297 94.3265C36.6106 91.8892 35.2112 89.8031 33.1808 88.4192C31.1332 87.0237 28.8034 86.5926 26.6401 86.8777L27.2845 91.7679L27.9289 96.6582C27.9255 96.6586 27.8814 96.6634 27.8086 96.6472C27.7309 96.6299 27.6648 96.5982 27.6248 96.5709C27.5211 96.5003 27.793 96.6193 28.0787 97.4694L32.7542 95.8979ZM27.2845 91.7679L26.6401 86.8777C24.6904 87.1346 22.7186 87.89 21.2244 89.4109C19.6686 90.9943 18.9102 93.1562 19.2019 95.3704L24.0922 94.7259L28.9824 94.0815C29.1002 94.9753 28.7642 95.8128 28.2613 96.3247C27.82 96.7739 27.5313 96.7106 27.9289 96.6582L27.2845 91.7679ZM24.0922 94.7259L19.2019 95.3704C19.5485 98.0001 21.1473 99.7454 22.7217 100.784C24.1626 101.735 25.8297 102.277 27.2076 102.642C28.6387 103.022 30.2414 103.328 31.7253 103.612C33.2719 103.908 34.779 104.196 36.2802 104.56C39.3326 105.301 41.8449 106.246 43.6679 107.661C45.3111 108.936 46.6012 110.744 47.0132 113.87L51.9035 113.225L56.7937 112.581C56.0361 106.831 53.3724 102.705 49.7162 99.8673C46.2397 97.1692 42.1067 95.8228 38.6062 94.9735C36.831 94.5428 35.0848 94.2112 33.5809 93.9232C32.0144 93.6232 30.7696 93.3806 29.7358 93.1066C29.2339 92.9735 28.8526 92.8508 28.5673 92.7398C28.4279 92.6855 28.3257 92.6395 28.2542 92.604C28.1825 92.5683 28.153 92.5488 28.1549 92.5501C28.2094 92.5861 28.851 93.0839 28.9824 94.0815L24.0922 94.7259ZM51.9035 113.225L47.0132 113.87C47.3732 116.601 46.5666 119.304 44.4531 121.575C42.3017 123.886 38.5556 125.98 32.7886 126.74L33.433 131.63L34.0774 136.52C41.5875 135.53 47.6324 132.639 51.6749 128.295C55.7553 123.91 57.5454 118.285 56.7937 112.581L51.9035 113.225ZM102.792 88.2356L103.915 93.0385L109.024 91.8435L107.516 86.8185L102.792 88.2356ZM86.7199 91.9954L82.3673 94.3159L84.1512 97.662L87.8435 96.7982L86.7199 91.9954ZM88.1119 102.558L87.9748 97.6277L84.1545 97.7339L83.3033 101.46L88.1119 102.558ZM104.619 102.1L109.55 102.226L109.683 97.0243L104.482 97.1689L104.619 102.1ZM81.8483 125.25L81.2039 120.359C68.7255 122.004 58.0143 113.335 56.4361 101.359L51.5458 102.004L46.6556 102.648C48.9247 119.867 64.4558 132.517 82.4927 130.14L81.8483 125.25ZM51.5458 102.004L56.4361 101.359C54.858 89.3836 62.9579 78.236 75.4362 76.5916L74.7917 71.7013L74.1473 66.8111C56.1104 69.188 44.3865 85.4291 46.6556 102.648L51.5458 102.004ZM74.7917 71.7013L75.4362 76.5916C83.517 75.5267 88.7543 77.9709 92.1664 80.9246C95.7575 84.0335 97.5485 87.9232 98.0672 89.6527L102.792 88.2356L107.516 86.8185C106.571 83.6663 103.898 78.0323 98.6231 73.466C93.1691 68.7447 85.1385 65.3627 74.1473 66.8111L74.7917 71.7013ZM102.792 88.2356L101.668 83.4328L85.5964 87.1925L86.7199 91.9954L87.8435 96.7982L103.915 93.0385L102.792 88.2356ZM86.7199 91.9954L91.0725 89.6749C89.615 86.9409 84.9975 80.3068 76.0806 81.4818L76.725 86.3721L77.3695 91.2624C78.799 91.074 79.7325 91.4651 80.4702 92.016C81.3238 92.6537 81.9728 93.5758 82.3673 94.3159L86.7199 91.9954ZM76.725 86.3721L76.0806 81.4818C67.2072 82.6512 61.6801 90.9402 62.9402 100.502L67.8304 99.8578L72.7207 99.2134C72.0474 94.1046 74.7997 91.601 77.3695 91.2624L76.725 86.3721ZM67.8304 99.8578L62.9402 100.502C64.2002 110.064 71.686 116.638 80.5594 115.469L79.915 110.579L79.2706 105.689C76.7007 106.027 73.3939 104.322 72.7207 99.2134L67.8304 99.8578ZM79.915 110.579L80.5594 115.469C89.1567 114.336 92.1391 107.077 92.9205 103.657L88.1119 102.558L83.3033 101.46C83.1106 102.303 82.6951 103.364 82.0207 104.192C81.4274 104.921 80.6198 105.511 79.2706 105.689L79.915 110.579ZM88.1119 102.558L88.2489 107.489L104.756 107.03L104.619 102.1L104.482 97.1689L87.9748 97.6277L88.1119 102.558ZM104.619 102.1L99.6879 101.973C99.6541 103.292 98.9586 107.522 96.2411 111.596C93.663 115.461 89.2068 119.305 81.2039 120.359L81.8483 125.25L82.4927 130.14C93.5618 128.681 100.436 123.084 104.448 117.07C108.321 111.264 109.474 105.175 109.55 102.226L104.619 102.1ZM157.116 114.212L157.761 119.102L164.728 118.184L161.496 111.943L157.116 114.212ZM139.878 116.483L135.351 118.441L136.83 121.86L140.523 121.373L139.878 116.483ZM136.122 107.799L140.649 105.841L139.17 102.422L135.477 102.909L136.122 107.799ZM121.524 109.723L120.88 104.832L117.187 105.319L116.644 109.004L121.524 109.723ZM120.146 119.083L120.79 123.974L124.483 123.487L125.026 119.802L120.146 119.083ZM103.421 121.287L98.6031 120.231L97.0983 127.096L104.066 126.178L103.421 121.287ZM115.213 67.4941L114.569 62.6038L111.136 63.0561L110.395 66.4379L115.213 67.4941ZM131.791 65.3094L136.171 63.0411L134.579 59.9669L131.147 60.4192L131.791 65.3094ZM122.693 96.5087L117.827 95.7052L116.743 102.268L123.338 101.399L122.693 96.5087ZM131.569 95.339L132.214 100.229L138.777 99.3644L136.071 93.3227L131.569 95.339ZM125.225 81.1749L129.727 79.1586L123.028 64.2027L120.358 80.3714L125.225 81.1749ZM157.116 114.212L156.472 109.321L139.234 111.593L139.878 116.483L140.523 121.373L157.761 119.102L157.116 114.212ZM139.878 116.483L144.405 114.525L140.649 105.841L136.122 107.799L131.595 109.757L135.351 118.441L139.878 116.483ZM136.122 107.799L135.477 102.909L120.88 104.832L121.524 109.723L122.169 114.613L136.766 112.689L136.122 107.799ZM121.524 109.723L116.644 109.004L115.266 118.365L120.146 119.083L125.026 119.802L126.404 110.441L121.524 109.723ZM120.146 119.083L119.501 114.193L102.777 116.397L103.421 121.287L104.066 126.178L120.79 123.974L120.146 119.083ZM103.421 121.287L108.239 122.344L120.031 68.5502L115.213 67.4941L110.395 66.4379L98.6031 120.231L103.421 121.287ZM115.213 67.4941L115.858 72.3843L132.436 70.1997L131.791 65.3094L131.147 60.4192L114.569 62.6038L115.213 67.4941ZM131.791 65.3094L127.411 67.5777L152.736 116.48L157.116 114.212L161.496 111.943L136.171 63.0411L131.791 65.3094ZM122.693 96.5087L123.338 101.399L132.214 100.229L131.569 95.339L130.925 90.4488L122.049 91.6184L122.693 96.5087ZM131.569 95.339L136.071 93.3227L129.727 79.1586L125.225 81.1749L120.723 83.1912L127.068 97.3553L131.569 95.339ZM125.225 81.1749L120.358 80.3714L117.827 95.7052L122.693 96.5087L127.56 97.3122L130.092 81.9784L125.225 81.1749ZM172.664 92.6102L168.147 94.591L175.005 110.232L177.542 93.3428L172.664 92.6102ZM177.673 59.2632L177.028 54.3729L173.347 54.8581L172.795 58.5305L177.673 59.2632ZM194.544 57.0399L199.373 58.0471L200.793 51.2413L193.9 52.1496L194.544 57.0399ZM183.339 110.756L183.984 115.646L187.453 115.189L188.168 111.763L183.339 110.756ZM166.394 112.989L161.989 115.207L163.565 118.337L167.039 117.879L166.394 112.989ZM141.729 63.9998L141.085 59.1095L134.202 60.0166L137.324 66.2179L141.729 63.9998ZM159.114 61.7088L163.632 59.728L162.144 56.3344L158.47 56.8186L159.114 61.7088ZM172.664 92.6102L177.542 93.3428L182.551 59.9958L177.673 59.2632L172.795 58.5305L167.786 91.8775L172.664 92.6102ZM177.673 59.2632L178.317 64.1534L195.189 61.9302L194.544 57.0399L193.9 52.1496L177.028 54.3729L177.673 59.2632ZM194.544 57.0399L189.716 56.0327L178.511 109.749L183.339 110.756L188.168 111.763L199.373 58.0471L194.544 57.0399ZM183.339 110.756L182.695 105.866L165.75 108.099L166.394 112.989L167.039 117.879L183.984 115.646L183.339 110.756ZM166.394 112.989L170.8 110.771L146.135 61.7816L141.729 63.9998L137.324 66.2179L161.989 115.207L166.394 112.989ZM141.729 63.9998L142.374 68.89L159.759 66.5991L159.114 61.7088L158.47 56.8186L141.085 59.1095L141.729 63.9998ZM159.114 61.7088L154.597 63.6896L168.147 94.591L172.664 92.6102L177.182 90.6294L163.632 59.728L159.114 61.7088ZM215.789 86.3302L215.145 81.4399L210.255 82.0843L210.899 86.9746L215.789 86.3302ZM216.611 92.5652L211.721 93.2097L212.365 98.0999L217.256 97.4555L216.611 92.5652ZM239.791 89.5106L244.681 88.8662L244.037 83.9759L239.147 84.6204L239.791 89.5106ZM241.579 103.081L242.224 107.971L247.114 107.327L246.469 102.437L241.579 103.081ZM202.115 108.282L197.225 108.926L197.869 113.816L202.759 113.172L202.115 108.282ZM195.348 56.9339L194.704 52.0437L189.814 52.6881L190.458 57.5784L195.348 56.9339ZM234.079 51.83L238.969 51.1856L238.325 46.2953L233.435 46.9398L234.079 51.83ZM235.867 65.4005L236.512 70.2908L241.402 69.6463L240.758 64.7561L235.867 65.4005ZM213.421 68.3585L212.777 63.4682L207.886 64.1126L208.531 69.0029L213.421 68.3585ZM214.146 73.86L209.256 74.5044L209.9 79.3947L214.791 78.7503L214.146 73.86ZM233.805 71.2694L238.695 70.6249L238.051 65.7347L233.161 66.3791L233.805 71.2694ZM235.448 83.7395L236.093 88.6298L240.983 87.9854L240.339 83.0951L235.448 83.7395ZM215.789 86.3302L210.899 86.9746L211.721 93.2097L216.611 92.5652L221.501 91.9208L220.68 85.6857L215.789 86.3302ZM216.611 92.5652L217.256 97.4555L240.435 94.4009L239.791 89.5106L239.147 84.6204L215.967 87.675L216.611 92.5652ZM239.791 89.5106L234.901 90.1551L236.689 103.726L241.579 103.081L246.469 102.437L244.681 88.8662L239.791 89.5106ZM241.579 103.081L240.935 98.1908L201.47 103.391L202.115 108.282L202.759 113.172L242.224 107.971L241.579 103.081ZM202.115 108.282L207.005 107.637L200.239 56.2895L195.348 56.9339L190.458 57.5784L197.225 108.926L202.115 108.282ZM195.348 56.9339L195.993 61.8242L234.724 56.7203L234.079 51.83L233.435 46.9398L194.704 52.0437L195.348 56.9339ZM234.079 51.83L229.189 52.4745L230.977 66.0449L235.867 65.4005L240.758 64.7561L238.969 51.1856L234.079 51.83ZM235.867 65.4005L235.223 60.5102L212.777 63.4682L213.421 68.3585L214.066 73.2487L236.512 70.2908L235.867 65.4005ZM213.421 68.3585L208.531 69.0029L209.256 74.5044L214.146 73.86L219.036 73.2156L218.311 67.714L213.421 68.3585ZM214.146 73.86L214.791 78.7503L234.449 76.1596L233.805 71.2694L233.161 66.3791L213.502 68.9697L214.146 73.86ZM233.805 71.2694L228.915 71.9138L230.558 84.384L235.448 83.7395L240.339 83.0951L238.695 70.6249L233.805 71.2694ZM235.448 83.7395L234.804 78.8493L215.145 81.4399L215.789 86.3302L216.434 91.2204L236.093 88.6298L235.448 83.7395ZM274.807 73.8514L271.011 77.0017L281.931 90.1566L279.697 73.2069L274.807 73.8514ZM271.259 46.9305L270.615 42.0402L265.725 42.6847L266.369 47.5749L271.259 46.9305ZM287.177 44.8329L292.067 44.1884L291.423 39.2982L286.533 39.9426L287.177 44.8329ZM293.944 96.1806L294.588 101.071L299.478 100.426L298.834 95.5361L293.944 96.1806ZM278.246 98.2492L274.444 101.392L276.184 103.496L278.89 103.139L278.246 98.2492ZM257.827 73.5516L261.628 70.4087L250.695 57.184L252.937 74.1961L257.827 73.5516ZM261.374 100.473L262.019 105.363L266.909 104.718L266.265 99.8281L261.374 100.473ZM245.457 102.57L240.566 103.215L241.211 108.105L246.101 107.46L245.457 102.57ZM238.69 51.2224L238.046 46.3321L233.155 46.9766L233.8 51.8668L238.69 51.2224ZM254.315 49.1634L258.11 46.0131L256.37 43.9173L253.67 44.2732L254.315 49.1634ZM274.807 73.8514L279.697 73.2069L276.15 46.2861L271.259 46.9305L266.369 47.5749L269.917 74.4958L274.807 73.8514ZM271.259 46.9305L271.904 51.8207L287.821 49.7231L287.177 44.8329L286.533 39.9426L270.615 42.0402L271.259 46.9305ZM287.177 44.8329L282.287 45.4773L289.053 96.825L293.944 96.1806L298.834 95.5361L292.067 44.1884L287.177 44.8329ZM293.944 96.1806L293.299 91.2903L277.601 93.3589L278.246 98.2492L278.89 103.139L294.588 101.071L293.944 96.1806ZM278.246 98.2492L282.047 95.1062L261.628 70.4087L257.827 73.5516L254.025 76.6946L274.444 101.392L278.246 98.2492ZM257.827 73.5516L252.937 74.1961L256.484 101.117L261.374 100.473L266.265 99.8281L262.717 72.9072L257.827 73.5516ZM261.374 100.473L260.73 95.5822L244.812 97.6799L245.457 102.57L246.101 107.46L262.019 105.363L261.374 100.473ZM245.457 102.57L250.347 101.926L243.58 50.578L238.69 51.2224L233.8 51.8668L240.566 103.215L245.457 102.57ZM238.69 51.2224L239.335 56.1127L254.959 54.0537L254.315 49.1634L253.67 44.2732L238.046 46.3321L238.69 51.2224ZM254.315 49.1634L250.519 52.3138L271.011 77.0017L274.807 73.8514L278.602 70.701L258.11 46.0131L254.315 49.1634ZM321.408 74.4268L316.518 75.0712L317.163 79.9614L322.053 79.317L321.408 74.4268ZM320.152 64.8908L319.507 60.0005L314.617 60.6449L315.262 65.5352L320.152 64.8908ZM346.926 61.3625L351.816 60.718L351.172 55.8278L346.282 56.4722L346.926 61.3625ZM350.532 88.7235L351.176 93.6137L356.066 92.9693L355.422 88.0791L350.532 88.7235ZM341.876 89.8641L337.607 92.3359L339.257 95.1844L342.52 94.7544L341.876 89.8641ZM338.784 84.5252L343.053 82.0534L338.662 74.4719L334.457 82.1575L338.784 84.5252ZM345.22 54.6469L346.356 59.4468L351.4 58.2527L349.958 53.2741L345.22 54.6469ZM328.864 58.5187L324.679 61.1289L326.554 64.1345L330.001 63.3186L328.864 58.5187ZM330.504 73.2281L335.19 74.7689L337.642 67.3123L329.86 68.3379L330.504 73.2281ZM321.408 74.4268L326.299 73.7823L325.042 64.2463L320.152 64.8908L315.262 65.5352L316.518 75.0712L321.408 74.4268ZM320.152 64.8908L320.796 69.781L347.57 66.2527L346.926 61.3625L346.282 56.4722L319.507 60.0005L320.152 64.8908ZM346.926 61.3625L342.036 62.0069L345.641 89.3679L350.532 88.7235L355.422 88.0791L351.816 60.718L346.926 61.3625ZM350.532 88.7235L349.887 83.8332L341.231 84.9739L341.876 89.8641L342.52 94.7544L351.176 93.6137L350.532 88.7235ZM341.876 89.8641L346.144 87.3923L343.053 82.0534L338.784 84.5252L334.516 86.997L337.607 92.3359L341.876 89.8641ZM338.784 84.5252L334.457 82.1575C333.484 83.9349 330.52 87.5049 322.084 88.6165L322.729 93.5067L323.373 98.397C334.597 96.918 340.475 91.7105 343.111 86.8929L338.784 84.5252ZM322.729 93.5067L322.084 88.6165C311.57 90.002 300.693 81.6457 299.077 69.3844L294.187 70.0288L289.297 70.6733C291.547 87.7535 306.893 100.569 323.373 98.397L322.729 93.5067ZM294.187 70.0288L299.077 69.3844C297.499 57.4086 305.599 46.261 318.077 44.6166L317.433 39.7264L316.788 34.8361C298.751 37.213 287.027 53.4542 289.297 70.6733L294.187 70.0288ZM317.433 39.7264L318.077 44.6166C326.172 43.5499 331.534 45.9932 334.998 48.8236C338.674 51.8281 340.284 55.3366 340.482 56.0197L345.22 54.6469L349.958 53.2741C349.198 50.6506 346.45 45.4421 341.24 41.1848C335.818 36.7533 327.765 33.3896 316.788 34.8361L317.433 39.7264ZM345.22 54.6469L344.084 49.847L327.728 53.7188L328.864 58.5187L330.001 63.3186L346.356 59.4468L345.22 54.6469ZM328.864 58.5187L333.05 55.9084C331.687 53.724 327.017 48.0407 318.673 49.1401L319.318 54.0304L319.962 58.9207C321.403 58.7308 322.389 59.1022 323.119 59.5747C323.941 60.1067 324.481 60.812 324.679 61.1289L328.864 58.5187ZM319.318 54.0304L318.673 49.1401C309.707 50.3217 304.286 58.7024 305.581 68.5273L310.471 67.8829L315.362 67.2384C314.626 61.659 317.485 59.2471 319.962 58.9207L319.318 54.0304ZM310.471 67.8829L305.581 68.5273C306.222 73.3921 308.313 77.5372 311.61 80.3472C314.927 83.1741 319.185 84.3965 323.542 83.8223L322.898 78.9321L322.253 74.0418C320.595 74.2603 319.147 73.8091 318.009 72.8388C316.85 71.8516 315.735 70.0758 315.362 67.2384L310.471 67.8829ZM322.898 78.9321L323.542 83.8223C330.353 82.9248 333.984 78.4357 335.19 74.7689L330.504 73.2281L325.819 71.6873C325.639 72.2329 324.832 73.702 322.253 74.0418L322.898 78.9321ZM330.504 73.2281L329.86 68.3379L320.764 69.5365L321.408 74.4268L322.053 79.317L331.149 78.1184L330.504 73.2281ZM369.311 66.0992L368.667 61.209L363.776 61.8534L364.421 66.7437L369.311 66.0992ZM370.133 72.3343L365.243 72.9788L365.887 77.869L370.777 77.2246L370.133 72.3343ZM393.313 69.2797L398.203 68.6353L397.558 63.745L392.668 64.3895L393.313 69.2797ZM395.101 82.8502L395.745 87.7404L400.636 87.096L399.991 82.2058L395.101 82.8502ZM355.637 88.0508L350.746 88.6952L351.391 93.5854L356.281 92.941L355.637 88.0508ZM348.87 36.703L348.226 31.8128L343.335 32.4572L343.98 37.3475L348.87 36.703ZM387.601 31.5991L392.491 30.9547L391.847 26.0644L386.956 26.7089L387.601 31.5991ZM389.389 45.1696L390.034 50.0599L394.924 49.4154L394.279 44.5252L389.389 45.1696ZM366.943 48.1275L366.298 43.2373L361.408 43.8817L362.053 48.772L366.943 48.1275ZM367.668 53.6291L362.778 54.2735L363.422 59.1638L368.312 58.5193L367.668 53.6291ZM387.327 51.0385L392.217 50.394L391.572 45.5038L386.682 46.1482L387.327 51.0385ZM388.97 63.5086L389.614 68.3989L394.505 67.7545L393.86 62.8642L388.97 63.5086ZM369.311 66.0992L364.421 66.7437L365.243 72.9788L370.133 72.3343L375.023 71.6899L374.201 65.4548L369.311 66.0992ZM370.133 72.3343L370.777 77.2246L393.957 74.17L393.313 69.2797L392.668 64.3895L369.488 67.4441L370.133 72.3343ZM393.313 69.2797L388.422 69.9241L390.211 83.4946L395.101 82.8502L399.991 82.2058L398.203 68.6353L393.313 69.2797ZM395.101 82.8502L394.456 77.9599L354.992 83.1605L355.637 88.0508L356.281 92.941L395.745 87.7404L395.101 82.8502ZM355.637 88.0508L360.527 87.4063L353.76 36.0586L348.87 36.703L343.98 37.3475L350.746 88.6952L355.637 88.0508ZM348.87 36.703L349.514 41.5933L388.245 36.4894L387.601 31.5991L386.956 26.7089L348.226 31.8128L348.87 36.703ZM387.601 31.5991L382.711 32.2436L384.499 45.814L389.389 45.1696L394.279 44.5252L392.491 30.9547L387.601 31.5991ZM389.389 45.1696L388.745 40.2793L366.298 43.2373L366.943 48.1275L367.587 53.0178L390.034 50.0599L389.389 45.1696ZM366.943 48.1275L362.053 48.772L362.778 54.2735L367.668 53.6291L372.558 52.9847L371.833 47.4831L366.943 48.1275ZM367.668 53.6291L368.312 58.5193L387.971 55.9287L387.327 51.0385L386.682 46.1482L367.023 48.7388L367.668 53.6291ZM387.327 51.0385L382.436 51.6829L384.08 64.1531L388.97 63.5086L393.86 62.8642L392.217 50.394L387.327 51.0385ZM388.97 63.5086L388.326 58.6184L368.667 61.209L369.311 66.0992L369.956 70.9895L389.614 68.3989L388.97 63.5086ZM445.338 76.23L445.982 81.1203L454.511 79.9964L449.233 73.2037L445.338 76.23ZM427.44 78.5886L423.524 81.5884L425.258 83.8513L428.084 83.4789L427.44 78.5886ZM416.534 64.3539L420.449 61.3541L418.716 59.0913L415.889 59.4637L416.534 64.3539ZM413.233 64.7889L412.589 59.8987L407.698 60.5431L408.343 65.4334L413.233 64.7889ZM415.263 80.1933L415.907 85.0835L420.798 84.4391L420.153 79.5488L415.263 80.1933ZM398.978 82.3392L394.088 82.9837L394.733 87.8739L399.623 87.2295L398.978 82.3392ZM392.212 30.9915L391.567 26.1012L386.677 26.7457L387.322 31.6359L392.212 30.9915ZM431.768 58.7643L428.821 54.8089L424.784 57.8161L427.873 61.7907L431.768 58.7643ZM409.454 41.7791L408.81 36.8889L403.92 37.5333L404.564 42.4236L409.454 41.7791ZM410.856 52.4154L405.966 53.0599L406.61 57.9501L411.501 57.3057L410.856 52.4154ZM445.338 76.23L444.694 71.3397L426.795 73.6984L427.44 78.5886L428.084 83.4789L445.982 81.1203L445.338 76.23ZM427.44 78.5886L431.355 75.5888L420.449 61.3541L416.534 64.3539L412.618 67.3538L423.524 81.5884L427.44 78.5886ZM416.534 64.3539L415.889 59.4637L412.589 59.8987L413.233 64.7889L413.877 69.6792L417.178 69.2442L416.534 64.3539ZM413.233 64.7889L408.343 65.4334L410.373 80.8377L415.263 80.1933L420.153 79.5488L418.123 64.1445L413.233 64.7889ZM415.263 80.1933L414.618 75.303L398.334 77.449L398.978 82.3392L399.623 87.2295L415.907 85.0835L415.263 80.1933ZM398.978 82.3392L403.869 81.6948L397.102 30.3471L392.212 30.9915L387.322 31.6359L394.088 82.9837L398.978 82.3392ZM392.212 30.9915L392.856 35.8818L417.43 32.6435L416.785 27.7532L416.141 22.863L391.567 26.1012L392.212 30.9915ZM416.785 27.7532L417.43 32.6435C422.301 32.0016 426.15 33.0845 428.829 35.0135C431.495 36.9326 433.339 39.9224 433.849 43.7884L438.739 43.144L443.629 42.4995C442.786 36.096 439.594 30.6074 434.593 27.007C429.605 23.4166 423.153 21.9389 416.141 22.863L416.785 27.7532ZM438.739 43.144L433.849 43.7884C434.413 48.0703 432.773 51.8645 428.821 54.8089L431.768 58.7643L434.715 62.7197C441.228 57.8671 444.708 50.6878 443.629 42.4995L438.739 43.144ZM431.768 58.7643L427.873 61.7907L441.443 79.2563L445.338 76.23L449.233 73.2037L435.663 55.738L431.768 58.7643ZM415.836 40.9381L415.192 36.0479L408.81 36.8889L409.454 41.7791L410.099 46.6694L416.481 45.8284L415.836 40.9381ZM409.454 41.7791L404.564 42.4236L405.966 53.0599L410.856 52.4154L415.746 51.771L414.345 41.1347L409.454 41.7791ZM410.856 52.4154L411.501 57.3057L417.882 56.4647L417.238 51.5745L416.593 46.6842L410.212 47.5252L410.856 52.4154ZM417.238 51.5745L417.882 56.4647C420.65 56.0999 423.208 54.8257 424.964 52.6039C426.727 50.3732 427.36 47.5897 426.997 44.8405L422.107 45.485L417.217 46.1294C417.246 46.3471 417.223 46.4613 417.215 46.4926C417.208 46.5201 417.207 46.5087 417.224 46.4877C417.24 46.4673 417.233 46.4875 417.159 46.5272C417.081 46.5688 416.905 46.6431 416.593 46.6842L417.238 51.5745ZM422.107 45.485L426.997 44.8405C426.636 42.097 425.285 39.5943 423.011 37.9189C420.749 36.2515 417.959 35.6832 415.192 36.0479L415.836 40.9381L416.481 45.8284C416.792 45.7874 416.984 45.8133 417.074 45.8341C417.161 45.8542 417.177 45.874 417.158 45.8601C417.139 45.8456 417.132 45.8322 417.14 45.8453C417.149 45.8613 417.192 45.9443 417.217 46.1294L422.107 45.485Z" fill="#411517"/>
<path d="M33.433 128.97C19.5691 130.797 10.6433 123.092 8.74977 114.386L24.675 110.646C25.8628 113.997 28.1237 115.863 31.4246 115.428C33.992 115.09 35.011 113.762 34.837 112.441C33.967 105.839 9.21038 110.52 6.97742 93.5749C5.86578 85.1392 11.8524 77.3353 25.7163 75.5083C37.3795 73.9713 46.7608 81.168 48.606 89.507L32.7542 93.2378C31.6494 89.9505 29.4118 88.8274 27.2845 89.1078C24.9372 89.4171 23.9182 90.7454 24.0922 92.0658C24.9525 98.5943 49.5642 92.8136 51.9035 110.565C53.0151 119.001 46.7101 127.22 33.433 128.97ZM81.8483 122.59C66.5907 124.6 53.4695 113.941 51.5458 99.3436C49.6222 84.7462 59.5341 71.0518 74.7917 69.0412C93.8638 66.5279 101.328 80.6937 102.792 85.5755L86.7199 89.3352C85.5303 87.1039 82.4466 82.958 76.725 83.712C71.0034 84.4659 66.8638 89.8623 67.8304 97.1977C68.7971 104.533 74.1934 108.673 79.915 107.919C85.4165 107.194 87.4966 102.591 88.1119 99.8982L104.619 99.4394C104.51 103.708 100.92 120.076 81.8483 122.59ZM157.116 111.551L139.878 113.823L136.122 105.139L121.524 107.062L120.146 116.423L103.421 118.627L115.213 64.8339L131.791 62.6493L157.116 111.551ZM122.693 93.8485L131.569 92.6789L125.225 78.5147L122.693 93.8485ZM172.664 89.95L177.673 56.603L194.544 54.3797L183.339 108.096L166.394 110.329L141.729 61.3396L159.114 59.0487L172.664 89.95ZM215.789 83.67L216.611 89.9051L239.791 86.8505L241.579 100.421L202.115 105.622L195.348 54.2738L234.079 49.1699L235.867 62.7403L213.421 65.6983L214.146 71.1998L233.805 68.6092L235.448 81.0794L215.789 83.67ZM274.807 71.1912L271.259 44.2703L287.177 42.1727L293.944 93.5204L278.246 95.5891L257.827 70.8915L261.374 97.8123L245.457 99.91L238.69 48.5622L254.315 46.5033L274.807 71.1912ZM321.408 71.7666L320.152 62.2306L346.926 58.7023L350.532 86.0633L341.876 87.204L338.784 81.8651C336.98 85.1626 332.558 89.5513 322.729 90.8466C309.232 92.6252 296.12 82.0395 294.187 67.3687C292.263 52.7712 302.175 39.0769 317.433 37.0662C336.505 34.5529 344.262 48.6801 345.22 51.9867L328.864 55.8585C327.918 54.3414 324.819 50.6453 319.318 51.3702C313.596 52.1242 309.456 57.5206 310.471 65.2227C311.486 72.9249 316.883 77.0646 322.898 76.2719C327.592 75.6532 329.812 72.6742 330.504 70.568L321.408 71.7666ZM369.311 63.4391L370.133 69.6742L393.313 66.6196L395.101 80.19L355.637 85.3906L348.87 34.0429L387.601 28.939L389.389 42.5094L366.943 45.4674L367.668 50.9689L387.327 48.3783L388.97 60.8485L369.311 63.4391ZM445.338 73.5698L427.44 75.9285L416.534 61.6938L413.233 62.1288L415.263 77.5331L398.978 79.6791L392.212 28.3313L416.785 25.0931C428.669 23.5271 437.386 30.2143 438.739 40.4838C439.561 46.7189 437 52.2056 431.768 56.1042L445.338 73.5698ZM415.836 38.278L409.454 39.119L410.856 49.7553L417.238 48.9143C420.612 48.4696 422.523 45.979 422.107 42.8248C421.701 39.744 419.211 37.8333 415.836 38.278Z" fill="#F4EDE3"/>
<path d="M59.1667 162.95L56.8757 145.565L73.1603 143.419L79.9268 194.767L63.6423 196.913L61.1966 178.355L45.7923 180.385L48.238 198.943L31.9534 201.089L25.1868 149.741L41.4714 147.595L43.7624 164.98L59.1667 162.95ZM108.579 192.111C93.9082 194.044 83.7797 186.274 82.0011 172.777L78.0475 142.775L94.3321 140.629L98.2856 170.631C98.8366 174.812 102.074 177.296 106.549 176.707C111.024 176.117 113.507 172.879 112.956 168.698L109.003 138.696L125.287 136.55L129.241 166.552C131.02 180.049 123.25 190.178 108.579 192.111ZM166.326 158.531L162.778 131.61L178.696 129.512L185.462 180.86L169.765 182.928L149.346 158.231L152.893 185.152L136.976 187.249L130.209 135.902L145.833 133.843L166.326 158.531ZM217.99 176.573L201.706 178.719L196.969 142.776L182.812 144.641L180.782 129.237L225.381 123.36L227.411 138.764L213.254 140.63L217.99 176.573Z" fill="#F4EDE3"/>
<path d="M59.1667 162.95L59.8111 167.841L64.7014 167.196L64.0569 162.306L59.1667 162.95ZM56.8757 145.565L56.2313 140.675L51.341 141.32L51.9855 146.21L56.8757 145.565ZM73.1603 143.419L78.0505 142.775L77.4061 137.885L72.5159 138.529L73.1603 143.419ZM79.9268 194.767L80.5713 199.657L85.4615 199.013L84.8171 194.123L79.9268 194.767ZM63.6423 196.913L58.752 197.558L59.3964 202.448L64.2867 201.803L63.6423 196.913ZM61.1966 178.355L66.0869 177.71L65.4425 172.82L60.5522 173.464L61.1966 178.355ZM45.7923 180.385L45.1479 175.494L40.2576 176.139L40.9021 181.029L45.7923 180.385ZM48.238 198.943L48.8824 203.833L53.7726 203.189L53.1282 198.299L48.238 198.943ZM31.9534 201.089L27.0631 201.733L27.7076 206.624L32.5978 205.979L31.9534 201.089ZM25.1868 149.741L24.5424 144.851L19.6522 145.495L20.2966 150.386L25.1868 149.741ZM41.4714 147.595L46.3617 146.951L45.7172 142.061L40.827 142.705L41.4714 147.595ZM43.7624 164.98L38.8721 165.625L39.5165 170.515L44.4068 169.87L43.7624 164.98ZM59.1667 162.95L64.0569 162.306L61.766 144.921L56.8757 145.565L51.9855 146.21L54.2764 163.595L59.1667 162.95ZM56.8757 145.565L57.5202 150.456L73.8047 148.31L73.1603 143.419L72.5159 138.529L56.2313 140.675L56.8757 145.565ZM73.1603 143.419L68.27 144.064L75.0366 195.412L79.9268 194.767L84.8171 194.123L78.0505 142.775L73.1603 143.419ZM79.9268 194.767L79.2824 189.877L62.9978 192.023L63.6423 196.913L64.2867 201.803L80.5713 199.657L79.9268 194.767ZM63.6423 196.913L68.5325 196.269L66.0869 177.71L61.1966 178.355L56.3064 178.999L58.752 197.558L63.6423 196.913ZM61.1966 178.355L60.5522 173.464L45.1479 175.494L45.7923 180.385L46.4368 185.275L61.8411 183.245L61.1966 178.355ZM45.7923 180.385L40.9021 181.029L43.3477 199.588L48.238 198.943L53.1282 198.299L50.6826 179.74L45.7923 180.385ZM48.238 198.943L47.5935 194.053L31.309 196.199L31.9534 201.089L32.5978 205.979L48.8824 203.833L48.238 198.943ZM31.9534 201.089L36.8436 200.445L30.0771 149.097L25.1868 149.741L20.2966 150.386L27.0631 201.733L31.9534 201.089ZM25.1868 149.741L25.8313 154.632L42.1158 152.486L41.4714 147.595L40.827 142.705L24.5424 144.851L25.1868 149.741ZM41.4714 147.595L36.5811 148.24L38.8721 165.625L43.7624 164.98L48.6526 164.336L46.3617 146.951L41.4714 147.595ZM43.7624 164.98L44.4068 169.87L59.8111 167.841L59.1667 162.95L58.5223 158.06L43.1179 160.09L43.7624 164.98ZM78.0475 142.775L77.4031 137.885L72.5128 138.53L73.1572 143.42L78.0475 142.775ZM94.3321 140.629L99.2223 139.985L98.5779 135.095L93.6876 135.739L94.3321 140.629ZM109.003 138.696L108.358 133.806L103.468 134.45L104.113 139.341L109.003 138.696ZM125.287 136.55L130.178 135.906L129.533 131.015L124.643 131.66L125.287 136.55ZM108.579 192.111L107.935 187.221C101.598 188.056 96.7483 186.745 93.3854 184.262C90.0399 181.792 87.6344 177.771 86.8913 172.133L82.0011 172.777L77.1108 173.422C78.1464 181.28 81.6945 187.893 87.5255 192.198C93.3393 196.491 100.89 198.099 109.223 197.001L108.579 192.111ZM82.0011 172.777L86.8913 172.133L82.9377 142.131L78.0475 142.775L73.1572 143.42L77.1108 173.422L82.0011 172.777ZM78.0475 142.775L78.6919 147.666L94.9765 145.52L94.3321 140.629L93.6876 135.739L77.4031 137.885L78.0475 142.775ZM94.3321 140.629L89.4418 141.274L93.3954 171.276L98.2856 170.631L103.176 169.987L99.2223 139.985L94.3321 140.629ZM98.2856 170.631L93.3954 171.276C93.8222 174.514 95.3611 177.45 98.0012 179.415C100.631 181.372 103.9 182.031 107.193 181.597L106.549 176.707L105.905 171.816C104.724 171.972 104.137 171.684 103.891 171.501C103.656 171.326 103.3 170.929 103.176 169.987L98.2856 170.631ZM106.549 176.707L107.193 181.597C110.487 181.163 113.474 179.679 115.507 177.108C117.548 174.526 118.273 171.292 117.847 168.053L112.956 168.698L108.066 169.342C108.19 170.285 107.95 170.76 107.768 170.99C107.578 171.23 107.085 171.661 105.905 171.816L106.549 176.707ZM112.956 168.698L117.847 168.053L113.893 138.052L109.003 138.696L104.113 139.341L108.066 169.342L112.956 168.698ZM109.003 138.696L109.647 143.586L125.932 141.44L125.287 136.55L124.643 131.66L108.358 133.806L109.003 138.696ZM125.287 136.55L120.397 137.195L124.351 167.196L129.241 166.552L134.131 165.907L130.178 135.906L125.287 136.55ZM129.241 166.552L124.351 167.196C125.094 172.835 123.812 177.342 121.221 180.594C118.616 183.864 114.271 186.385 107.935 187.221L108.579 192.111L109.223 197.001C117.557 195.903 124.433 192.394 128.936 186.741C133.453 181.072 135.167 173.766 134.131 165.907L129.241 166.552ZM166.326 158.531L162.53 161.681L173.45 174.836L171.216 157.886L166.326 158.531ZM162.778 131.61L162.134 126.719L157.243 127.364L157.888 132.254L162.778 131.61ZM178.696 129.512L183.586 128.868L182.942 123.977L178.051 124.622L178.696 129.512ZM185.462 180.86L186.107 185.75L190.997 185.106L190.353 180.215L185.462 180.86ZM169.765 182.928L165.963 186.071L167.703 188.175L170.409 187.819L169.765 182.928ZM149.346 158.231L153.147 155.088L142.214 141.863L144.455 158.875L149.346 158.231ZM152.893 185.152L153.538 190.042L158.428 189.398L157.784 184.507L152.893 185.152ZM136.976 187.249L132.085 187.894L132.73 192.784L137.62 192.14L136.976 187.249ZM130.209 135.902L129.565 131.011L124.674 131.656L125.319 136.546L130.209 135.902ZM145.833 133.843L149.629 130.692L147.889 128.597L145.189 128.952L145.833 133.843ZM166.326 158.531L171.216 157.886L167.668 130.965L162.778 131.61L157.888 132.254L161.435 159.175L166.326 158.531ZM162.778 131.61L163.423 136.5L179.34 134.402L178.696 129.512L178.051 124.622L162.134 126.719L162.778 131.61ZM178.696 129.512L173.806 130.157L180.572 181.504L185.462 180.86L190.353 180.215L183.586 128.868L178.696 129.512ZM185.462 180.86L184.818 175.97L169.12 178.038L169.765 182.928L170.409 187.819L186.107 185.75L185.462 180.86ZM169.765 182.928L173.566 179.785L153.147 155.088L149.346 158.231L145.544 161.374L165.963 186.071L169.765 182.928ZM149.346 158.231L144.455 158.875L148.003 185.796L152.893 185.152L157.784 184.507L154.236 157.586L149.346 158.231ZM152.893 185.152L152.249 180.261L136.331 182.359L136.976 187.249L137.62 192.14L153.538 190.042L152.893 185.152ZM136.976 187.249L141.866 186.605L135.099 135.257L130.209 135.902L125.319 136.546L132.085 187.894L136.976 187.249ZM130.209 135.902L130.853 140.792L146.478 138.733L145.833 133.843L145.189 128.952L129.565 131.011L130.209 135.902ZM145.833 133.843L142.038 136.993L162.53 161.681L166.326 158.531L170.121 155.38L149.629 130.692L145.833 133.843ZM217.99 176.573L218.635 181.464L223.525 180.819L222.881 175.929L217.99 176.573ZM201.706 178.719L196.815 179.364L197.46 184.254L202.35 183.61L201.706 178.719ZM196.969 142.776L201.859 142.131L201.215 137.241L196.325 137.886L196.969 142.776ZM182.812 144.641L177.922 145.286L178.566 150.176L183.456 149.532L182.812 144.641ZM180.782 129.237L180.137 124.347L175.247 124.991L175.892 129.882L180.782 129.237ZM225.381 123.36L230.271 122.716L229.627 117.825L224.737 118.47L225.381 123.36ZM227.411 138.764L228.055 143.655L232.946 143.01L232.301 138.12L227.411 138.764ZM213.254 140.63L212.609 135.74L207.719 136.384L208.363 141.274L213.254 140.63ZM217.99 176.573L217.346 171.683L201.061 173.829L201.706 178.719L202.35 183.61L218.635 181.464L217.99 176.573ZM201.706 178.719L206.596 178.075L201.859 142.131L196.969 142.776L192.079 143.42L196.815 179.364L201.706 178.719ZM196.969 142.776L196.325 137.886L182.167 139.751L182.812 144.641L183.456 149.532L197.614 147.666L196.969 142.776ZM182.812 144.641L187.702 143.997L185.672 128.593L180.782 129.237L175.892 129.882L177.922 145.286L182.812 144.641ZM180.782 129.237L181.426 134.127L226.025 128.25L225.381 123.36L224.737 118.47L180.137 124.347L180.782 129.237ZM225.381 123.36L220.491 124.004L222.521 139.409L227.411 138.764L232.301 138.12L230.271 122.716L225.381 123.36ZM227.411 138.764L226.767 133.874L212.609 135.74L213.254 140.63L213.898 145.52L228.055 143.655L227.411 138.764ZM213.254 140.63L208.363 141.274L213.1 177.218L217.99 176.573L222.881 175.929L218.144 139.985L213.254 140.63Z" fill="#411517"/>
<path d="M57.8582 160.29L55.5673 142.905L71.8518 140.759L78.6184 192.107L62.3338 194.253L59.8882 175.694L44.4839 177.724L46.9295 196.283L30.6449 198.429L23.8784 147.081L40.1629 144.935L42.4539 162.32L57.8582 160.29ZM107.271 189.451C92.5997 191.384 82.4712 183.614 80.6926 170.117L76.739 140.115L93.0236 137.969L96.9772 167.971C97.5282 172.152 100.766 174.636 105.241 174.046C109.715 173.457 112.199 170.219 111.648 166.038L107.694 136.036L123.979 133.89L127.933 163.892C129.711 177.389 121.941 187.517 107.271 189.451ZM165.017 155.87L161.47 128.95L177.387 126.852L184.154 178.2L168.456 180.268L148.037 155.571L151.585 182.492L135.667 184.589L128.901 133.241L144.525 131.183L165.017 155.87ZM216.682 173.913L200.397 176.059L195.661 140.116L181.503 141.981L179.473 126.577L224.073 120.7L226.103 136.104L211.945 137.97L216.682 173.913Z" fill="#F4EDE3"/>
</svg>
