<svg width="575" height="691" viewBox="0 0 575 691" fill="none" xmlns="http://www.w3.org/2000/svg">
<g clip-path="url(#clip0_126_1740)">
<path d="M281.334 -182.971C281.334 -182.971 281.323 -7.51021 286.308 9.99316C291.293 27.4965 240.576 129.21 240.576 129.21L190.404 209.249L162.513 267.178C153.767 285.342 151.129 305.853 154.997 325.637L169.933 402.067C169.933 402.067 202.152 508.299 187 545.307L171.959 665.556" stroke="#F4EDE3" stroke-width="8" stroke-miterlimit="10" stroke-dasharray="20 15"/>
<path d="M202.022 139.834L190.959 84.6652L297.929 75.7168L374.867 77.6138L452.821 77.691L453.488 133.797L373.164 133.72L302.395 132.161L202.022 139.834Z" fill="#411517"/>
<path d="M235.163 100.816V90.8965H243.083V118.896H235.163V108.336H225.843V118.896H217.923V90.8965H225.843V100.816H235.163ZM257.723 119.456C251.563 119.456 246.683 114.576 246.683 108.696C246.683 102.816 251.563 97.9365 257.723 97.9365C263.883 97.9365 268.723 102.816 268.723 108.696C268.723 114.576 263.883 119.456 257.723 119.456ZM257.723 113.056C259.843 113.056 261.523 111.216 261.523 108.696C261.523 106.176 259.843 104.336 257.723 104.336C255.563 104.336 253.923 106.176 253.923 108.696C253.923 111.216 255.563 113.056 257.723 113.056ZM291.076 109.776L293.996 98.4965H301.356L294.516 118.896H288.356L285.196 108.936L281.956 118.896H275.796L268.956 98.4965H276.556L279.476 109.696L282.956 98.4965H287.596L291.076 109.776ZM321.572 119.456C316.812 119.456 313.772 116.456 313.772 111.296V104.696H310.692V98.8965H312.252C313.652 98.8965 314.532 98.0165 314.532 96.6165V93.2565H320.972V98.4965H325.052V104.696H320.972V109.896C320.972 111.736 321.932 112.616 323.532 112.616C324.012 112.616 324.612 112.536 325.052 112.336V118.936C324.452 119.136 323.212 119.456 321.572 119.456ZM338.27 119.456C332.11 119.456 327.23 114.576 327.23 108.696C327.23 102.816 332.11 97.9365 338.27 97.9365C344.43 97.9365 349.27 102.816 349.27 108.696C349.27 114.576 344.43 119.456 338.27 119.456ZM338.27 113.056C340.39 113.056 342.07 111.216 342.07 108.696C342.07 106.176 340.39 104.336 338.27 104.336C336.11 104.336 334.47 106.176 334.47 108.696C334.47 111.216 336.11 113.056 338.27 113.056ZM362.689 90.8965H374.569C381.169 90.8965 385.369 95.0565 385.369 100.896C385.369 106.696 381.169 110.856 374.569 110.856H370.609V118.896H362.689V90.8965ZM370.329 104.176H373.809C375.929 104.176 377.329 102.816 377.329 100.896C377.329 98.9365 375.929 97.5765 373.809 97.5765H370.329V104.176ZM395.469 118.896H388.269V90.8965H395.469V118.896ZM408.673 97.9365C414.433 97.9365 417.753 101.616 417.753 106.816V118.896H412.473L411.433 116.896H411.233C410.193 118.056 408.473 119.456 405.313 119.456C401.353 119.456 398.433 116.656 398.433 113.216C398.433 109.136 401.913 106.496 408.713 106.496H410.793C410.793 104.496 409.873 103.576 408.513 103.576C407.353 103.576 406.513 104.296 406.353 105.216L399.433 104.576C399.713 102.336 401.953 97.9365 408.673 97.9365ZM407.593 114.136C409.513 114.136 410.793 112.816 410.793 110.856V110.216H408.593C406.233 110.216 405.353 111.136 405.353 112.296C405.353 113.336 406.193 114.136 407.593 114.136ZM430.007 110.176L433.567 98.4965H440.927L433.007 119.096C431.167 123.776 428.687 126.296 424.807 126.296C423.487 126.296 422.327 126.016 421.647 125.736V119.736C422.167 119.936 422.607 120.016 423.287 120.016C425.127 120.016 425.967 119.456 426.447 118.496L418.487 98.4965H426.327L430.007 110.176Z" fill="#F4EDE3"/>
<path d="M267.832 221.102L267.82 217.212L278.517 217.18L278.551 228.485L275.269 228.495L274.35 226.006C273.381 227.346 271.259 228.933 267.46 228.944C261.838 228.961 257.052 224.022 257.033 217.913C257.015 211.835 261.772 206.837 267.91 206.819C275.022 206.797 277.773 212.229 278.174 214.264L272.006 214.769C271.639 213.919 270.388 212.19 267.926 212.198C265.283 212.206 263.04 214.461 263.051 217.895C263.061 221.329 265.317 223.571 268.021 223.563C270.361 223.556 271.633 222.124 272.025 221.09L267.832 221.102ZM297.487 220.375C297.49 221.226 297.4 221.895 297.31 222.199L286.37 222.232C286.86 223.72 287.987 224.506 289.416 224.502C290.783 224.498 291.571 223.766 291.813 223.431L297.102 223.841C296.258 226.184 293.714 228.866 289.459 228.878C284.809 228.892 281.121 225.226 281.108 220.728C281.094 216.261 284.791 212.542 289.41 212.529C294.181 212.514 297.474 216.121 297.487 220.375ZM289.332 216.814C287.873 216.818 286.66 217.642 286.27 219.224L292.348 219.206C292.1 217.839 290.942 216.809 289.332 216.814ZM306.778 228.826C303.162 228.837 300.845 226.565 300.833 222.645L300.818 217.63L298.478 217.637L298.465 213.231L299.65 213.227C300.714 213.224 301.381 212.554 301.377 211.49L301.37 208.937L306.263 208.922L306.275 212.904L309.374 212.894L309.388 217.605L306.289 217.614L306.3 221.565C306.305 222.963 307.036 223.629 308.252 223.625C308.616 223.624 309.072 223.562 309.406 223.409L309.421 228.424C308.965 228.577 308.024 228.823 306.778 228.826ZM325.927 221.719L328.605 212.837L334.197 212.82L328.227 228.489C326.839 232.049 324.961 233.969 322.013 233.978C321.01 233.981 320.128 233.771 319.611 233.559L319.597 229.001C319.993 229.152 320.327 229.211 320.844 229.21C322.242 229.206 322.879 228.778 323.241 228.048L317.148 212.871L323.105 212.853L325.927 221.719ZM342.761 228.719C338.081 228.733 334.363 225.036 334.349 220.569C334.336 216.102 338.033 212.383 342.713 212.369C347.393 212.355 351.081 216.052 351.094 220.519C351.108 224.986 347.441 228.705 342.761 228.719ZM342.747 223.857C344.358 223.852 345.63 222.45 345.624 220.535C345.618 218.621 344.338 217.227 342.727 217.232C341.086 217.236 339.844 218.638 339.85 220.553C339.856 222.467 341.106 223.861 342.747 223.857ZM359.547 228.669C355.901 228.68 353.37 226.104 353.358 222.093L353.331 212.763L358.801 212.747L358.826 221.195C358.83 222.593 359.836 223.593 361.112 223.589C362.419 223.585 363.419 222.579 363.415 221.181L363.39 212.733L368.86 212.716L368.906 228.215L364.895 228.227L364.13 226.71L363.978 226.711C363.494 227.381 361.979 228.661 359.547 228.669ZM377.34 228.19L371.87 228.206L371.823 212.708L375.804 212.696L376.599 214.213L376.751 214.212C377.144 213.664 378.295 212.263 380.331 212.257C380.878 212.255 381.486 212.314 381.821 212.404L381.838 218.118C381.503 218.027 380.956 217.938 380.409 217.939C378.464 217.945 377.313 219.073 377.319 221.079L377.34 228.19ZM398.376 228.553C393.757 228.566 390.038 224.87 390.025 220.403C390.011 215.935 393.708 212.217 398.327 212.203C403.706 212.187 405.967 216.313 406.308 218.5L400.9 218.972C400.685 218.213 399.77 217.061 398.342 217.065C396.761 217.07 395.519 218.472 395.525 220.386C395.531 222.301 396.781 223.695 398.361 223.69C399.79 223.686 400.698 222.528 400.908 221.768L406.319 222.208C405.961 224.397 403.755 228.537 398.376 228.553ZM414.114 228.08L408.644 228.097L408.58 206.824L414.05 206.807L414.071 213.888L414.223 213.888C414.647 213.309 416.072 212.15 418.26 212.143C421.573 212.133 424.133 214.709 424.145 218.72L424.173 228.05L418.703 228.066L418.678 219.618C418.673 218.251 417.667 217.22 416.361 217.224C415.054 217.228 414.085 218.264 414.089 219.632L414.114 228.08ZM442.759 219.941C442.761 220.792 442.672 221.461 442.582 221.765L431.642 221.798C432.132 223.285 433.259 224.072 434.687 224.068C436.055 224.064 436.843 223.332 437.085 222.997L442.374 223.407C441.53 225.749 438.985 228.431 434.731 228.444C430.081 228.458 426.393 224.792 426.38 220.294C426.366 215.827 430.063 212.108 434.682 212.094C439.453 212.08 442.746 215.687 442.759 219.941ZM434.604 216.379C433.145 216.384 431.932 217.208 431.541 218.789L437.619 218.771C437.372 217.404 436.214 216.375 434.604 216.379ZM452.894 228.39C448.274 228.403 444.556 224.707 444.542 220.24C444.529 215.772 448.225 212.054 452.845 212.04C458.224 212.024 460.485 216.15 460.826 218.337L455.418 218.809C455.203 218.05 454.288 216.898 452.859 216.902C451.279 216.907 450.037 218.309 450.043 220.223C450.049 222.138 451.299 223.532 452.879 223.527C454.307 223.523 455.216 222.365 455.426 221.605L460.837 222.045C460.479 224.234 458.273 228.374 452.894 228.39ZM473.712 219.545L479.025 227.886L472.704 227.905L468.612 221.201L468.632 227.917L463.162 227.934L463.098 206.661L468.568 206.644L468.604 218.527L472.293 212.407L478.31 212.389L473.712 219.545ZM485.637 227.866L480.167 227.883L480.103 206.61L485.573 206.593L485.637 227.866ZM491.454 210.8C489.691 210.805 488.411 209.533 488.406 207.953C488.401 206.342 489.674 205.062 491.437 205.056C493.169 205.051 494.449 206.324 494.454 207.934C494.459 209.515 493.186 210.795 491.454 210.8ZM494.24 227.841L488.77 227.857L488.723 212.358L494.194 212.342L494.24 227.841ZM503.216 228.239C498.992 228.252 496.584 226.01 496.301 222.942L501.436 222.531C501.591 223.503 502.262 224.17 503.204 224.167C504.085 224.164 504.509 223.768 504.508 223.251C504.501 221.155 496.602 221.725 496.586 216.559C496.579 214.006 498.791 211.903 503.106 211.89C507.087 211.878 509.495 214.059 509.807 216.975L504.673 217.416C504.488 216.566 504.03 215.959 503.21 215.962C502.48 215.964 502.086 216.33 502.088 216.786C502.094 218.852 509.992 217.826 510.008 223.265C510.017 226.152 507.805 228.226 503.216 228.239ZM519.092 228.192C515.475 228.203 513.159 225.93 513.147 222.01L513.132 216.996L510.792 217.003L510.779 212.596L511.964 212.593C513.028 212.589 513.694 211.919 513.691 210.855L513.683 208.302L518.576 208.288L518.588 212.269L521.688 212.26L521.702 216.97L518.602 216.979L518.614 220.93C518.618 222.328 519.349 222.994 520.565 222.991C520.93 222.99 521.385 222.927 521.719 222.774L521.734 227.789C521.279 227.942 520.338 228.188 519.092 228.192Z" fill="#F4EDE3"/>
<path d="M273.262 386.48L273.25 391.98L263.829 391.961L263.822 395.638L271.845 395.655L271.834 400.882L263.811 400.865L263.796 407.733L257.779 407.721L257.824 386.448L273.262 386.48ZM277.963 390.714C276.2 390.71 274.927 389.431 274.93 387.851C274.933 386.24 276.212 384.966 277.975 384.97C279.707 384.974 280.981 386.253 280.977 387.863C280.974 389.444 279.695 390.717 277.963 390.714ZM280.662 407.768L275.192 407.757L275.225 392.258L280.695 392.269L280.662 407.768ZM289.12 407.786L283.65 407.775L283.683 392.276L287.664 392.284L288.451 393.805L288.603 393.805C289.09 393.138 290.612 391.865 293.044 391.87C296.66 391.877 299.207 394.466 299.199 398.477L299.18 407.807L293.709 407.796L293.727 399.347C293.73 397.949 292.729 396.944 291.422 396.941C290.116 396.939 289.141 397.94 289.138 399.338L289.12 407.786ZM308.433 408.252C304.756 408.244 301.39 404.833 301.399 400.062C301.41 395.23 304.79 391.894 308.467 391.902C310.564 391.906 311.899 392.821 312.354 393.49L312.506 393.491L312.52 386.562L318.021 386.573L317.976 407.846L313.965 407.838L313.178 406.317L313.026 406.316C312.264 407.257 310.591 408.256 308.433 408.252ZM309.689 403.392C311.239 403.395 312.488 402.061 312.492 400.085C312.496 398.11 311.253 396.77 309.703 396.767C308.153 396.764 306.904 398.098 306.9 400.074C306.896 402.049 308.139 403.389 309.689 403.392ZM344.383 402.857L349.387 407.912L343.248 407.899L341.368 406.011C339.693 407.314 337.686 408.313 335.133 408.307C330.969 408.299 328.422 405.801 328.428 402.884C328.434 400.21 330.352 398.299 332.148 396.935L332.331 396.784C330.42 394.774 329.724 393.435 329.727 391.825C329.734 388.725 332.231 386.177 336.243 386.186C340.193 386.194 342.741 388.752 342.735 391.7C342.731 393.493 341.755 395.284 339.471 397.163L339.076 397.497L341.35 399.781L342.875 397.383L348.041 397.394L344.383 402.857ZM336.234 390.44C335.261 390.438 334.591 391.106 334.589 392.017C334.588 392.777 335.133 393.477 336.195 394.604C337.047 393.907 337.839 392.966 337.841 391.963C337.843 391.112 337.176 390.442 336.234 390.44ZM335.659 403.902C336.57 403.904 337.391 403.602 338.335 402.905L335.181 399.707L334.998 399.889C334.359 400.465 333.567 401.284 333.565 402.287C333.563 403.29 334.413 403.899 335.659 403.902ZM363.504 408.367C359.28 408.358 356.884 406.104 356.617 403.034L361.753 402.65C361.903 403.622 362.57 404.292 363.512 404.294C364.394 404.296 364.82 403.902 364.821 403.385C364.825 401.288 356.923 401.819 356.934 396.653C356.939 394.1 359.162 392.008 363.477 392.017C367.458 392.025 369.855 394.218 370.152 397.136L365.016 397.551C364.835 396.7 364.38 396.091 363.56 396.089C362.831 396.088 362.435 396.451 362.434 396.907C362.43 398.974 370.333 397.987 370.322 403.427C370.316 406.314 368.093 408.376 363.504 408.367ZM380.223 408.401C375.604 408.392 371.904 404.677 371.914 400.209C371.923 395.742 375.638 392.042 380.258 392.052C385.637 392.063 387.877 396.201 388.206 398.389L382.796 398.834C382.585 398.074 381.676 396.917 380.247 396.914C378.667 396.911 377.418 398.306 377.414 400.221C377.41 402.135 378.653 403.536 380.234 403.539C381.662 403.542 382.576 402.389 382.79 401.63L388.199 402.097C387.83 404.284 385.602 408.413 380.223 408.401ZM396.976 392.087C401.353 392.096 403.869 394.897 403.861 398.848L403.842 408.025L399.83 408.017L399.043 406.496L398.891 406.495C398.099 407.375 396.79 408.436 394.39 408.431C391.381 408.425 389.167 406.293 389.172 403.679C389.179 400.58 391.827 398.579 396.993 398.59L398.574 398.593C398.577 397.074 397.879 396.373 396.846 396.371C395.965 396.369 395.325 396.915 395.202 397.614L389.946 397.117C390.162 395.415 391.871 392.076 396.976 392.087ZM396.13 404.393C397.589 404.396 398.564 403.395 398.567 401.906L398.568 401.42L396.896 401.416C395.103 401.412 394.433 402.11 394.431 402.991C394.43 403.781 395.067 404.391 396.13 404.393ZM412.105 408.043L406.635 408.031L406.667 392.532L410.648 392.541L411.435 394.062L411.587 394.062C412.075 393.394 413.597 392.121 416.028 392.126C419.644 392.134 422.192 394.722 422.183 398.734L422.164 408.064L416.694 408.052L416.711 399.604C416.714 398.206 415.713 397.201 414.407 397.198C413.1 397.195 412.125 398.196 412.122 399.594L412.105 408.043Z" fill="#F4EDE3"/>
<path d="M268.082 620.727C261.943 620.776 257.133 615.83 257.085 609.752C257.036 603.674 261.768 598.652 267.907 598.604C275.018 598.547 277.675 604.027 278.212 606.667L272.138 607.171C271.733 605.958 270.472 604.084 267.95 604.104C265.306 604.125 263.075 606.392 263.102 609.704C263.128 613.016 265.394 615.247 268.038 615.227C270.5 615.207 271.762 613.374 272.238 612.093L278.289 612.532C277.852 614.906 275.223 620.67 268.082 620.727ZM286.217 620.158L280.747 620.201L280.579 598.929L286.049 598.885L286.217 620.158ZM296.122 604.155C300.498 604.12 303.042 606.896 303.074 610.846L303.146 620.024L299.135 620.056L298.333 618.542L298.181 618.544C297.398 619.431 296.1 620.505 293.699 620.524C290.69 620.548 288.455 618.438 288.434 615.825C288.41 612.725 291.038 610.698 296.204 610.658L297.784 610.645C297.772 609.126 297.068 608.432 296.034 608.44C295.153 608.447 294.519 608.999 294.403 609.699L289.142 609.255C289.341 607.551 291.017 604.195 296.122 604.155ZM295.399 616.469C296.858 616.457 297.822 615.446 297.81 613.957L297.807 613.471L296.135 613.484C294.342 613.499 293.679 614.203 293.686 615.084C293.692 615.874 294.335 616.477 295.399 616.469ZM308.539 602.932C306.777 602.946 305.49 601.679 305.478 600.099C305.465 598.489 306.731 597.202 308.494 597.188C310.226 597.174 311.512 598.441 311.525 600.051C311.538 601.632 310.271 602.918 308.539 602.932ZM311.409 619.958L305.939 620.002L305.816 604.503L311.286 604.46L311.409 619.958ZM332.018 603.87C335.331 603.844 337.628 606.135 337.659 610.025L337.736 619.75L332.266 619.793L332.196 610.98C332.186 609.704 331.39 608.95 330.448 608.958C329.475 608.966 328.722 609.731 328.732 611.008L328.801 619.821L323.331 619.864L323.262 611.051C323.252 609.775 322.455 609.021 321.513 609.029C320.541 609.036 319.787 609.802 319.797 611.078L319.867 619.891L314.397 619.935L314.274 604.436L318.255 604.405L319.057 605.918L319.209 605.917C319.75 605.153 320.957 603.958 323.175 603.94C325.606 603.921 326.891 605.035 327.414 605.821C328.046 605.057 329.648 603.889 332.018 603.87ZM355.079 612.987L357.714 604.092L363.305 604.048L357.412 619.746C356.043 623.312 354.174 625.242 351.226 625.265C350.223 625.273 349.34 625.067 348.822 624.859L348.786 620.3C349.182 620.449 349.517 620.507 350.033 620.503C351.431 620.492 352.066 620.062 352.425 619.33L346.257 604.183L352.213 604.136L355.079 612.987ZM371.948 619.904C367.268 619.941 363.531 616.263 363.496 611.796C363.461 607.329 367.139 603.592 371.819 603.555C376.498 603.518 380.205 607.196 380.24 611.663C380.276 616.131 376.628 619.867 371.948 619.904ZM371.91 615.042C373.52 615.029 374.785 613.621 374.77 611.707C374.755 609.792 373.468 608.404 371.857 608.417C370.216 608.43 368.981 609.838 368.996 611.752C369.011 613.667 370.269 615.055 371.91 615.042ZM388.733 619.771C385.087 619.8 382.544 617.237 382.512 613.226L382.438 603.896L387.908 603.853L387.975 612.301C387.986 613.699 388.997 614.694 390.273 614.684C391.58 614.674 392.575 613.663 392.564 612.265L392.497 603.817L397.967 603.773L398.09 619.272L394.079 619.304L393.307 617.79L393.155 617.791C392.674 618.464 391.165 619.752 388.733 619.771ZM406.523 619.205L401.053 619.248L400.931 603.75L404.912 603.718L405.714 605.232L405.866 605.23C406.256 604.68 407.4 603.273 409.436 603.257C409.983 603.253 410.591 603.309 410.926 603.397L410.972 609.11C410.637 609.022 410.089 608.935 409.542 608.939C407.597 608.955 406.451 610.088 406.467 612.094L406.523 619.205ZM425.902 619.051L420.432 619.095L420.31 603.596L424.29 603.565L425.093 605.078L425.245 605.077C425.635 604.527 426.779 603.12 428.815 603.104C429.362 603.099 429.97 603.155 430.305 603.244L430.351 608.957C430.016 608.868 429.468 608.781 428.921 608.786C426.976 608.801 425.83 609.935 425.846 611.94L425.902 619.051ZM447.685 610.825C447.691 611.676 447.606 612.346 447.517 612.65L436.577 612.737C437.075 614.222 438.205 615.003 439.634 614.992C441.001 614.981 441.786 614.245 442.026 613.909L447.317 614.293C446.485 616.64 443.953 619.334 439.699 619.368C435.049 619.405 431.343 615.757 431.307 611.259C431.272 606.792 434.95 603.055 439.569 603.018C444.34 602.981 447.651 606.571 447.685 610.825ZM439.512 607.304C438.053 607.316 436.844 608.146 436.462 609.729L442.54 609.681C442.286 608.315 441.123 607.291 439.512 607.304ZM464.654 611.815L466.805 603.228L472.397 603.184L467.323 618.723L462.643 618.76L460.182 611.213L457.781 618.799L453.101 618.836L447.781 603.379L453.555 603.333L455.841 611.824L458.418 603.295L461.943 603.267L464.654 611.815ZM480.029 602.698C484.405 602.663 486.95 605.439 486.981 609.39L487.054 618.567L483.042 618.599L482.24 617.086L482.088 617.087C481.305 617.974 480.007 619.048 477.606 619.067C474.597 619.091 472.362 616.982 472.342 614.368C472.317 611.268 474.945 609.242 480.111 609.201L481.691 609.188C481.679 607.669 480.975 606.976 479.942 606.984C479.06 606.991 478.426 607.543 478.31 608.243L473.049 607.798C473.249 606.095 474.924 602.738 480.029 602.698ZM479.306 615.012C480.765 615 481.729 613.99 481.718 612.501L481.714 612.015L480.042 612.028C478.249 612.042 477.586 612.746 477.593 613.628C477.6 614.418 478.243 615.02 479.306 615.012ZM495.316 618.502L489.846 618.545L489.724 603.047L493.705 603.015L494.507 604.528L494.659 604.527C495.049 603.977 496.193 602.57 498.229 602.554C498.776 602.549 499.384 602.605 499.719 602.694L499.765 608.407C499.43 608.319 498.882 608.232 498.335 608.236C496.39 608.251 495.244 609.385 495.26 611.391L495.316 618.502ZM507.836 618.828C504.159 618.857 500.759 615.48 500.721 610.709C500.683 605.877 504.03 602.508 507.707 602.479C509.804 602.462 511.148 603.363 511.609 604.028L511.761 604.027L511.706 597.098L517.207 597.055L517.375 618.327L513.364 618.359L512.562 616.846L512.41 616.847C511.658 617.795 509.994 618.811 507.836 618.828ZM509.044 613.956C510.594 613.944 511.829 612.597 511.813 610.621C511.798 608.646 510.541 607.319 508.991 607.331C507.442 607.343 506.206 608.69 506.222 610.666C506.238 612.641 507.494 613.968 509.044 613.956Z" fill="#F4EDE3"/>
<path d="M262.78 650.396H260.46V638.616H256.3V636.396H266.94V638.616H262.78V650.396ZM270.615 650.396H268.415V636.396H270.615V641.396H270.715C271.015 640.956 272.055 640.036 273.535 640.036C275.775 640.036 277.455 641.776 277.455 644.456V650.396H275.275V644.616C275.275 643.116 274.295 642.076 272.955 642.076C271.575 642.076 270.615 643.116 270.615 644.616V650.396ZM289.156 645.116C289.156 645.596 289.096 645.976 289.036 646.196H281.536C281.816 647.736 282.896 648.656 284.336 648.656C285.476 648.656 286.156 648.116 286.516 647.596H288.796C288.236 649.056 286.576 650.636 284.356 650.636C281.556 650.636 279.336 648.336 279.336 645.336C279.336 642.376 281.616 640.036 284.336 640.036C287.036 640.036 289.156 642.236 289.156 645.116ZM284.336 642.016C282.956 642.016 281.816 642.996 281.536 644.536H287.016C286.776 643.036 285.696 642.016 284.336 642.016ZM306.079 640.036C308.139 640.036 309.619 641.576 309.619 644.276V650.396H307.419V644.336C307.419 642.896 306.639 642.076 305.599 642.076C304.559 642.076 303.739 642.936 303.739 644.336V650.396H301.539V644.336C301.539 642.896 300.739 642.076 299.719 642.076C298.679 642.076 297.859 642.936 297.859 644.336V650.396H295.659V640.276H297.299L297.699 641.396H297.799C298.059 640.996 298.919 640.036 300.259 640.036C301.859 640.036 302.739 641.016 303.099 641.656C303.559 640.976 304.579 640.036 306.079 640.036ZM316.505 650.636C313.765 650.636 311.485 648.276 311.485 645.336C311.485 642.376 313.765 640.036 316.505 640.036C319.245 640.036 321.525 642.376 321.525 645.336C321.525 648.276 319.245 650.636 316.505 650.636ZM316.505 648.596C318.065 648.596 319.345 647.256 319.345 645.336C319.345 643.416 318.065 642.076 316.505 642.076C314.945 642.076 313.665 643.416 313.665 645.336C313.665 647.256 314.945 648.596 316.505 648.596ZM325.71 650.396H323.51V640.276H325.15L325.55 641.396H325.65C325.93 640.996 326.85 640.036 328.15 640.036C328.51 640.036 328.73 640.056 328.99 640.116V642.316C328.71 642.256 328.45 642.236 328.09 642.236C326.69 642.236 325.71 643.176 325.71 644.796V650.396ZM339.332 645.116C339.332 645.596 339.272 645.976 339.212 646.196H331.712C331.992 647.736 333.072 648.656 334.512 648.656C335.652 648.656 336.332 648.116 336.692 647.596H338.972C338.412 649.056 336.752 650.636 334.532 650.636C331.732 650.636 329.512 648.336 329.512 645.336C329.512 642.376 331.792 640.036 334.512 640.036C337.212 640.036 339.332 642.236 339.332 645.116ZM334.512 642.016C333.132 642.016 331.992 642.996 331.712 644.536H337.192C336.952 643.036 335.872 642.016 334.512 642.016ZM349.284 647.456L351.884 640.276H354.144L349.944 650.956C348.984 653.376 348.024 654.096 346.744 654.096C346.284 654.096 345.904 653.996 345.664 653.896V651.896C345.864 651.996 346.084 652.036 346.344 652.036C347.104 652.036 347.604 651.716 347.964 650.776L348.204 650.136L344.224 640.276H346.584L349.284 647.456ZM359.61 650.636C356.87 650.636 354.59 648.276 354.59 645.336C354.59 642.376 356.87 640.036 359.61 640.036C362.35 640.036 364.63 642.376 364.63 645.336C364.63 648.276 362.35 650.636 359.61 650.636ZM359.61 648.596C361.17 648.596 362.45 647.256 362.45 645.336C362.45 643.416 361.17 642.076 359.61 642.076C358.05 642.076 356.77 643.416 356.77 645.336C356.77 647.256 358.05 648.596 359.61 648.596ZM370.576 650.636C368.196 650.636 366.516 648.896 366.516 646.216V640.276H368.716V646.056C368.716 647.556 369.676 648.596 371.016 648.596C372.396 648.596 373.376 647.556 373.376 646.056V640.276H375.556V650.396H373.916L373.516 649.256H373.416C373.096 649.696 372.076 650.636 370.576 650.636ZM385.39 640.236V640.276H391.21V650.396H389.01V642.176H385.45V650.396H383.27V642.176H381.89V640.276H383.27V640.216C383.27 637.636 384.93 636.076 387.91 636.076C388.75 636.076 389.47 636.216 390.11 636.476V638.336C389.45 638.096 388.63 638.016 388.03 638.016C386.33 638.016 385.39 638.836 385.39 640.236ZM395.847 650.396H393.647V640.276H395.287L395.687 641.396H395.787C396.107 640.956 397.127 640.036 398.627 640.036C401.007 640.036 402.687 641.776 402.687 644.456V650.396H400.507V644.616C400.507 643.116 399.527 642.076 398.187 642.076C396.807 642.076 395.847 643.116 395.847 644.616V650.396ZM409.231 650.636C406.731 650.636 404.571 648.416 404.571 645.336C404.571 642.256 406.731 640.036 409.231 640.036C410.771 640.036 411.871 640.976 412.091 641.336H412.191V636.396H414.391V650.396H412.751L412.351 649.256H412.251C411.971 649.636 410.851 650.636 409.231 650.636ZM409.471 648.596C410.931 648.596 412.191 647.276 412.191 645.336C412.191 643.396 410.931 642.076 409.471 642.076C408.011 642.076 406.751 643.396 406.751 645.336C406.751 647.276 408.011 648.596 409.471 648.596ZM417.865 647.856C418.685 647.856 419.285 648.456 419.285 649.416C419.285 651.316 417.905 652.736 417.245 653.276L416.805 652.716C417.105 652.336 417.625 651.656 417.765 650.636C417.025 650.576 416.485 649.976 416.485 649.236C416.485 648.456 417.085 647.856 417.865 647.856ZM429.694 650.636C427.854 650.636 426.514 649.336 426.514 647.116V642.256H424.854V640.396H425.574C426.374 640.396 426.794 639.976 426.794 639.196V637.676H428.694V640.276H430.894V642.256H428.694V646.936C428.694 648.056 429.294 648.576 430.194 648.576C430.454 648.576 430.694 648.536 430.894 648.436V650.436C430.634 650.536 430.234 650.636 429.694 650.636ZM435.166 650.396H432.966V636.396H435.166V641.396H435.266C435.566 640.956 436.606 640.036 438.086 640.036C440.326 640.036 442.006 641.776 442.006 644.456V650.396H439.826V644.616C439.826 643.116 438.846 642.076 437.506 642.076C436.126 642.076 435.166 643.116 435.166 644.616V650.396ZM453.707 645.116C453.707 645.596 453.647 645.976 453.587 646.196H446.087C446.367 647.736 447.447 648.656 448.887 648.656C450.027 648.656 450.707 648.116 451.067 647.596H453.347C452.787 649.056 451.127 650.636 448.907 650.636C446.107 650.636 443.887 648.336 443.887 645.336C443.887 642.376 446.167 640.036 448.887 640.036C451.587 640.036 453.707 642.236 453.707 645.116ZM448.887 642.016C447.507 642.016 446.367 642.996 446.087 644.536H451.567C451.327 643.036 450.247 642.016 448.887 642.016ZM465.469 650.636C463.829 650.636 462.729 649.636 462.449 649.256H462.349L461.949 650.396H460.309V636.396H462.509V641.336H462.609C462.829 640.976 463.929 640.036 465.469 640.036C467.969 640.036 470.129 642.256 470.129 645.336C470.129 648.416 467.969 650.636 465.469 650.636ZM465.229 648.596C466.689 648.596 467.949 647.276 467.949 645.336C467.949 643.396 466.689 642.076 465.229 642.076C463.769 642.076 462.509 643.396 462.509 645.336C462.509 647.276 463.769 648.596 465.229 648.596ZM481.344 645.116C481.344 645.596 481.284 645.976 481.224 646.196H473.724C474.004 647.736 475.084 648.656 476.524 648.656C477.664 648.656 478.344 648.116 478.704 647.596H480.984C480.424 649.056 478.764 650.636 476.544 650.636C473.744 650.636 471.524 648.336 471.524 645.336C471.524 642.376 473.804 640.036 476.524 640.036C479.224 640.036 481.344 642.236 481.344 645.116ZM476.524 642.016C475.144 642.016 474.004 642.996 473.724 644.536H479.204C478.964 643.036 477.884 642.016 476.524 642.016ZM486.96 650.636C485.12 650.636 483.78 649.336 483.78 647.116V642.256H482.12V640.396H482.84C483.64 640.396 484.06 639.976 484.06 639.196V637.676H485.96V640.276H488.16V642.256H485.96V646.936C485.96 648.056 486.56 648.576 487.46 648.576C487.72 648.576 487.96 648.536 488.16 648.436V650.436C487.9 650.536 487.5 650.636 486.96 650.636ZM493.991 650.636C492.151 650.636 490.811 649.336 490.811 647.116V642.256H489.151V640.396H489.871C490.671 640.396 491.091 639.976 491.091 639.196V637.676H492.991V640.276H495.191V642.256H492.991V646.936C492.991 648.056 493.591 648.576 494.491 648.576C494.751 648.576 494.991 648.536 495.191 648.436V650.436C494.931 650.536 494.531 650.636 493.991 650.636ZM506.207 645.116C506.207 645.596 506.147 645.976 506.087 646.196H498.587C498.867 647.736 499.947 648.656 501.387 648.656C502.527 648.656 503.207 648.116 503.567 647.596H505.847C505.287 649.056 503.627 650.636 501.407 650.636C498.607 650.636 496.387 648.336 496.387 645.336C496.387 642.376 498.667 640.036 501.387 640.036C504.087 640.036 506.207 642.236 506.207 645.116ZM501.387 642.016C500.007 642.016 498.867 642.996 498.587 644.536H504.067C503.827 643.036 502.747 642.016 501.387 642.016ZM510.359 650.396H508.159V640.276H509.799L510.199 641.396H510.299C510.579 640.996 511.499 640.036 512.799 640.036C513.159 640.036 513.379 640.056 513.639 640.116V642.316C513.359 642.256 513.099 642.236 512.739 642.236C511.339 642.236 510.359 643.176 510.359 644.796V650.396ZM258.38 658.856C257.66 658.856 257.08 658.296 257.08 657.576C257.08 656.836 257.66 656.276 258.38 656.276C259.1 656.276 259.66 656.836 259.66 657.576C259.66 658.296 259.1 658.856 258.38 658.856ZM259.48 670.396H257.28V660.276H259.48V670.396ZM265.886 670.636C264.046 670.636 262.706 669.336 262.706 667.116V662.256H261.046V660.396H261.766C262.566 660.396 262.986 659.976 262.986 659.196V657.676H264.886V660.276H267.086V662.256H264.886V666.936C264.886 668.056 265.486 668.576 266.386 668.576C266.646 668.576 266.886 668.536 267.086 668.436V670.436C266.826 670.536 266.426 670.636 265.886 670.636ZM277.617 674.196C274.617 674.196 273.337 672.196 273.057 671.016H275.297C275.577 671.676 276.357 672.216 277.577 672.216C279.097 672.216 280.077 671.316 280.077 669.816V668.716H279.977C279.717 669.096 278.697 670.036 277.217 670.036C274.737 670.036 272.637 667.856 272.637 665.036C272.637 662.196 274.737 660.036 277.217 660.036C278.797 660.036 279.837 661.016 280.117 661.396H280.217L280.637 660.276H282.277V669.796C282.277 672.476 280.477 674.196 277.617 674.196ZM277.457 668.056C278.857 668.056 280.077 666.776 280.077 665.036C280.077 663.276 278.857 662.016 277.457 662.016C276.017 662.016 274.817 663.276 274.817 665.036C274.817 666.776 276.017 668.056 277.457 668.056ZM294.059 665.116C294.059 665.596 293.999 665.976 293.939 666.196H286.439C286.719 667.736 287.799 668.656 289.239 668.656C290.379 668.656 291.059 668.116 291.419 667.596H293.699C293.139 669.056 291.479 670.636 289.259 670.636C286.459 670.636 284.239 668.336 284.239 665.336C284.239 662.376 286.519 660.036 289.239 660.036C291.939 660.036 294.059 662.236 294.059 665.116ZM289.239 662.016C287.859 662.016 286.719 662.996 286.439 664.536H291.919C291.679 663.036 290.599 662.016 289.239 662.016ZM299.675 670.636C297.835 670.636 296.495 669.336 296.495 667.116V662.256H294.835V660.396H295.555C296.355 660.396 296.775 659.976 296.775 659.196V657.676H298.675V660.276H300.875V662.256H298.675V666.936C298.675 668.056 299.275 668.576 300.175 668.576C300.435 668.576 300.675 668.536 300.875 668.436V670.436C300.615 670.536 300.215 670.636 299.675 670.636ZM306.011 670.636C303.631 670.636 302.091 669.116 301.991 667.316H304.151C304.231 668.196 304.931 668.816 306.011 668.816C307.111 668.816 307.651 668.256 307.651 667.616C307.651 665.596 302.251 666.516 302.251 663.016C302.251 661.356 303.591 660.036 305.911 660.036C308.151 660.036 309.591 661.476 309.711 663.256H307.551C307.451 662.416 306.931 661.856 305.911 661.856C304.931 661.856 304.451 662.356 304.451 662.936C304.451 664.856 309.851 663.936 309.851 667.516C309.851 669.276 308.491 670.636 306.011 670.636ZM312.651 670.636C311.851 670.636 311.251 670.016 311.251 669.236C311.251 668.456 311.851 667.856 312.651 667.856C313.451 667.856 314.051 668.456 314.051 669.236C314.051 670.016 313.451 670.636 312.651 670.636Z" fill="#F4EDE3"/>
<path d="M263.48 259.097C259.84 259.097 256.74 255.937 256.74 251.857C256.74 247.777 259.84 244.617 263.48 244.617C266.74 244.617 269 247.077 269.62 249.717H267.24C266.8 248.257 265.52 246.837 263.48 246.837C261.12 246.837 259.06 248.917 259.06 251.857C259.06 254.797 261.12 256.877 263.48 256.877C265.54 256.877 266.84 255.457 267.34 253.997H269.72C269.1 256.617 266.84 259.097 263.48 259.097ZM273.935 258.857H271.735V244.857H273.935V258.857ZM280.537 259.097C278.157 259.097 276.477 257.357 276.477 254.677V248.737H278.677V254.517C278.677 256.017 279.637 257.057 280.977 257.057C282.357 257.057 283.337 256.017 283.337 254.517V248.737H285.517V258.857H283.877L283.477 257.717H283.377C283.057 258.157 282.037 259.097 280.537 259.097ZM297.32 253.577C297.32 254.057 297.26 254.437 297.2 254.657H289.7C289.98 256.197 291.06 257.117 292.5 257.117C293.64 257.117 294.32 256.577 294.68 256.057H296.96C296.4 257.517 294.74 259.097 292.52 259.097C289.72 259.097 287.5 256.797 287.5 253.797C287.5 250.837 289.78 248.497 292.5 248.497C295.2 248.497 297.32 250.697 297.32 253.577ZM292.5 250.477C291.12 250.477 289.98 251.457 289.7 252.997H295.18C294.94 251.497 293.86 250.477 292.5 250.477ZM302.632 259.097C300.252 259.097 298.712 257.577 298.612 255.777H300.772C300.852 256.657 301.552 257.277 302.632 257.277C303.732 257.277 304.272 256.717 304.272 256.077C304.272 254.057 298.872 254.977 298.872 251.477C298.872 249.817 300.212 248.497 302.532 248.497C304.772 248.497 306.212 249.937 306.332 251.717H304.172C304.072 250.877 303.552 250.317 302.532 250.317C301.552 250.317 301.072 250.817 301.072 251.397C301.072 253.317 306.472 252.397 306.472 255.977C306.472 257.737 305.112 259.097 302.632 259.097ZM316.843 259.097C315.003 259.097 313.663 257.797 313.663 255.577V250.717H312.003V248.857H312.723C313.523 248.857 313.943 248.437 313.943 247.657V246.137H315.843V248.737H318.043V250.717H315.843V255.397C315.843 256.517 316.443 257.037 317.343 257.037C317.603 257.037 317.843 256.997 318.043 256.897V258.897C317.783 258.997 317.383 259.097 316.843 259.097ZM322.314 258.857H320.114V244.857H322.314V249.857H322.414C322.714 249.417 323.754 248.497 325.234 248.497C327.474 248.497 329.154 250.237 329.154 252.917V258.857H326.974V253.077C326.974 251.577 325.994 250.537 324.654 250.537C323.274 250.537 322.314 251.577 322.314 253.077V258.857ZM335.416 248.497C337.896 248.497 339.456 250.157 339.456 252.617V258.857H337.816L337.416 257.717H337.316C336.916 258.237 335.976 259.097 334.356 259.097C332.376 259.097 330.956 257.737 330.956 256.077C330.956 254.057 332.876 252.777 335.656 252.777H337.276V252.437C337.276 251.217 336.536 250.477 335.396 250.477C334.296 250.477 333.736 251.157 333.616 251.817H331.416C331.596 250.117 332.976 248.497 335.416 248.497ZM334.816 257.237C336.316 257.237 337.276 256.197 337.276 254.997V254.357H335.676C333.956 254.357 333.156 254.977 333.156 255.897C333.156 256.677 333.716 257.237 334.816 257.237ZM345.573 259.097C343.733 259.097 342.393 257.797 342.393 255.577V250.717H340.733V248.857H341.453C342.253 248.857 342.673 248.437 342.673 247.657V246.137H344.573V248.737H346.773V250.717H344.573V255.397C344.573 256.517 345.173 257.037 346.073 257.037C346.333 257.037 346.573 256.997 346.773 256.897V258.897C346.513 258.997 346.113 259.097 345.573 259.097ZM355.595 258.857H353.395V244.857H355.595V258.857ZM367.477 253.577C367.477 254.057 367.417 254.437 367.357 254.657H359.857C360.137 256.197 361.217 257.117 362.657 257.117C363.797 257.117 364.477 256.577 364.837 256.057H367.117C366.557 257.517 364.897 259.097 362.677 259.097C359.877 259.097 357.657 256.797 357.657 253.797C357.657 250.837 359.937 248.497 362.657 248.497C365.357 248.497 367.477 250.697 367.477 253.577ZM362.657 250.477C361.277 250.477 360.137 251.457 359.857 252.997H365.337C365.097 251.497 364.017 250.477 362.657 250.477ZM373.033 248.497C375.513 248.497 377.073 250.157 377.073 252.617V258.857H375.433L375.033 257.717H374.933C374.533 258.237 373.593 259.097 371.973 259.097C369.993 259.097 368.573 257.737 368.573 256.077C368.573 254.057 370.493 252.777 373.273 252.777H374.893V252.437C374.893 251.217 374.153 250.477 373.013 250.477C371.913 250.477 371.353 251.157 371.233 251.817H369.033C369.213 250.117 370.593 248.497 373.033 248.497ZM372.433 257.237C373.933 257.237 374.893 256.197 374.893 254.997V254.357H373.293C371.573 254.357 370.773 254.977 370.773 255.897C370.773 256.677 371.333 257.237 372.433 257.237ZM383.606 259.097C381.106 259.097 378.946 256.877 378.946 253.797C378.946 250.717 381.106 248.497 383.606 248.497C385.146 248.497 386.246 249.437 386.466 249.797H386.566V244.857H388.766V258.857H387.126L386.726 257.717H386.626C386.346 258.097 385.226 259.097 383.606 259.097ZM383.846 257.057C385.306 257.057 386.566 255.737 386.566 253.797C386.566 251.857 385.306 250.537 383.846 250.537C382.386 250.537 381.126 251.857 381.126 253.797C381.126 255.737 382.386 257.057 383.846 257.057ZM400.162 248.497C402.642 248.497 404.202 250.157 404.202 252.617V258.857H402.562L402.162 257.717H402.062C401.662 258.237 400.722 259.097 399.102 259.097C397.122 259.097 395.702 257.737 395.702 256.077C395.702 254.057 397.622 252.777 400.402 252.777H402.022V252.437C402.022 251.217 401.282 250.477 400.142 250.477C399.042 250.477 398.482 251.157 398.362 251.817H396.162C396.342 250.117 397.722 248.497 400.162 248.497ZM399.562 257.237C401.062 257.237 402.022 256.197 402.022 254.997V254.357H400.422C398.702 254.357 397.902 254.977 397.902 255.897C397.902 256.677 398.462 257.237 399.562 257.237ZM411.095 259.097C408.355 259.097 406.075 256.737 406.075 253.797C406.075 250.837 408.355 248.497 411.095 248.497C413.615 248.497 415.375 250.477 415.775 252.457H413.575C413.335 251.637 412.535 250.537 411.095 250.537C409.535 250.537 408.255 251.877 408.255 253.797C408.255 255.717 409.535 257.057 411.095 257.057C412.535 257.057 413.335 255.957 413.575 255.137H415.775C415.375 257.097 413.615 259.097 411.095 259.097ZM419.831 258.857H417.631V248.737H419.271L419.671 249.857H419.771C420.051 249.457 420.971 248.497 422.271 248.497C422.631 248.497 422.851 248.517 423.111 248.577V250.777C422.831 250.717 422.571 250.697 422.211 250.697C420.811 250.697 419.831 251.637 419.831 253.257V258.857ZM428.653 259.097C425.913 259.097 423.633 256.737 423.633 253.797C423.633 250.837 425.913 248.497 428.653 248.497C431.393 248.497 433.673 250.837 433.673 253.797C433.673 256.737 431.393 259.097 428.653 259.097ZM428.653 257.057C430.213 257.057 431.493 255.717 431.493 253.797C431.493 251.877 430.213 250.537 428.653 250.537C427.093 250.537 425.813 251.877 425.813 253.797C425.813 255.717 427.093 257.057 428.653 257.057ZM439.019 259.097C436.639 259.097 435.099 257.577 434.999 255.777H437.159C437.239 256.657 437.939 257.277 439.019 257.277C440.119 257.277 440.659 256.717 440.659 256.077C440.659 254.057 435.259 254.977 435.259 251.477C435.259 249.817 436.599 248.497 438.919 248.497C441.159 248.497 442.599 249.937 442.719 251.717H440.559C440.459 250.877 439.939 250.317 438.919 250.317C437.939 250.317 437.459 250.817 437.459 251.397C437.459 253.317 442.859 252.397 442.859 255.977C442.859 257.737 441.499 259.097 439.019 259.097ZM447.983 259.097C445.603 259.097 444.063 257.577 443.963 255.777H446.123C446.203 256.657 446.903 257.277 447.983 257.277C449.083 257.277 449.623 256.717 449.623 256.077C449.623 254.057 444.223 254.977 444.223 251.477C444.223 249.817 445.563 248.497 447.883 248.497C450.123 248.497 451.563 249.937 451.683 251.717H449.523C449.423 250.877 448.903 250.317 447.883 250.317C446.903 250.317 446.423 250.817 446.423 251.397C446.423 253.317 451.823 252.397 451.823 255.977C451.823 257.737 450.463 259.097 447.983 259.097ZM462.194 259.097C460.354 259.097 459.014 257.797 459.014 255.577V250.717H457.354V248.857H458.074C458.874 248.857 459.294 248.437 459.294 247.657V246.137H461.194V248.737H463.394V250.717H461.194V255.397C461.194 256.517 461.794 257.037 462.694 257.037C462.954 257.037 463.194 256.997 463.394 256.897V258.897C463.134 258.997 462.734 259.097 462.194 259.097ZM467.666 258.857H465.466V244.857H467.666V249.857H467.766C468.066 249.417 469.106 248.497 470.586 248.497C472.826 248.497 474.506 250.237 474.506 252.917V258.857H472.326V253.077C472.326 251.577 471.346 250.537 470.006 250.537C468.626 250.537 467.666 251.577 467.666 253.077V258.857ZM486.207 253.577C486.207 254.057 486.147 254.437 486.087 254.657H478.587C478.867 256.197 479.947 257.117 481.387 257.117C482.527 257.117 483.207 256.577 483.567 256.057H485.847C485.287 257.517 483.627 259.097 481.407 259.097C478.607 259.097 476.387 256.797 476.387 253.797C476.387 250.837 478.667 248.497 481.387 248.497C484.087 248.497 486.207 250.697 486.207 253.577ZM481.387 250.477C480.007 250.477 478.867 251.457 478.587 252.997H484.067C483.827 251.497 482.747 250.477 481.387 250.477ZM503.129 248.497C505.189 248.497 506.669 250.037 506.669 252.737V258.857H504.469V252.797C504.469 251.357 503.689 250.537 502.649 250.537C501.609 250.537 500.789 251.397 500.789 252.797V258.857H498.589V252.797C498.589 251.357 497.789 250.537 496.769 250.537C495.729 250.537 494.909 251.397 494.909 252.797V258.857H492.709V248.737H494.349L494.749 249.857H494.849C495.109 249.457 495.969 248.497 497.309 248.497C498.909 248.497 499.789 249.477 500.149 250.117C500.609 249.437 501.629 248.497 503.129 248.497ZM512.916 248.497C515.396 248.497 516.956 250.157 516.956 252.617V258.857H515.316L514.916 257.717H514.816C514.416 258.237 513.476 259.097 511.856 259.097C509.876 259.097 508.456 257.737 508.456 256.077C508.456 254.057 510.376 252.777 513.156 252.777H514.776V252.437C514.776 251.217 514.036 250.477 512.896 250.477C511.796 250.477 511.236 251.157 511.116 251.817H508.916C509.096 250.117 510.476 248.497 512.916 248.497ZM512.316 257.237C513.816 257.237 514.776 256.197 514.776 254.997V254.357H513.176C511.456 254.357 510.656 254.977 510.656 255.897C510.656 256.677 511.216 257.237 512.316 257.237ZM521.709 258.857H519.509V244.857H521.709V258.857ZM526.65 258.857H524.45V244.857H526.65V258.857ZM530.131 259.097C529.331 259.097 528.731 258.477 528.731 257.697C528.731 256.917 529.331 256.317 530.131 256.317C530.931 256.317 531.531 256.917 531.531 257.697C531.531 258.477 530.931 259.097 530.131 259.097Z" fill="#F4EDE3"/>
<path d="M261.84 438.621C258.74 438.621 256.84 436.701 256.72 434.081H259.04C259.18 435.521 260.14 436.521 261.86 436.521C263.54 436.521 264.36 435.701 264.36 434.681C264.36 431.581 257.04 433.041 257.04 428.061C257.04 425.841 258.76 424.141 261.68 424.141C264.54 424.141 266.36 426.081 266.48 428.561H264.16C264.08 427.201 263.16 426.241 261.68 426.241C260.18 426.241 259.36 427.041 259.36 428.101C259.36 431.141 266.68 429.581 266.68 434.621C266.68 436.901 264.96 438.621 261.84 438.621ZM270.788 441.981H268.588V428.261H270.228L270.628 429.381H270.728C271.008 429.021 272.108 428.021 273.748 428.021C276.248 428.021 278.408 430.241 278.408 433.321C278.408 436.401 276.248 438.621 273.748 438.621C272.208 438.621 271.108 437.681 270.888 437.321H270.788V441.981ZM273.508 436.581C274.968 436.581 276.228 435.261 276.228 433.321C276.228 431.381 274.968 430.061 273.508 430.061C272.048 430.061 270.788 431.381 270.788 433.321C270.788 435.261 272.048 436.581 273.508 436.581ZM284.825 438.621C282.085 438.621 279.805 436.261 279.805 433.321C279.805 430.361 282.085 428.021 284.825 428.021C287.565 428.021 289.845 430.361 289.845 433.321C289.845 436.261 287.565 438.621 284.825 438.621ZM284.825 436.581C286.385 436.581 287.665 435.241 287.665 433.321C287.665 431.401 286.385 430.061 284.825 430.061C283.265 430.061 281.985 431.401 281.985 433.321C281.985 435.241 283.265 436.581 284.825 436.581ZM295.495 438.621C293.655 438.621 292.315 437.321 292.315 435.101V430.241H290.655V428.381H291.375C292.175 428.381 292.595 427.961 292.595 427.181V425.661H294.495V428.261H296.695V430.241H294.495V434.921C294.495 436.041 295.095 436.561 295.995 436.561C296.255 436.561 296.495 436.521 296.695 436.421V438.421C296.435 438.521 296.035 438.621 295.495 438.621ZM305.517 438.381H303.317V424.381H305.517V429.381H305.617C305.917 428.941 306.957 428.021 308.437 428.021C310.677 428.021 312.357 429.761 312.357 432.441V438.381H310.177V432.601C310.177 431.101 309.197 430.061 307.857 430.061C306.477 430.061 305.517 431.101 305.517 432.601V438.381ZM315.919 426.841C315.199 426.841 314.619 426.281 314.619 425.561C314.619 424.821 315.199 424.261 315.919 424.261C316.639 424.261 317.199 424.821 317.199 425.561C317.199 426.281 316.639 426.841 315.919 426.841ZM317.019 438.381H314.819V428.261H317.019V438.381ZM323.645 438.621C321.145 438.621 318.985 436.401 318.985 433.321C318.985 430.241 321.145 428.021 323.645 428.021C325.185 428.021 326.285 428.961 326.505 429.321H326.605V424.381H328.805V438.381H327.165L326.765 437.241H326.665C326.385 437.621 325.265 438.621 323.645 438.621ZM323.885 436.581C325.345 436.581 326.605 435.261 326.605 433.321C326.605 431.381 325.345 430.061 323.885 430.061C322.425 430.061 321.165 431.381 321.165 433.321C321.165 435.261 322.425 436.581 323.885 436.581ZM335.539 438.621C333.039 438.621 330.879 436.401 330.879 433.321C330.879 430.241 333.039 428.021 335.539 428.021C337.079 428.021 338.179 428.961 338.399 429.321H338.499V424.381H340.699V438.381H339.059L338.659 437.241H338.559C338.279 437.621 337.159 438.621 335.539 438.621ZM335.779 436.581C337.239 436.581 338.499 435.261 338.499 433.321C338.499 431.381 337.239 430.061 335.779 430.061C334.319 430.061 333.059 431.381 333.059 433.321C333.059 435.261 334.319 436.581 335.779 436.581ZM352.594 433.101C352.594 433.581 352.534 433.961 352.474 434.181H344.974C345.254 435.721 346.334 436.641 347.774 436.641C348.914 436.641 349.594 436.101 349.954 435.581H352.234C351.674 437.041 350.014 438.621 347.794 438.621C344.994 438.621 342.774 436.321 342.774 433.321C342.774 430.361 345.054 428.021 347.774 428.021C350.474 428.021 352.594 430.221 352.594 433.101ZM347.774 430.001C346.394 430.001 345.254 430.981 344.974 432.521H350.454C350.214 431.021 349.134 430.001 347.774 430.001ZM356.745 438.381H354.545V428.261H356.185L356.585 429.381H356.685C357.005 428.941 358.025 428.021 359.525 428.021C361.905 428.021 363.585 429.761 363.585 432.441V438.381H361.405V432.601C361.405 431.101 360.425 430.061 359.085 430.061C357.705 430.061 356.745 431.101 356.745 432.601V438.381ZM383.54 431.381C383.54 433.141 382.96 434.741 382 435.981L383.34 437.281L381.94 438.741L380.56 437.381C379.46 438.161 378.18 438.621 376.8 438.621C373.16 438.621 370.06 435.461 370.06 431.381C370.06 427.301 373.16 424.141 376.8 424.141C380.42 424.141 383.54 427.301 383.54 431.381ZM376.8 436.461C377.58 436.461 378.32 436.241 378.98 435.841L377.1 434.001L378.5 432.541L380.42 434.421C380.96 433.601 381.28 432.561 381.28 431.381C381.28 428.401 379.2 426.301 376.8 426.301C374.4 426.301 372.32 428.401 372.32 431.381C372.32 434.361 374.4 436.461 376.8 436.461ZM396.141 438.381H393.461L390.461 433.021H388.141V438.381H385.821V424.381H391.201C393.861 424.381 395.801 426.241 395.801 428.741C395.801 430.581 394.601 432.081 392.781 432.701L396.141 438.381ZM391.161 426.581H388.141V430.901H391.161C392.521 430.901 393.481 429.981 393.481 428.761C393.481 427.501 392.521 426.581 391.161 426.581ZM407.052 438.621C404.312 438.621 402.032 436.261 402.032 433.321C402.032 430.361 404.312 428.021 407.052 428.021C409.572 428.021 411.332 430.001 411.732 431.981H409.532C409.292 431.161 408.492 430.061 407.052 430.061C405.492 430.061 404.212 431.401 404.212 433.321C404.212 435.241 405.492 436.581 407.052 436.581C408.492 436.581 409.292 435.481 409.532 434.661H411.732C411.332 436.621 409.572 438.621 407.052 438.621ZM418.028 438.621C415.288 438.621 413.008 436.261 413.008 433.321C413.008 430.361 415.288 428.021 418.028 428.021C420.768 428.021 423.048 430.361 423.048 433.321C423.048 436.261 420.768 438.621 418.028 438.621ZM418.028 436.581C419.588 436.581 420.868 435.241 420.868 433.321C420.868 431.401 419.588 430.061 418.028 430.061C416.468 430.061 415.188 431.401 415.188 433.321C415.188 435.241 416.468 436.581 418.028 436.581ZM429.114 438.621C426.614 438.621 424.454 436.401 424.454 433.321C424.454 430.241 426.614 428.021 429.114 428.021C430.654 428.021 431.754 428.961 431.974 429.321H432.074V424.381H434.274V438.381H432.634L432.234 437.241H432.134C431.854 437.621 430.734 438.621 429.114 438.621ZM429.354 436.581C430.814 436.581 432.074 435.261 432.074 433.321C432.074 431.381 430.814 430.061 429.354 430.061C427.894 430.061 426.634 431.381 426.634 433.321C426.634 435.261 427.894 436.581 429.354 436.581ZM446.168 433.101C446.168 433.581 446.108 433.961 446.048 434.181H438.548C438.828 435.721 439.908 436.641 441.348 436.641C442.488 436.641 443.168 436.101 443.528 435.581H445.808C445.248 437.041 443.588 438.621 441.368 438.621C438.568 438.621 436.348 436.321 436.348 433.321C436.348 430.361 438.628 428.021 441.348 428.021C444.048 428.021 446.168 430.221 446.168 433.101ZM441.348 430.001C439.968 430.001 438.828 430.981 438.548 432.521H444.028C443.788 431.021 442.708 430.001 441.348 430.001ZM451.479 438.621C449.099 438.621 447.559 437.101 447.459 435.301H449.619C449.699 436.181 450.399 436.801 451.479 436.801C452.579 436.801 453.119 436.241 453.119 435.601C453.119 433.581 447.719 434.501 447.719 431.001C447.719 429.341 449.059 428.021 451.379 428.021C453.619 428.021 455.059 429.461 455.179 431.241H453.019C452.919 430.401 452.399 429.841 451.379 429.841C450.399 429.841 449.919 430.341 449.919 430.921C449.919 432.841 455.319 431.921 455.319 435.501C455.319 437.261 453.959 438.621 451.479 438.621ZM266.52 453.101C266.52 453.581 266.46 453.961 266.4 454.181H258.9C259.18 455.721 260.26 456.641 261.7 456.641C262.84 456.641 263.52 456.101 263.88 455.581H266.16C265.6 457.041 263.94 458.621 261.72 458.621C258.92 458.621 256.7 456.321 256.7 453.321C256.7 450.361 258.98 448.021 261.7 448.021C264.4 448.021 266.52 450.221 266.52 453.101ZM261.7 450.001C260.32 450.001 259.18 450.981 258.9 452.521H264.38C264.14 451.021 263.06 450.001 261.7 450.001ZM271.959 455.721L274.659 448.261H276.899L272.979 458.381H270.859L266.939 448.261H269.259L271.959 455.721ZM287.145 453.101C287.145 453.581 287.085 453.961 287.025 454.181H279.525C279.805 455.721 280.885 456.641 282.325 456.641C283.465 456.641 284.145 456.101 284.505 455.581H286.785C286.225 457.041 284.565 458.621 282.345 458.621C279.545 458.621 277.325 456.321 277.325 453.321C277.325 450.361 279.605 448.021 282.325 448.021C285.025 448.021 287.145 450.221 287.145 453.101ZM282.325 450.001C280.945 450.001 279.805 450.981 279.525 452.521H285.005C284.765 451.021 283.685 450.001 282.325 450.001ZM291.296 458.381H289.096V448.261H290.736L291.136 449.381H291.236C291.516 448.981 292.436 448.021 293.736 448.021C294.096 448.021 294.316 448.041 294.576 448.101V450.301C294.296 450.241 294.036 450.221 293.676 450.221C292.276 450.221 291.296 451.161 291.296 452.781V458.381ZM300.299 455.441L302.899 448.261H305.159L300.959 458.941C299.999 461.361 299.039 462.081 297.759 462.081C297.299 462.081 296.919 461.981 296.679 461.881V459.881C296.879 459.981 297.099 460.021 297.359 460.021C298.119 460.021 298.619 459.701 298.979 458.761L299.219 458.121L295.239 448.261H297.599L300.299 455.441ZM315.378 455.141L317.498 448.261H319.678L316.338 458.381H314.518L312.458 451.961L310.438 458.381H308.618L305.278 448.261H307.538L309.638 455.101L311.818 448.261H313.198L315.378 455.141ZM323.291 458.381H321.091V444.381H323.291V449.381H323.391C323.691 448.941 324.731 448.021 326.211 448.021C328.451 448.021 330.131 449.761 330.131 452.441V458.381H327.951V452.601C327.951 451.101 326.971 450.061 325.631 450.061C324.251 450.061 323.291 451.101 323.291 452.601V458.381ZM341.832 453.101C341.832 453.581 341.772 453.961 341.712 454.181H334.212C334.492 455.721 335.572 456.641 337.012 456.641C338.152 456.641 338.832 456.101 339.192 455.581H341.472C340.912 457.041 339.252 458.621 337.032 458.621C334.232 458.621 332.012 456.321 332.012 453.321C332.012 450.361 334.292 448.021 337.012 448.021C339.712 448.021 341.832 450.221 341.832 453.101ZM337.012 450.001C335.632 450.001 334.492 450.981 334.212 452.521H339.692C339.452 451.021 338.372 450.001 337.012 450.001ZM345.984 458.381H343.784V448.261H345.424L345.824 449.381H345.924C346.204 448.981 347.124 448.021 348.424 448.021C348.784 448.021 349.004 448.041 349.264 448.101V450.301C348.984 450.241 348.724 450.221 348.364 450.221C346.964 450.221 345.984 451.161 345.984 452.781V458.381ZM359.606 453.101C359.606 453.581 359.546 453.961 359.486 454.181H351.986C352.266 455.721 353.346 456.641 354.786 456.641C355.926 456.641 356.606 456.101 356.966 455.581H359.246C358.686 457.041 357.026 458.621 354.806 458.621C352.006 458.621 349.786 456.321 349.786 453.321C349.786 450.361 352.066 448.021 354.786 448.021C357.486 448.021 359.606 450.221 359.606 453.101ZM354.786 450.001C353.406 450.001 352.266 450.981 351.986 452.521H357.466C357.226 451.021 356.146 450.001 354.786 450.001ZM362.006 458.621C361.206 458.621 360.606 458.001 360.606 457.221C360.606 456.441 361.206 455.841 362.006 455.841C362.806 455.841 363.406 456.441 363.406 457.221C363.406 458.001 362.806 458.621 362.006 458.621Z" fill="#F4EDE3"/>
<path d="M224.107 273.751C224.107 273.751 226.466 255.266 222.493 243.637C218.52 232.007 210.857 212.401 207.64 206.589C204.423 200.777 199.428 191.835 194.474 188.057C189.522 184.278 171.886 174.93 168.432 174.247C164.979 173.564 158.971 171.175 154.279 174.247C149.588 177.319 123.404 194.138 123.404 194.138C123.404 194.138 100.6 209.529 100.6 214.094C100.6 218.659 93.0362 229.95 95.6417 237.864C98.2472 245.775 99.4549 259.773 103.227 264.591C107.001 269.409 114.565 280.991 121.904 284.374C129.243 287.757 140.324 296.216 146.114 296.272C151.904 296.328 174.194 295.012 180.422 292.668C186.649 290.324 224.103 273.751 224.103 273.751H224.107Z" fill="#F7EEE3"/>
<path d="M130.179 203.924L134.532 273.21H191.484L193.297 207.19L130.179 203.924Z" fill="#461617"/>
<path d="M135.547 216.189L140.391 268.684H187.074L186.405 219.99L135.547 216.189Z" fill="#F26323"/>
<path d="M157.48 230.869H177.931" stroke="#F7EEE3" stroke-width="4.32091" stroke-miterlimit="10"/>
<path d="M147.1 241.811V249.016L152.572 249.614L153.691 241.811H147.1Z" fill="#F7EEE3"/>
<path d="M158.193 246.481L175.086 246.396" stroke="#F7EEE3" stroke-width="4.32091" stroke-miterlimit="10"/>
<path d="M147.1 255.088L148.264 262.775H153.691L153.039 255.088H147.1Z" fill="#F7EEE3"/>
<path d="M158.193 259.373L173.753 259.531" stroke="#F7EEE3" stroke-width="4.32091" stroke-miterlimit="10"/>
<path d="M146.16 201.686V210.288C146.16 211.362 147.616 212.25 149.485 212.317L172.092 213.125C174.131 213.199 175.857 212.27 175.857 211.096V203.222L146.16 201.686Z" fill="#F26323"/>
<path d="M154.277 219.861L148.957 234.669L142.673 230.657L140.469 229.458" stroke="#F7EEE3" stroke-width="4.32091" stroke-miterlimit="10"/>
<path d="M131.133 369.869L175.424 367.717C175.424 367.717 194.155 369.575 202.03 373.725C209.905 377.873 233.769 388.697 236.554 401.04C239.339 413.382 238.008 436.875 238.008 436.875L235.731 450.776L215.963 471.894C215.963 471.894 188.493 487.631 185.479 488.368C182.463 489.104 165.3 491.982 158.391 490.582C151.48 489.18 144.443 486.898 140.47 482.603C136.495 478.308 121.4 459.923 121.4 459.923L108.096 431.139L111.481 401.059L121.588 383.257L131.133 369.871V369.869Z" fill="#F7EEE3"/>
<path d="M195.847 435.776C200.01 426.989 203.962 417.235 200.019 408.217C196.702 400.632 189.61 394.554 180.11 392.258C168.409 389.43 156.146 394.675 150.674 403.127C141.03 418.026 153.813 435.627 160.26 448.985C162.682 454.001 175.26 475.867 175.26 475.867C175.26 475.867 186.386 456.59 192.15 443.592C193.25 441.112 194.557 438.489 195.843 435.776H195.847Z" fill="#F26323"/>
<path d="M194.211 420.346C194.311 425.942 192.101 431.615 187 435.733C179.568 441.733 169.165 441.206 161.988 434.806C154.096 427.77 152.662 415.055 159.452 406.831C171.222 392.574 193.907 403.095 194.211 420.346Z" fill="#F7EEE3"/>
<path d="M177.954 423.011H171.795C171.795 422.6 171.832 422.062 171.873 421.529C171.901 421.166 171.931 420.801 171.931 420.522C171.931 418.338 171.935 416.296 171.972 414.112C172.011 411.496 172.11 408.843 172.266 406.229L178.412 406.594C178.263 409.117 178.168 411.679 178.129 414.209C178.097 416.361 178.09 418.375 178.09 420.524C178.09 420.935 178.054 421.468 178.013 422.004C177.984 422.369 177.954 422.734 177.954 423.015V423.011Z" fill="#461617"/>
<path d="M171.103 432.883C171.103 432.652 171.129 432.371 171.166 432.088C171.17 432.052 171.177 432.088 171.181 432.136C170.978 430.027 171.028 427.893 171.328 425.795L177.423 426.672C177.187 428.308 177.153 429.969 177.317 431.615C177.367 432.123 177.31 432.568 177.274 432.862L171.101 432.883H171.103Z" fill="#461617"/>
<path d="M153.966 409.049L136.663 399.885" stroke="#461617" stroke-width="4.32091" stroke-linejoin="bevel"/>
<path d="M150.871 382.807L155.697 391.833" stroke="#461617" stroke-width="4.32091" stroke-linejoin="bevel"/>
<path d="M107.878 596.598C107.878 596.598 96.6671 614.808 96.2004 621.088C95.7316 627.369 96.7967 640.662 100.178 646.595C103.559 652.525 103.287 662.766 111.518 666.672C119.752 670.576 125.068 674.463 131.6 677.384C138.131 680.304 154.148 686.725 160.152 688.013C166.154 689.301 179.685 691.904 185.077 687.981C190.47 684.057 203.428 670.012 206.129 666.825C208.829 663.637 224.711 646.387 227.144 637.491C229.576 628.594 226.895 614.015 224.16 610.824C221.425 607.631 210.793 592.637 205.148 591.51C199.501 590.382 188.795 578.236 184.377 577.968C179.959 577.7 165.676 577.3 159.1 578.877C152.524 580.455 107.88 596.6 107.88 596.6L107.878 596.598Z" fill="#F7EEE3"/>
<path d="M177.202 672.345L133.606 666.758L136.458 622.346H171.907L177.202 672.345Z" fill="#F26323"/>
<path d="M177.202 672.345L191.057 658.609L182.908 622.346H171.907L177.202 672.345Z" fill="#461617"/>
<path d="M186.168 622.632L132.384 623.161L130.8 614.482L186.168 615.012V622.632Z" fill="#461617"/>
<path d="M161.664 615.254L142.596 599.029L141.838 605.26L137.517 607.84L156.881 617.38" fill="#461617"/>
<path d="M155.406 644.788H159.376V642.91C159.376 641.748 158.434 640.864 157.272 640.864H155.406C155.406 640.322 155.406 637.297 155.406 637.297C155.406 637.297 155.406 634.968 155.406 634.366C153.869 634.366 152.13 634.309 150.804 635.636C149.54 636.906 149.758 638.507 149.758 640.864C149.278 640.864 145.776 640.864 145.776 640.864V642.683C145.776 643.846 146.718 644.788 147.881 644.788H149.758V647.624L149.784 650.964C149.803 654.317 152.526 657.029 155.883 657.029C157.076 657.029 158.188 656.685 159.128 656.093V652.436C156.888 653.239 155.406 651.608 155.406 649.592C155.406 649.32 155.406 644.79 155.406 644.79V644.788Z" fill="#F7EEE3"/>
<path d="M151.465 600.65L160.701 620.023L167.886 599.484L160.934 595.42L154.224 597.364L151.465 600.65Z" fill="#461617"/>
<path d="M159.007 616.382L173.754 599.029L175.928 606.809L182.742 611.085L159.007 616.382Z" fill="#461617"/>
</g>
<defs>
<clipPath id="clip0_126_1740">
<rect width="575" height="690" fill="white" transform="translate(-0.000366211 0.0292969)"/>
</clipPath>
</defs>
</svg>
