<svg width="1000" height="1000" viewBox="0 0 1000 1000" fill="none" xmlns="http://www.w3.org/2000/svg">
<rect width="1000" height="1000" rx="150" fill="#411517"/>
<path d="M158.473 227.039C158.561 261.069 156.629 304.183 155.556 338.2" stroke="#F4EDE3" stroke-width="15" stroke-linejoin="bevel"/>
<path d="M226.07 225.041C227.532 251.337 230.479 272.288 233.464 298.454C235.127 312.998 242.504 326.444 241.672 341.059C240.685 358.308 243.852 376.3 237.688 392.437C231.458 408.742 216.145 421.439 209.323 437.506C206.05 445.211 205.777 456.268 205.612 464.64C205.131 489.086 206.752 516.898 205.629 541.321C204.887 557.474 204.611 574.794 204.801 593.283L206.864 623.544C206.264 640.328 211.083 653.886 211.041 670.687C210.982 692.298 207.95 701.803 207.892 723.414C206.819 723.599 203.632 723.947 202.547 723.976C191.114 724.228 179.687 725.034 168.256 725.002C162.185 724.986 156.093 722.827 150.021 722.811C150.236 719.955 150.549 716.567 150.656 713.708C151.045 702.992 149.153 690.888 151.569 680.44C153.065 673.97 151.531 678.22 152.316 671.624C154.69 651.683 151.326 631.121 153.767 611.193C154.67 603.845 154.562 586.983 156.113 579.742C159.828 562.398 157.51 543.658 157.553 525.921C157.555 525.637 157.194 517.643 157.22 517.357C159.385 494.696 161.098 474.486 161.122 451.719C161.13 444.131 155.904 433.371 151.761 427.015C148.618 422.195 143.792 419.299 140.373 414.663C131.513 402.666 127.085 387.827 125.7 372.972C124.31 358.123 125.798 343.156 127.826 328.376C129.564 315.715 134.142 307.383 132.85 294.671C131 276.439 137.588 263.537 139.021 245.263C139.511 239.004 140.002 232.745 140.493 226.48" stroke="#F4EDE3" stroke-width="15" stroke-linejoin="bevel"/>
<path d="M178.701 338.217C179.723 330.147 180.11 321.999 179.865 313.87C179.634 306.15 180.503 295.078 180.652 287.359C180.938 272.224 180.629 260.445 180.667 245.311C180.677 242.465 181.459 230.487 181.337 227.64" stroke="#F4EDE3" stroke-width="15" stroke-linejoin="bevel"/>
<path d="M203.099 336.487C204.089 300.845 204.37 261.555 203.916 225.898" stroke="#F4EDE3" stroke-width="15" stroke-linejoin="bevel"/>
<path d="M303.929 563.114L303.025 695.049L305.116 756.997C305.116 756.997 329.979 801.987 355.156 803.672C380.333 805.357 468.936 807.477 468.936 807.477L579.753 804.718C579.753 804.718 647.845 789.072 651.494 769.96C655.143 750.847 660.295 661.245 660.295 661.245L654.515 549.914C654.515 549.914 639.179 508.508 562.642 509.004C497.612 509.408 389.678 508.056 358.697 507.64C353.208 507.568 350.132 507.53 350.132 507.53C350.132 507.53 309.801 514.834 303.929 563.131L303.929 563.114Z" stroke="#F4EDE3" stroke-width="15" stroke-miterlimit="10"/>
<path d="M356.264 505.549C356.264 505.549 310.452 484.33 304.663 456.093C298.874 427.857 305.398 348.836 305.398 348.836L303.271 272.271C303.271 272.271 319.36 231.08 334.51 225.15C349.66 219.22 429.25 214.718 429.25 214.718L607.005 215.936C607.005 215.936 649.726 229.316 656.555 259.582C663.384 289.848 662.282 368.906 662.282 368.906L653.108 467.54C653.108 467.54 621.584 509.084 579.298 509.066C537.012 509.048 356.23 505.549 356.23 505.549L356.264 505.549Z" stroke="#F4EDE3" stroke-width="15" stroke-miterlimit="10"/>
<path d="M303.34 648.975L461.002 653.063L660.378 651.421" stroke="#F4EDE3" stroke-width="15" stroke-miterlimit="10"/>
<path d="M482.83 508.425L482.224 596.818L477.113 653.176" stroke="#F4EDE3" stroke-width="15" stroke-miterlimit="10"/>
<path d="M484.672 652.863L490.273 735.86L494.188 806.846" stroke="#F4EDE3" stroke-width="15" stroke-miterlimit="10"/>
<path d="M344.439 283.888C344.439 283.888 333.814 400.902 339.048 408.484C344.282 416.066 359.76 471.325 387.697 474.542C415.634 477.758 526.685 475.494 526.685 475.494C526.685 475.494 616.641 466.287 619.868 436.854C623.095 407.422 625.244 314.519 625.244 314.519C625.244 314.519 628.735 246.558 559.973 248.348C491.212 250.137 464.015 252.976 464.015 252.976L378.67 251.643C378.67 251.643 352.215 252.975 344.456 283.888L344.439 283.888Z" stroke="#F4EDE3" stroke-width="15" stroke-miterlimit="10"/>
<path d="M451.654 216.386C451.654 216.386 445.447 204.514 458.075 197.037C470.704 189.561 500.391 195.305 500.391 195.305L513.665 205.118L512.328 216.785" stroke="#F4EDE3" stroke-width="15" stroke-miterlimit="10"/>
<path d="M837.684 225.358C847.476 249.872 846.647 272.773 849.94 298.97C851.773 313.528 851.634 327.303 850.961 341.961C850.17 359.26 853.55 377.256 847.557 393.5C841.5 409.913 826.297 422.814 819.645 438.995C816.453 446.755 816.306 457.84 816.236 466.233C816.035 490.74 817.977 518.596 817.132 543.086C816.573 559.284 816.494 576.647 816.897 595.175L819.311 625.48C818.903 642.309 823.887 655.842 824.038 672.682C824.226 694.342 821.297 703.903 821.485 725.563C820.412 725.761 817.222 726.146 816.135 726.188C804.679 726.571 793.236 727.511 781.779 727.609C775.694 727.662 769.563 725.569 763.478 725.622C763.661 722.758 763.936 719.358 764.009 716.491C764.277 705.747 762.242 693.637 764.544 683.138C765.969 676.637 764.48 680.913 765.192 674.293C767.342 654.281 763.735 633.711 765.954 613.71C766.774 606.335 766.473 589.436 767.944 582.161C771.469 564.736 768.932 545.98 768.771 528.202C768.77 527.917 768.316 519.91 768.339 519.623C770.249 496.886 771.734 476.612 771.497 453.792C771.419 446.188 766.058 435.463 761.833 429.14C758.627 424.345 753.757 421.498 750.277 416.891C741.26 404.968 736.652 390.147 735.094 375.274C733.531 360.408 730.017 346.304 731.88 331.468C733.477 318.758 732.178 311.817 730.743 299.09C728.68 280.838 729.82 272.144 731.047 253.813C731.467 247.534 736.062 235.08 736.483 228.801C736.483 228.801 744.645 215.159 772.788 204.477C800.931 193.794 826.05 196.184 837.701 225.351L837.684 225.358Z" stroke="#F4EDE3" stroke-width="15" stroke-linejoin="bevel"/>
</svg>
