<svg width="33" height="54" viewBox="0 0 33 54" fill="none" xmlns="http://www.w3.org/2000/svg">
<path d="M18.0411 52.9701C17.3693 52.8392 16.725 52.6747 16.1829 52.5288L5.29669 49.6193C4.29097 49.3501 2.77453 48.9462 1.81202 47.7308C0.527362 46.1077 0.975223 44.0097 1.21487 42.8841C2.7981 35.457 4.5699 27.9438 6.28277 20.6775L6.67171 19.0246C7.04099 17.4614 7.50064 16.0665 8.08208 14.7538C8.53779 13.7291 9.21744 12.4314 10.4432 11.4965C11.2721 10.8682 12.2857 10.4419 13.5468 10.1951C14.3678 10.0343 15.2282 10.038 16.1004 10.21L29.4537 12.8391C29.9684 12.94 30.4162 13.0784 30.8248 13.2616C31.2844 13.4711 31.6577 13.7142 31.9602 14.0133C33.0366 15.0754 33.0091 16.5863 32.9973 17.2332C32.9305 21.0814 31.9759 24.8174 31.0526 28.4263C30.6126 30.1503 30.1569 31.9379 29.8112 33.6843C29.5048 35.2326 29.273 36.8407 29.0491 38.4001C28.6012 41.4854 28.1376 44.6754 27.0887 47.7495C26.5583 49.3052 25.7097 51.2349 23.8476 52.3419C21.8479 53.5311 19.5733 53.2693 18.0332 52.9701H18.0411Z" fill="#411517"/>
<path d="M15.7971 11.6789C15.1607 11.5517 14.5007 11.5367 13.8642 11.6639C12.9803 11.8359 12.1278 12.1351 11.4285 12.6699C10.5367 13.3468 9.9749 14.3415 9.53097 15.3401C8.95739 16.634 8.52917 17.984 8.2031 19.3565C6.33308 27.2885 4.45128 35.2167 2.75412 43.1861C2.4909 44.4202 2.2709 45.8301 3.06841 46.8361C3.6852 47.6139 4.73807 47.9206 5.72415 48.1824C9.35418 49.151 12.9803 50.1233 16.6103 51.0919C18.7357 51.6603 21.1557 52.1914 23.0257 51.0769C24.3929 50.2617 25.104 48.7508 25.6029 47.2886C27.1311 42.8121 27.3668 38.0402 28.2744 33.4142C29.339 28.0065 31.3347 22.7148 31.433 17.2137C31.4447 16.4508 31.3897 15.6056 30.8319 15.0558C30.6394 14.8688 30.4076 14.7305 30.1562 14.6183C29.834 14.4724 29.4883 14.3752 29.1387 14.3079L15.7971 11.6789Z" fill="#FF5900"/>
<path d="M15.9664 14.9252C15.9861 15.0486 15.9939 15.0748 16.0568 15.1832C16.0843 15.2318 16.1236 15.273 16.1629 15.3066C16.2493 15.3889 16.3475 15.4263 16.4614 15.46C16.5321 15.4824 16.6107 15.4861 16.6854 15.4787C16.7364 15.4712 16.7954 15.4637 16.8464 15.445C16.9564 15.4039 16.9996 15.3739 17.0821 15.2992C17.1646 15.2281 17.2236 15.1084 17.2432 15.0075C17.255 14.9514 17.2589 14.8915 17.255 14.8354C17.2511 14.7905 17.2393 14.7457 17.2275 14.7045C17.2275 14.6933 17.2236 14.6858 17.2196 14.6746C17.1804 14.5736 17.1175 14.4727 17.0311 14.4054C16.9879 14.368 16.9368 14.3343 16.8857 14.3119C16.7679 14.2632 16.7207 14.2595 16.5911 14.2558C16.5086 14.2632 16.43 14.2857 16.3593 14.3306C16.2886 14.3754 16.2336 14.4315 16.1982 14.5026C16.1864 14.525 16.1746 14.5475 16.1668 14.5699C16.1432 14.6297 16.1196 14.6896 16.1039 14.7494C16.0804 14.8354 16.0764 14.9252 16.0764 15.0112C16.0764 15.0374 16.0764 15.0598 16.0804 15.086C16.0843 15.1159 16.0921 15.1458 16.0961 15.1757C16.0961 15.1683 16.1039 15.2281 16.1118 15.2431L16.1668 15.3478C16.1982 15.4001 16.2454 15.4413 16.2964 15.4712C16.375 15.5198 16.3671 15.5161 16.4811 15.5497C16.4889 15.5497 16.4929 15.5535 16.5007 15.5535C16.5086 15.5535 16.5164 15.5535 16.5243 15.5535C16.5714 15.5572 16.6225 15.5647 16.6696 15.5609C16.7796 15.5535 16.8739 15.5198 16.9682 15.4674C16.98 15.46 16.9918 15.4525 17.0036 15.445C17.0468 15.4151 17.09 15.3814 17.1254 15.3403C17.1607 15.2992 17.1882 15.258 17.2196 15.2131C17.2275 15.2019 17.2354 15.187 17.2432 15.172C17.2629 15.1234 17.2825 15.071 17.2982 15.0224C17.3061 14.9888 17.3061 14.9551 17.31 14.9214C17.3179 14.8317 17.31 14.7569 17.2786 14.6709C17.2707 14.6484 17.255 14.6223 17.2432 14.6036C17.2314 14.5849 17.2197 14.5549 17.2079 14.5362C17.2079 14.5325 17.2 14.525 17.1961 14.5213C17.1686 14.4839 17.1332 14.4465 17.1018 14.4166C17.0625 14.3829 17.0114 14.353 16.9643 14.3268C16.9564 14.3231 16.9446 14.3193 16.9368 14.3156C16.8896 14.2969 16.8425 14.2819 16.7954 14.267C16.7796 14.2632 16.7639 14.2595 16.7482 14.2595C16.6971 14.2558 16.6264 14.2445 16.5714 14.252C16.4693 14.2632 16.3868 14.2857 16.2964 14.3268C16.2061 14.368 16.1432 14.4128 16.0646 14.4839C16.0529 14.4951 16.0411 14.5101 16.0293 14.525C15.9939 14.5699 15.9586 14.6148 15.935 14.6634C15.88 14.7793 15.8643 14.8691 15.8604 14.9962C15.8604 15.0187 15.8604 15.0411 15.8643 15.0635C15.8761 15.1196 15.8839 15.1795 15.9075 15.2356C15.9311 15.2917 15.9586 15.344 15.99 15.3926C16.0018 15.4113 16.0175 15.43 16.0332 15.4487C16.0686 15.4899 16.1118 15.5422 16.1589 15.5796C16.2061 15.6208 16.2611 15.6544 16.3161 15.6881C16.3357 15.6993 16.3593 15.7105 16.3789 15.7217C16.4379 15.7479 16.5007 15.7666 16.5636 15.7816C16.6264 15.7965 16.6893 15.7965 16.7521 15.7816C16.815 15.7741 16.87 15.7554 16.9211 15.718C16.9761 15.6881 17.0193 15.6432 17.0507 15.5946C17.09 15.546 17.1175 15.4936 17.1293 15.43C17.1489 15.3141 17.1332 15.187 17.0586 15.0897L16.98 15C16.9171 14.9439 16.8425 14.9102 16.7561 14.8915C16.7443 14.8915 16.7325 14.884 16.7207 14.8803L16.8425 14.9214C16.8032 14.9102 16.7718 14.8915 16.7364 14.8691L16.8386 14.9364C16.8071 14.914 16.7757 14.8878 16.7521 14.8616L16.8307 14.9514C16.8111 14.9252 16.7914 14.9027 16.7757 14.8728L16.8307 14.9775C16.815 14.9476 16.8071 14.9214 16.7993 14.8915L16.8229 15.0075C16.8189 14.9813 16.815 14.9588 16.8189 14.9327L16.8111 15.0561C16.8111 15.0299 16.8189 15.0075 16.8268 14.985L16.7836 15.1009C16.7914 15.0822 16.7993 15.0636 16.8111 15.0486L16.7404 15.1458C16.7561 15.1234 16.7718 15.1047 16.7954 15.0897L16.7011 15.1645C16.7246 15.1458 16.7482 15.1309 16.7757 15.1196L16.6657 15.172C16.6893 15.1608 16.7129 15.1533 16.7404 15.1496L16.6186 15.172C16.6421 15.1683 16.6657 15.1645 16.6893 15.1683L16.5596 15.1608C16.5832 15.1608 16.6029 15.1683 16.6264 15.172L16.5046 15.1309C16.5046 15.1309 16.5361 15.1458 16.5518 15.1533L16.4496 15.086C16.4496 15.086 16.4732 15.1047 16.485 15.1159L16.4064 15.0262C16.4064 15.0262 16.4261 15.0486 16.43 15.0598L16.375 14.9551C16.375 14.9551 16.3868 14.9813 16.3907 14.9925L16.3671 14.8766C16.3671 14.8766 16.3711 14.9102 16.3671 14.9289L16.375 14.8055C16.375 14.8279 16.3671 14.8504 16.3593 14.8691L16.4025 14.7532C16.3946 14.7756 16.3829 14.798 16.3671 14.8167L16.4379 14.7195C16.4379 14.7195 16.4104 14.7494 16.3946 14.7644L16.4889 14.6896C16.4889 14.6896 16.4654 14.7083 16.4496 14.7158L16.5596 14.6634C16.5596 14.6634 16.5321 14.6746 16.5164 14.6784L16.6382 14.6559C16.6382 14.6559 16.6146 14.6559 16.6029 14.6559L16.7325 14.6634C16.7325 14.6634 16.705 14.6597 16.6893 14.6559L16.8111 14.6971C16.8111 14.6971 16.8032 14.6971 16.7993 14.6933L17.035 14.9514V14.9401C17.0389 14.9775 17.0507 15.0187 17.0586 15.0561C17.0507 15.0075 17.0468 14.9588 17.0507 14.9102L17.0429 15.0336C17.0468 14.985 17.0586 14.9364 17.0743 14.8878L17.0311 15.0037C17.0429 14.9738 17.0546 14.9439 17.0704 14.9177C16.9407 15 16.8071 15.0822 16.6775 15.1645H16.6854C16.6421 15.1645 16.5989 15.1608 16.5557 15.157C16.5675 15.157 16.5793 15.1608 16.5911 15.1645L16.4693 15.1234C16.4693 15.1234 16.4929 15.1346 16.5007 15.1383L16.3986 15.071C16.3986 15.071 16.4221 15.0897 16.4339 15.1009L16.3554 15.0112C16.3554 15.0112 16.375 15.0336 16.3789 15.0486L16.3239 14.9439C16.3239 14.9439 16.3396 14.9738 16.3436 14.9925L16.32 14.8766C16.32 14.8766 16.3239 14.9065 16.32 14.9214L16.3279 14.798C16.3279 14.798 16.3279 14.8279 16.32 14.8392L16.3632 14.7232C16.3632 14.7232 16.3514 14.7457 16.3475 14.7569L16.4182 14.6597C16.4182 14.6597 16.4025 14.6784 16.3946 14.6858L16.4889 14.611C16.4889 14.611 16.4693 14.6223 16.4614 14.6297L16.5714 14.5774C16.5714 14.5774 16.5479 14.5849 16.5321 14.5886L16.6539 14.5662C16.6539 14.5662 16.6225 14.5662 16.6068 14.5662L16.7364 14.5736C16.7364 14.5736 16.7011 14.5699 16.6814 14.5624L16.8032 14.6036C16.8032 14.6036 16.7757 14.5923 16.76 14.5811L16.8621 14.6484C16.8621 14.6484 16.8386 14.6297 16.8268 14.6185L16.9054 14.7083C16.9054 14.7083 16.8896 14.6896 16.8818 14.6746L16.9368 14.7793C16.9368 14.7793 16.9289 14.7606 16.925 14.7494L16.9486 14.8653V14.8579C16.9486 14.798 16.9289 14.7419 16.8975 14.6896C16.8739 14.6335 16.8386 14.5886 16.7914 14.5475C16.7443 14.5026 16.6893 14.4764 16.6304 14.4615C16.5714 14.4353 16.5086 14.4278 16.4418 14.4315C16.32 14.4428 16.1982 14.4914 16.1196 14.5811C16.0411 14.6709 15.9782 14.7943 15.9979 14.914L15.9664 14.9252Z" fill="#411517"/>
<path d="M18.8492 14.6949L18.6017 14.6612C18.5389 14.9567 18.4721 15.2558 18.4092 15.5513C20.1771 15.7719 21.9293 16.0786 23.6657 16.4712C24.2629 16.6059 24.4554 15.7158 23.8582 15.5812C22.1257 15.1885 20.3696 14.8819 18.6017 14.6612C17.9967 14.5864 17.7964 15.4727 18.4092 15.5513L18.6567 15.5849C19.2617 15.6672 19.4582 14.7734 18.8492 14.6949Z" fill="#411517"/>
<path d="M14.5365 6.90934L11.8769 6.4157C12.0222 5.70515 11.9633 4.90484 11.8965 4.05966C11.814 2.99384 11.7315 1.89062 12.0262 0.75L14.6583 1.36332C14.4658 2.10752 14.5326 2.96766 14.5994 3.87268C14.674 4.84875 14.7487 5.86221 14.5365 6.90934Z" fill="#411517"/>
<path d="M5.10315 3.63471L3.02539 5.29199L6.85302 9.64044L8.93079 7.98316L5.10315 3.63471Z" fill="#411517"/>
<path d="M0.816037 11.5491L0 14.0098L4.75039 15.4373L5.56643 12.9766L0.816037 11.5491Z" fill="#411517"/>
<path d="M18.9088 31.2463L21.9495 31.8484L22.2481 30.4797C22.4327 29.6308 21.8513 28.8454 20.9634 28.6696L19.5334 28.3854C19.6199 27.989 20.1031 25.7826 20.1031 25.7826C20.1031 25.7826 20.4724 24.0847 20.5706 23.6472C19.3959 23.4153 18.072 23.1087 16.8423 23.8753C15.6716 24.6083 15.5852 25.8087 15.208 27.529C14.8427 27.458 12.1594 26.9269 12.1594 26.9269L11.8687 28.2545C11.6841 29.1035 12.2537 29.9337 13.1455 30.1094L14.5834 30.3937L14.1316 32.4617L13.6209 34.9C13.1023 37.3458 14.7562 39.7393 17.3256 40.2479C18.2409 40.4274 19.1445 40.3451 19.9617 40.0571L20.5431 37.3907C18.6966 37.6375 17.8245 36.2239 18.1466 34.7542C18.1899 34.556 18.9127 31.2501 18.9127 31.2501L18.9088 31.2463Z" fill="#F4EDE3"/>
</svg>
