<svg width="1000" height="1000" viewBox="0 0 1000 1000" fill="none" xmlns="http://www.w3.org/2000/svg">
<rect width="1000" height="1000" rx="150" fill="#8318D8"/>
<path d="M748.293 373.956L800.474 292.281L823.128 303.092C830.104 306.416 836.161 311.384 840.801 317.566L849.626 329.33L800.474 407.374L748.293 373.945V373.956Z" fill="#8318D8" stroke="#F4EDE3" stroke-width="15" stroke-linejoin="bevel"/>
<path d="M861.14 551.666L862.365 608.373L862.229 608.747C849.241 643.924 831.76 677.252 810.241 707.892L771.105 747.866L743.948 766.493C731.221 775.216 717.472 782.318 703.02 787.626C682.431 795.193 660.674 799.027 638.77 798.97L615.878 798.902L559.783 799.389L508.646 776.124L458.836 750.158L434.435 723.727C425.202 713.722 417.125 702.707 410.353 690.864L404.045 679.839C396.513 666.657 390.66 652.568 386.622 637.912L379.498 612.014C378.466 608.282 377.558 604.505 376.775 600.716L371.898 577.212C368.392 560.276 367.303 542.92 368.699 525.677C370.309 505.621 375.244 485.974 383.287 467.552L393.643 443.821L402.526 425.943C413.245 404.368 428.14 385.185 446.335 369.508L461.445 356.498L509.758 329.556L529.223 319.676C549.461 309.41 571.377 302.932 593.905 300.55C608.505 299.007 623.24 299.212 637.794 301.152L641.401 301.628C661.4 304.282 680.843 310.193 698.982 319.109L721.669 330.271L769.857 357.065L812.997 393.239L838.113 443.81L838.158 443.934C849.887 478.839 857.612 514.98 861.174 551.666H861.14Z" fill="#8318D8" stroke="#F4EDE3" stroke-width="15" stroke-miterlimit="10"/>
<path d="M808.857 551.178L809.821 595.475L809.708 595.77C799.476 623.256 785.716 649.29 768.769 673.225L737.948 704.454L716.565 719.008C706.548 725.826 695.727 731.373 684.338 735.513C668.127 741.423 650.998 744.418 633.744 744.373L615.719 744.316L571.547 744.702L531.277 726.518L492.062 706.236L472.846 685.59C465.574 677.774 459.21 669.164 453.89 659.919L448.922 651.309C442.989 641.009 438.383 630.005 435.207 618.548L429.603 598.311C428.798 595.396 428.083 592.446 427.459 589.486L423.625 571.12C420.857 557.893 420.006 544.327 421.107 530.862C422.377 515.196 426.257 499.848 432.587 485.453L440.743 466.905L447.742 452.93C456.182 436.073 467.911 421.088 482.238 408.837L494.126 398.673L532.162 377.631L547.487 369.917C563.414 361.897 580.679 356.826 598.42 354.977C609.923 353.775 621.516 353.934 632.973 355.442L635.809 355.817C651.554 357.893 666.868 362.51 681.15 369.475L699.016 378.198L736.961 399.138L770.924 427.407L790.696 466.917L790.73 467.019C799.964 494.289 806.044 522.524 808.857 551.178Z" stroke="#F4EDE3" stroke-width="15" stroke-miterlimit="10"/>
<path d="M612.973 387.535L615.219 427.238" stroke="#F4EDE3" stroke-width="15" stroke-miterlimit="10"/>
<path d="M709.395 564.098L758.172 565.629" stroke="#F4EDE3" stroke-width="15" stroke-miterlimit="10"/>
<path d="M617.512 687.008V721.039" stroke="#F4EDE3" stroke-width="15" stroke-miterlimit="10"/>
<path d="M443.953 555.422L480.253 557.691" stroke="#F4EDE3" stroke-width="15" stroke-miterlimit="10"/>
<path d="M614.096 453.328L612.973 561.093L713.932 463.537" stroke="#F4EDE3" stroke-width="15" stroke-linejoin="bevel"/>
<path d="M597.886 302.842V260.995L503.098 259.486L503.608 211.083L523.766 203.017L720.897 200L728.463 215.121L727.453 258.987L650.078 258.42L646.788 299.518" stroke="#F4EDE3" stroke-width="15" stroke-miterlimit="10"/>
<path d="M225.348 362.43L388.346 359.027" stroke="#F4EDE3" stroke-width="15" stroke-miterlimit="10"/>
<path d="M138 483.989L251.482 474.914L321.813 479.452" stroke="#F4EDE3" stroke-width="15" stroke-miterlimit="10"/>
<path d="M153.191 729.501H212.939L261.717 720.426L371.705 724.963" stroke="#F4EDE3" stroke-width="15" stroke-miterlimit="10"/>
</svg>
