<svg width="1000" height="1000" viewBox="0 0 1000 1000" fill="none" xmlns="http://www.w3.org/2000/svg">
<rect width="1000" height="1000" rx="150" fill="#CFFF00"/>
<g clip-path="url(#clip0_537_3434)">
<path d="M522.617 187.566L522.617 180.066L522.617 180.066L522.617 187.566ZM455.499 198.098L452.837 191.086L452.849 191.082L452.86 191.077L455.499 198.098ZM454.388 198.52L449.084 193.216L450.222 192.079L451.726 191.508L454.388 198.52ZM454.387 198.521L459.69 203.824L458.564 204.95L457.078 205.521L454.387 198.521ZM425.751 212.179L421.814 205.795L421.834 205.783L421.854 205.77L425.751 212.179ZM423.723 213.43L418.419 208.126L419.039 207.506L419.786 207.046L423.723 213.43ZM423.722 213.431L429.025 218.734L428.422 219.337L427.699 219.789L423.722 213.431ZM415.201 219.863L410.422 214.083L410.433 214.074L410.445 214.064L415.201 219.863ZM411.46 222.957L416.239 228.737L416.193 228.776L416.145 228.814L411.46 222.957ZM411.455 222.961L406.655 217.198L406.712 217.151L406.77 217.104L411.455 222.961ZM406.242 227.221L410.648 233.29L410.627 233.305L410.606 233.321L406.242 227.221ZM402.64 229.798L397.336 224.495L397.773 224.058L398.276 223.698L402.64 229.798ZM402.639 229.799L407.942 235.102L407.5 235.544L406.991 235.907L402.639 229.799ZM377.975 250.835L383.524 255.881L383.523 255.881L377.975 250.835ZM344.907 300.297L338.109 297.128L338.116 297.115L338.122 297.101L344.907 300.297ZM344.256 301.694L337.446 298.552L337.452 298.539L337.458 298.526L344.256 301.694ZM329.623 347.021L322.253 345.629L322.257 345.608L322.261 345.588L329.623 347.021ZM329.203 349.245L321.826 347.895L321.829 347.874L321.833 347.854L329.203 349.245ZM328.09 355.977L320.662 354.938L320.666 354.91L320.67 354.881L328.09 355.977ZM327.982 356.745L320.548 355.757L320.551 355.732L320.555 355.707L327.982 356.745ZM327.54 384.546L335.036 384.315L335.04 384.431V384.546H327.54ZM327.54 384.547L320.044 384.779L320.04 384.663V384.547H327.54ZM327.745 393.423L335.245 393.423L335.245 393.423L327.745 393.423ZM340.383 460.225L347.339 457.42L347.339 457.42L340.383 460.225ZM374.958 509.74L380.525 504.714L385.301 510.004L380.261 515.044L374.958 509.74ZM374.957 509.741L369.385 514.762L364.619 509.472L369.654 504.438L374.957 509.741ZM380.159 515.534L385.766 510.552L390.462 515.838L385.462 520.837L380.159 515.534ZM380.158 515.535L374.551 520.516L369.856 515.23L374.855 510.232L380.158 515.535ZM411.539 543.805L415.956 537.743L421.785 541.99L417.769 547.981L411.539 543.805ZM389.741 576.316L395.971 580.493L391.553 587.082L385.222 582.302L389.741 576.316ZM367.137 559.251L362.618 565.237L362.617 565.236L367.137 559.251ZM362.763 555.948L356.472 551.865L360.856 545.11L367.282 549.963L362.763 555.948ZM359.779 560.545L366.07 564.628L366.07 564.628L359.779 560.545ZM200.768 805.538L207.059 809.621L207.058 809.622L200.768 805.538ZM198.475 809.07L193.27 814.471L188.814 810.177L192.184 804.987L198.475 809.07ZM201.507 811.992L196.303 817.393L196.303 817.393L201.507 811.992ZM253.149 861.75L258.353 856.349L258.353 856.349L253.149 861.75ZM257.065 865.523L262.785 870.375L257.615 876.469L251.861 870.924L257.065 865.523ZM260.583 861.377L254.864 856.525L254.864 856.525L260.583 861.377ZM454.935 632.297L460.654 637.149L460.654 637.149L454.935 632.297ZM458.43 628.177L462.948 622.19L469.285 626.974L464.149 633.028L458.43 628.177ZM454.117 624.922L449.599 630.908L449.598 630.907L454.117 624.922ZM427.312 604.683L422.792 610.668L417.243 606.478L421.002 600.629L427.312 604.683ZM451.318 567.316L445.008 563.262L448.517 557.802L454.424 560.49L451.318 567.316ZM530.623 581.67L533.977 588.378L532.394 589.17H530.623V581.67ZM530.645 581.659L527.29 574.951L528.858 574.167L530.611 574.159L530.645 581.659ZM600.604 570.053L597.961 563.034L597.961 563.034L600.604 570.053ZM647.631 541.922H655.131V545.735L652.05 547.981L647.631 541.922ZM647.631 541.921H640.131V538.103L643.218 535.856L647.631 541.921ZM648.843 541.039H656.343V544.857L653.256 547.104L648.843 541.039ZM648.843 541.038H641.343V537.224L644.425 534.977L648.843 541.038ZM699.617 485.762H707.117V487.78L706.104 489.526L699.617 485.762ZM699.617 485.761H692.117V483.742L693.13 481.996L699.617 485.761ZM717.366 445.519L724.521 447.769L724.521 447.769L717.366 445.519ZM724.625 385.949L732.125 385.949L732.125 385.949L724.625 385.949ZM717.197 330.789L724.312 328.417L724.348 328.523L724.38 328.63L717.197 330.789ZM717.196 330.786L710.081 333.158L710.047 333.054L710.015 332.95L717.196 330.786ZM715.307 324.28L722.517 322.218L722.518 322.219L715.307 324.28ZM704.433 293.916L697.766 297.352L697.765 297.35L704.433 293.916ZM663.354 243.137L668.414 237.601L668.431 237.616L668.448 237.632L663.354 243.137ZM662.605 242.452L667.624 236.878L667.645 236.897L667.665 236.916L662.605 242.452ZM631.776 220.612L635.72 214.233L635.72 214.233L631.776 220.612ZM609.015 207.283L612.634 200.714L612.635 200.715L609.015 207.283ZM607.666 206.54L604.046 213.109L604.035 213.102L607.666 206.54ZM607.281 206.327L609.718 199.234L610.338 199.447L610.912 199.765L607.281 206.327ZM606.866 206.185L604.43 213.278L604.416 213.273L606.866 206.185ZM605.411 205.682L607.23 198.406L607.55 198.485L607.861 198.593L605.411 205.682ZM605.407 205.681L603.588 212.957L603.273 212.878L602.965 212.772L605.407 205.681ZM573.181 195.968L575.092 188.715L575.092 188.715L573.181 195.968ZM522.608 233.427L522.608 225.927L522.609 225.927L522.608 233.427ZM557.038 239.201L558.868 231.928L558.868 231.928L557.038 239.201ZM588.579 248.41L590.96 241.298L591.628 241.522L592.243 241.866L588.579 248.41ZM610.825 261.617L614.818 255.268L614.818 255.268L610.825 261.617ZM632.179 276.797L628.825 283.505L627.868 283.027L627.083 282.3L632.179 276.797ZM632.181 276.798L635.535 270.09L636.491 270.568L637.275 271.293L632.181 276.798ZM663.635 314.92L658.331 320.223L657.503 319.395L656.967 318.354L663.635 314.92ZM663.636 314.921L668.939 309.618L669.767 310.445L670.303 311.486L663.636 314.921ZM671.183 336.895L676.486 342.198L667.476 351.208L663.972 338.957L671.183 336.895ZM671.184 336.894L665.88 331.59L674.894 322.576L678.395 334.834L671.184 336.894ZM673.248 343.988L680.428 341.821L681.725 346.118L678.551 349.292L673.248 343.988ZM673.247 343.989L666.065 346.149L664.774 341.856L667.944 338.686L673.247 343.989ZM678.734 385.949L686.234 385.949L686.234 385.949L678.734 385.949ZM673.59 431.77L680.745 434.019L680.744 434.02L673.59 431.77ZM660.979 460.905L667.516 464.58L667.504 464.603L667.491 464.626L660.979 460.905ZM659.926 462.748L666.438 466.468L665.94 467.341L665.229 468.051L659.926 462.748ZM659.925 462.749L653.438 458.985L653.929 458.138L654.622 457.446L659.925 462.749ZM621.804 503.982L626.221 510.043L626.212 510.05L621.804 503.982ZM620.586 504.867L615.785 499.106L615.976 498.946L616.178 498.8L620.586 504.867ZM620.58 504.872L625.381 510.634L625.195 510.789L624.999 510.932L620.58 504.872ZM584.426 527.132L587.068 534.151L585.79 534.632H584.426V527.132ZM584.425 527.132L581.783 520.113L583.06 519.632H584.425V527.132ZM529.424 535.8L529.424 543.3H529.424V535.8ZM458.705 519.615L455.015 526.145L455.015 526.145L458.705 519.615ZM414.473 485.075L419.776 479.772L419.933 479.929L420.081 480.095L414.473 485.075ZM414.469 485.071L409.165 490.375L409.012 490.221L408.867 490.058L414.469 485.071ZM409.023 479.008L403.461 484.038L403.457 484.034L409.023 479.008ZM382.942 443.073L375.987 445.878L375.986 445.877L382.942 443.073ZM373.631 393.418L381.131 393.418L381.131 393.418L373.631 393.418ZM373.405 383.128L365.909 383.362L365.909 383.361L373.405 383.128ZM373.146 371.556L365.646 371.596L365.646 371.596L373.146 371.556ZM373.483 362.679L366.064 361.584L366.065 361.577L373.483 362.679ZM374.663 355.774L367.299 354.353L367.303 354.335L367.306 354.317L374.663 355.774ZM374.894 354.611L367.537 353.154L367.54 353.138L367.543 353.122L374.894 354.611ZM386.422 319.82L379.636 316.625L380.194 315.442L381.119 314.517L386.422 319.82ZM386.423 319.819L393.209 323.013L392.652 324.197L391.726 325.123L386.423 319.819ZM411.924 281.68H419.424V284.58L417.472 286.726L411.924 281.68ZM411.924 281.679H404.424V278.778L406.376 276.632L411.924 281.679ZM429.264 267.145L424.913 261.035L424.92 261.03L429.264 267.145ZM433.068 264.424H440.568V268.262L437.455 270.507L433.068 264.424ZM433.068 264.423H425.568V260.58L428.687 258.336L433.068 264.423ZM440.788 258.225L446.091 263.528L445.847 263.772L445.581 263.993L440.788 258.225ZM440.79 258.223L435.487 252.919L435.73 252.676L435.995 252.456L440.79 258.223ZM448.228 252.201L443.912 246.067L444.083 245.947L444.26 245.837L448.228 252.201ZM470.843 241.328L468.151 234.328L478.343 230.409V241.328H470.843ZM470.843 241.329L473.532 248.33L463.343 252.245V241.329H470.843ZM522.617 187.566L522.617 195.066C499.846 195.066 480.245 196.808 458.138 205.118L455.499 198.098L452.86 191.077C477.337 181.876 498.955 180.066 522.617 180.066L522.617 187.566ZM455.499 198.098L458.161 205.109L457.049 205.531L454.388 198.52L451.726 191.508L452.837 191.086L455.499 198.098ZM454.388 198.52L459.691 203.823L459.69 203.824L454.387 198.521L449.083 193.217L449.084 193.216L454.388 198.52ZM454.387 198.521L457.078 205.521C446.428 209.616 439.11 212.834 429.647 218.587L425.751 212.179L421.854 205.77C432.367 199.379 440.588 195.79 451.695 191.52L454.387 198.521ZM425.751 212.179L429.688 218.562L427.66 219.813L423.723 213.43L419.786 207.046L421.814 205.795L425.751 212.179ZM423.723 213.43L429.026 218.733L429.025 218.734L423.722 213.431L418.418 208.127L418.419 208.126L423.723 213.43ZM423.722 213.431L427.699 219.789C425.841 220.951 423.451 222.797 419.957 225.663L415.201 219.863L410.445 214.064C413.908 211.224 416.973 208.805 419.744 207.072L423.722 213.431ZM415.201 219.863L419.981 225.643L416.239 228.737L411.46 222.957L406.68 217.177L410.422 214.083L415.201 219.863ZM411.46 222.957L416.145 228.814L416.14 228.817L411.455 222.961L406.77 217.104L406.775 217.101L411.46 222.957ZM411.455 222.961L416.255 228.724C414.45 230.227 411.545 232.639 410.648 233.29L406.242 227.221L401.836 221.152C401.824 221.16 401.97 221.05 402.353 220.742C402.689 220.472 403.115 220.125 403.596 219.731C404.555 218.944 405.683 218.007 406.655 217.198L411.455 222.961ZM406.242 227.221L410.606 233.321L407.003 235.898L402.64 229.798L398.276 223.698L401.879 221.121L406.242 227.221ZM402.64 229.798L407.943 235.101L407.942 235.102L402.639 229.799L397.335 224.496L397.336 224.495L402.64 229.798ZM402.639 229.799L406.991 235.907C398.476 241.974 391.91 246.657 383.524 255.881L377.975 250.835L372.426 245.789C381.959 235.305 389.642 229.85 398.287 223.691L402.639 229.799ZM377.975 250.835L383.523 255.881C370.574 270.12 359.866 286.139 351.692 303.493L344.907 300.297L338.122 297.101C346.933 278.394 358.476 261.129 372.426 245.789L377.975 250.835ZM344.907 300.297L351.705 303.465L351.054 304.863L344.256 301.694L337.458 298.526L338.109 297.128L344.907 300.297ZM344.256 301.694L351.066 304.837C344.645 318.751 339.912 333.414 336.985 348.454L329.623 347.021L322.261 345.588C325.418 329.369 330.521 313.558 337.446 298.552L344.256 301.694ZM329.623 347.021L336.993 348.412L336.573 350.636L329.203 349.245L321.833 347.854L322.253 345.629L329.623 347.021ZM329.203 349.245L336.581 350.595C336.187 352.745 335.828 354.916 335.509 357.072L328.09 355.977L320.67 354.881C321.014 352.552 321.402 350.211 321.826 347.895L329.203 349.245ZM328.09 355.977L335.518 357.015L335.41 357.783L327.982 356.745L320.555 355.707L320.662 354.938L328.09 355.977ZM327.982 356.745L335.417 357.733C334.448 365.028 334.754 375.133 335.036 384.315L327.54 384.546L320.044 384.777C319.775 376.034 319.382 364.536 320.548 355.757L327.982 356.745ZM327.54 384.546H335.04V384.547H327.54H320.04V384.546H327.54ZM327.54 384.547L335.036 384.314C335.142 387.729 335.245 391.01 335.245 393.423L327.745 393.423L320.245 393.423C320.245 391.298 320.153 388.293 320.044 384.779L327.54 384.547ZM327.745 393.423L335.245 393.423C335.245 418.899 338.285 434.966 347.339 457.42L340.383 460.225L333.427 463.029C323.618 438.702 320.245 420.722 320.245 393.423L327.745 393.423ZM340.383 460.225L347.339 457.42C354.992 476.402 367.81 490.632 380.525 504.714L374.958 509.74L369.391 514.766C356.887 500.917 342.22 484.838 333.427 463.029L340.383 460.225ZM374.958 509.74L380.261 515.044L380.26 515.045L374.957 509.741L369.654 504.438L369.655 504.437L374.958 509.74ZM374.957 509.741L380.529 504.721C382.272 506.655 384.033 508.602 385.766 510.552L380.159 515.534L374.553 520.516C372.865 518.616 371.154 516.725 369.385 514.762L374.957 509.741ZM380.159 515.534L385.462 520.837L385.462 520.838L380.158 515.535L374.855 510.232L374.856 510.231L380.159 515.534ZM380.158 515.535L385.766 510.555C394.493 520.38 404.478 529.38 415.956 537.743L411.539 543.805L407.122 549.866C394.84 540.917 384.043 531.202 374.551 520.516L380.158 515.535ZM411.539 543.805L417.769 547.981L395.971 580.493L389.741 576.316L383.512 572.14L405.31 539.628L411.539 543.805ZM389.741 576.316L385.222 582.302L362.618 565.237L367.137 559.251L371.656 553.265L394.26 570.331L389.741 576.316ZM367.137 559.251L362.617 565.236L358.243 561.934L362.763 555.948L367.282 549.963L371.656 553.266L367.137 559.251ZM362.763 555.948L369.054 560.031L366.07 564.628L359.779 560.545L353.488 556.462L356.472 551.865L362.763 555.948ZM359.779 560.545L366.07 564.628L207.059 809.621L200.768 805.538L194.477 801.455L353.488 556.462L359.779 560.545ZM200.768 805.538L207.058 809.622L204.765 813.154L198.475 809.07L192.184 804.987L194.477 801.454L200.768 805.538ZM198.475 809.07L203.679 803.67L206.711 806.592L201.507 811.992L196.303 817.393L193.27 814.471L198.475 809.07ZM201.507 811.992L206.711 806.591L258.353 856.349L253.149 861.75L247.946 867.151L196.303 817.393L201.507 811.992ZM253.149 861.75L258.353 856.349L262.27 860.123L257.065 865.523L251.861 870.924L247.945 867.151L253.149 861.75ZM257.065 865.523L251.346 860.672L254.864 856.525L260.583 861.377L266.302 866.229L262.785 870.375L257.065 865.523ZM260.583 861.377L254.864 856.525L449.216 627.445L454.935 632.297L460.654 637.149L266.302 866.229L260.583 861.377ZM454.935 632.297L449.215 627.445L452.71 623.325L458.43 628.177L464.149 633.028L460.654 637.149L454.935 632.297ZM458.43 628.177L453.911 634.163L449.599 630.908L454.117 624.922L458.635 618.936L462.948 622.19L458.43 628.177ZM454.117 624.922L449.598 630.907L422.792 610.668L427.312 604.683L431.831 598.697L458.636 618.936L454.117 624.922ZM427.312 604.683L421.002 600.629L445.008 563.262L451.318 567.316L457.628 571.37L433.621 608.737L427.312 604.683ZM451.318 567.316L454.424 560.49C479.146 571.736 500.679 574.17 529.419 574.17V581.67V589.17C499.628 589.17 475.68 586.639 448.213 574.143L451.318 567.316ZM529.419 581.67V574.17H530.623V581.67V589.17H529.419V581.67ZM530.623 581.67L527.269 574.962L527.29 574.951L530.645 581.659L533.999 588.367L533.977 588.378L530.623 581.67ZM530.645 581.659L530.611 574.159C556.062 574.046 578.704 570.287 597.961 563.034L600.604 570.053L603.248 577.071C581.99 585.078 557.519 589.04 530.678 589.159L530.645 581.659ZM600.604 570.053L597.961 563.034C614.435 556.83 630.246 545.319 643.211 535.862L647.631 541.922L652.05 547.981C639.408 557.202 621.96 570.025 603.248 577.072L600.604 570.053ZM647.631 541.922H640.131V541.921H647.631H655.131V541.922H647.631ZM647.631 541.921L643.218 535.856L644.43 534.975L648.843 541.039L653.256 547.104L652.044 547.985L647.631 541.921ZM648.843 541.039H641.343V541.038H648.843H656.343V541.039H648.843ZM648.843 541.038L644.425 534.977C667.167 518.4 680.311 504.087 693.13 481.997L699.617 485.762L706.104 489.526C692.14 513.589 677.518 529.417 653.261 547.099L648.843 541.038ZM699.617 485.762H692.117V485.761H699.617H707.117V485.762H699.617ZM699.617 485.761L693.13 481.996C700.229 469.763 705.978 456.732 710.212 443.268L717.366 445.519L724.521 447.769C719.954 462.291 713.757 476.337 706.104 489.525L699.617 485.761ZM717.366 445.519L710.212 443.269C716.27 424.005 717.125 404.445 717.125 385.949L724.625 385.949L732.125 385.949C732.125 404.754 731.297 426.222 724.521 447.769L717.366 445.519ZM724.625 385.949L717.125 385.949C717.125 365.325 714.992 349.504 710.015 332.949L717.197 330.789L724.38 328.63C729.848 346.818 732.125 364.126 732.125 385.949L724.625 385.949ZM717.197 330.789L710.082 333.161L710.081 333.158L717.196 330.786L724.311 328.414L724.312 328.417L717.197 330.789ZM717.196 330.786L710.015 332.95C709.376 330.829 708.742 328.603 708.096 326.342L715.307 324.28L722.518 322.219C723.174 324.515 723.776 326.626 724.377 328.622L717.196 330.786ZM715.307 324.28L708.096 326.343C705.357 316.766 702.327 306.201 697.766 297.352L704.433 293.916L711.099 290.48C716.462 300.884 719.863 312.937 722.517 322.218L715.307 324.28ZM704.433 293.916L697.765 297.35C686.74 275.944 672.892 262.181 658.261 248.641L663.354 243.137L668.448 237.632C683.378 251.448 698.832 266.663 711.1 290.482L704.433 293.916ZM663.354 243.137L658.295 248.673L657.546 247.988L662.605 242.452L667.665 236.916L668.414 237.601L663.354 243.137ZM662.605 242.452L657.587 248.026C650.242 241.412 638.458 233.56 627.833 226.992L631.776 220.612L635.72 214.233C646.38 220.822 659.186 229.281 667.624 236.878L662.605 242.452ZM631.776 220.612L627.833 226.992C616.897 220.232 607.326 214.916 605.394 213.851L609.015 207.283L612.635 200.715C614.674 201.839 624.485 207.288 635.72 214.233L631.776 220.612ZM609.015 207.283L605.395 213.852L604.046 213.109L607.666 206.54L611.286 199.971L612.634 200.714L609.015 207.283ZM607.666 206.54L604.035 213.102L603.65 212.89L607.281 206.327L610.912 199.765L611.297 199.978L607.666 206.54ZM607.281 206.327L604.845 213.42L604.43 213.278L606.866 206.185L609.303 199.091L609.718 199.234L607.281 206.327ZM606.866 206.185L604.416 213.273L602.961 212.77L605.411 205.682L607.861 198.593L609.316 199.096L606.866 206.185ZM605.411 205.682L603.592 212.958L603.588 212.957L605.407 205.681L607.226 198.405L607.23 198.406L605.411 205.682ZM605.407 205.681L602.965 212.772C600.342 211.869 587.247 207.43 571.27 203.22L573.181 195.968L575.092 188.715C591.566 193.056 605.047 197.624 607.849 198.589L605.407 205.681ZM573.181 195.968L571.27 203.22C555.234 198.995 536.534 195.066 522.617 195.066L522.617 187.566L522.617 180.066C538.619 180.066 558.932 184.458 575.092 188.715L573.181 195.968ZM522.608 233.427L522.609 225.927C532.15 225.927 545.911 228.668 558.868 231.928L557.038 239.201L555.208 246.474C542.275 243.22 530.112 240.927 522.608 240.927L522.608 233.427ZM557.038 239.201L558.868 231.928C571.617 235.136 583.827 238.91 590.96 241.298L588.579 248.41L586.198 255.522C579.355 253.232 567.518 249.572 555.208 246.474L557.038 239.201ZM588.579 248.41L592.243 241.866C597.559 244.842 606.246 249.878 614.818 255.268L610.825 261.617L606.833 267.966C598.524 262.742 590.065 257.837 584.915 254.954L588.579 248.41ZM610.825 261.617L614.818 255.268C623.551 260.76 632.348 266.732 637.275 271.294L632.179 276.797L627.083 282.3C623.31 278.806 615.633 273.5 606.833 267.966L610.825 261.617ZM632.179 276.797L635.533 270.089L635.535 270.09L632.181 276.798L628.827 283.506L628.825 283.505L632.179 276.797ZM632.181 276.798L637.275 271.293C652.76 285.625 662.265 295.881 670.302 311.486L663.635 314.92L656.967 318.354C650.133 305.085 642.154 296.247 627.086 282.302L632.181 276.798ZM663.635 314.92L668.938 309.617L668.939 309.618L663.636 314.921L658.332 320.224L658.331 320.223L663.635 314.92ZM663.636 314.921L670.303 311.486C673.511 317.712 676.149 326.985 678.393 334.832L671.183 336.895L663.972 338.957C661.566 330.547 659.34 322.959 656.969 318.356L663.636 314.921ZM671.183 336.895L665.879 331.591L665.88 331.59L671.184 336.894L676.487 342.197L676.486 342.198L671.183 336.895ZM671.184 336.894L678.395 334.834C679.086 337.253 679.758 339.601 680.428 341.821L673.248 343.988L666.068 346.156C665.36 343.811 664.658 341.357 663.972 338.953L671.184 336.894ZM673.248 343.988L678.551 349.292L678.55 349.293L673.247 343.989L667.944 338.686L667.945 338.685L673.248 343.988ZM673.247 343.989L680.43 341.83C684.561 355.572 686.234 368.396 686.234 385.949L678.734 385.949L671.234 385.949C671.234 369.531 669.69 358.207 666.065 346.149L673.247 343.989ZM678.734 385.949L686.234 385.949C686.234 403.362 685.326 419.443 680.745 434.019L673.59 431.77L666.435 429.52C670.293 417.247 671.234 403.094 671.234 385.949L678.734 385.949ZM673.59 431.77L680.744 434.02C677.414 444.608 672.971 454.877 667.516 464.58L660.979 460.905L654.441 457.23C659.387 448.431 663.416 439.117 666.435 429.519L673.59 431.77ZM660.979 460.905L667.491 464.626L666.438 466.468L659.926 462.748L653.414 459.028L654.466 457.185L660.979 460.905ZM659.926 462.748L665.229 468.051L665.228 468.052L659.925 462.749L654.622 457.446L654.622 457.445L659.926 462.748ZM659.925 462.749L666.412 466.513C655.707 484.96 645.491 495.998 626.221 510.043L621.804 503.982L617.386 497.922C635.183 484.949 643.902 475.417 653.438 458.985L659.925 462.749ZM621.804 503.982L626.212 510.05L624.994 510.935L620.586 504.867L616.178 498.8L617.395 497.915L621.804 503.982ZM620.586 504.867L625.387 510.629L625.381 510.634L620.58 504.872L615.779 499.11L615.785 499.106L620.586 504.867ZM620.58 504.872L624.999 510.932C613.336 519.438 599.734 529.384 587.068 534.151L584.426 527.132L581.784 520.113C592.14 516.215 603.972 507.702 616.161 498.812L620.58 504.872ZM584.426 527.132V534.632H584.425V527.132V519.632H584.426V527.132ZM584.425 527.132L587.067 534.151C570.883 540.243 551.476 543.3 529.424 543.3L529.424 535.8L529.424 528.3C550.166 528.3 567.696 525.415 581.783 520.113L584.425 527.132ZM529.424 535.8V543.3C499.765 543.3 480.845 540.743 455.015 526.145L458.705 519.615L462.395 513.086C485.173 525.96 501.243 528.3 529.424 528.3V535.8ZM458.705 519.615L455.015 526.145C436.02 515.409 420.901 503.609 408.865 490.055L414.473 485.075L420.081 480.095C430.812 492.179 444.543 502.996 462.395 513.086L458.705 519.615ZM414.473 485.075L409.169 490.378L409.165 490.375L414.469 485.071L419.772 479.768L419.776 479.772L414.473 485.075ZM414.469 485.071L408.867 490.058C407.079 488.05 405.276 486.045 403.461 484.038L409.023 479.008L414.586 473.977C416.418 476.002 418.249 478.038 420.071 480.084L414.469 485.071ZM409.023 479.008L403.457 484.034C392.444 471.837 381.647 459.917 375.987 445.878L382.942 443.073L389.898 440.269C394.376 451.373 403.133 461.293 414.59 473.981L409.023 479.008ZM382.942 443.073L375.986 445.877C368.445 427.17 366.131 414.816 366.131 393.418L373.631 393.418L381.131 393.418C381.131 413.018 383.121 423.455 389.898 440.269L382.942 443.073ZM373.631 393.418L366.131 393.418C366.131 390.55 366.025 387.083 365.909 383.362L373.405 383.128L380.902 382.894C381.016 386.553 381.131 390.27 381.131 393.418L373.631 393.418ZM373.405 383.128L365.909 383.361C365.798 379.79 365.667 375.525 365.646 371.596L373.146 371.556L380.645 371.515C380.666 375.22 380.79 379.294 380.902 382.895L373.405 383.128ZM373.146 371.556L365.646 371.596C365.625 367.722 365.708 363.997 366.064 361.584L373.483 362.679L380.903 363.774C380.736 364.906 380.624 367.553 380.645 371.515L373.146 371.556ZM373.483 362.679L366.065 361.577C366.422 359.168 366.839 356.735 367.299 354.353L374.663 355.774L382.027 357.196C381.607 359.371 381.227 361.59 380.902 363.78L373.483 362.679ZM374.663 355.774L367.306 354.317L367.537 353.154L374.894 354.611L382.251 356.069L382.02 357.232L374.663 355.774ZM374.894 354.611L367.543 353.122C370.094 340.529 374.16 328.255 379.636 316.625L386.422 319.82L393.207 323.015C388.243 333.558 384.556 344.686 382.244 356.1L374.894 354.611ZM386.422 319.82L381.119 314.517L381.12 314.516L386.423 319.819L391.726 325.123L391.725 325.124L386.422 319.82ZM386.423 319.819L379.637 316.625C386.496 302.051 395.495 288.596 406.376 276.633L411.924 281.68L417.472 286.726C407.591 297.59 399.429 309.797 393.209 323.013L386.423 319.819ZM411.924 281.68H404.424V281.679H411.924H419.424V281.68H411.924ZM411.924 281.679L406.376 276.632C412.561 269.832 417.326 266.439 424.913 261.035L429.264 267.145L433.614 273.254C426.073 278.624 422.479 281.222 417.472 286.726L411.924 281.679ZM429.264 267.145L424.92 261.03C426.123 260.176 427.369 259.287 428.681 258.341L433.068 264.424L437.455 270.507C436.103 271.482 434.825 272.394 433.607 273.259L429.264 267.145ZM433.068 264.424H425.568V264.423H433.068H440.568V264.424H433.068ZM433.068 264.423L428.687 258.336C430.329 257.154 432.479 255.377 435.995 252.456L440.788 258.225L445.581 263.993C442.237 266.772 439.616 268.951 437.45 270.51L433.068 264.423ZM440.788 258.225L435.485 252.921L435.487 252.919L440.79 258.223L446.093 263.526L446.091 263.528L440.788 258.225ZM440.79 258.223L435.995 252.456C438.216 250.609 442.424 247.114 443.912 246.067L448.228 252.201L452.543 258.335C451.697 258.93 448.157 261.851 445.585 263.99L440.79 258.223ZM448.228 252.201L444.26 245.837C452.647 240.608 458.268 238.127 468.151 234.328L470.843 241.328L473.534 248.329C464.135 251.942 459.474 254.028 452.195 258.566L448.228 252.201ZM470.843 241.328H478.343V241.329H470.843H463.343V241.328H470.843ZM470.843 241.329L468.153 234.328C486.404 227.316 502.635 225.927 522.608 225.927V233.427V240.927C503.428 240.927 489.305 242.271 473.532 248.33L470.843 241.329Z" fill="#411517"/>
<path d="M622.582 348.123C593.111 312.641 562.693 277.936 531.376 244.066" stroke="#411517" stroke-width="15" stroke-miterlimit="10"/>
<path d="M552.797 306.379C531.311 281.553 508.434 257.93 484.304 235.66" stroke="#411517" stroke-width="15" stroke-miterlimit="10"/>
<path d="M474.977 487.547C456.536 467.789 437.622 448.47 418.259 429.615" stroke="#411517" stroke-width="15" stroke-miterlimit="10"/>
<path d="M447.566 423.345C434.414 408.949 420.803 394.978 406.746 381.461" stroke="#411517" stroke-width="15" stroke-miterlimit="10"/>
<path d="M649.285 477.208C636.457 462.826 623.628 448.44 610.795 434.059" stroke="#411517" stroke-width="15" stroke-miterlimit="10"/>
</g>
<defs>
<clipPath id="clip0_537_3434">
<rect width="602" height="729" fill="white" transform="matrix(-1 0 0 1 801 136)"/>
</clipPath>
</defs>
</svg>
