<svg width="495" height="880" viewBox="0 0 495 880" fill="none" xmlns="http://www.w3.org/2000/svg">
<g clip-path="url(#clip0_126_1274)">
<rect width="495" height="880" fill="#CFFF00"/>
<path d="M-207.822 416.403C-192.408 483.652 -171.049 559.302 -136.816 579.372C-102.575 599.442 -48.0053 660.414 -9.78214 680.723C28.4411 701.033 79.919 707.699 107.263 715.341C134.616 722.99 234.335 727.684 274.609 725.273C314.883 722.862 412.572 705.789 469.649 694.744C526.727 683.698 600.218 579.818 618.105 559.234C635.992 538.65 658.236 381.212 663.425 323.789C668.613 266.366 668.108 183.353 634.104 116.383C600.102 49.4213 560.809 -3.42542 522.174 -63.4464C483.54 -123.467 357.98 -152.569 291.893 -174.886C225.808 -197.195 162.308 -209.329 98.8509 -200.378C6.41561 -187.345 -309.482 -27.1122 -207.838 416.405" fill="#FF5900"/>
</g>
<defs>
<clipPath id="clip0_126_1274">
<rect width="495" height="880" fill="white"/>
</clipPath>
</defs>
</svg>
