<svg width="1000" height="1000" viewBox="0 0 1000 1000" fill="none" xmlns="http://www.w3.org/2000/svg">
<rect width="1000" height="1000" rx="150" fill="#FF5900"/>
<path d="M263.655 661.089C251.426 649.045 220.994 628.731 197.101 643.828C167.235 662.699 161.169 692.326 171.926 707.893C182.684 723.46 215.852 745.214 236 733.724C256.147 722.233 272.118 696.377 263.655 661.089ZM263.655 661.089L257.405 552.329M451.162 613.345L449.42 509.052L448.927 479.536M451.162 613.345L451.501 633.678C451.451 656.861 443.348 703.36 411.339 703.895C371.327 704.563 345.429 685.975 347.68 663.625C349.931 641.275 365.727 604.93 379.49 604.044C393.254 603.158 428.52 593.383 451.162 613.345ZM448.927 479.536L447.404 388.362L260.128 449.882L255.331 516.228L257.405 552.329M448.927 479.536L328.248 521.574L257.405 552.329" stroke="#CFFF00" stroke-width="15"/>
<path d="M615.997 419.679C611.799 404.984 595.781 377.317 565.297 384.207C527.192 392.819 526.576 413.939 531.785 427.214C536.994 440.489 544.462 466.758 563.113 465.738C581.765 464.719 608.991 456.627 615.997 419.679ZM615.997 419.679L643.145 327.669L652.662 304.161M652.662 304.161L686.259 221.165L819.576 328.577L786.336 405.843L719.706 346.255L652.662 304.161Z" stroke="#CFFF00" stroke-width="15"/>
<path d="M635.114 744.198C626.082 736.976 604.073 726.936 588.294 744.552C568.571 766.571 577.451 779.866 586.484 785.769C595.517 791.672 611.64 804.597 622.696 795.791C633.751 786.984 646.995 770.056 635.114 744.198ZM635.114 744.198L611.514 675.551L607.075 656.881M607.075 656.881L591.405 590.965L720.719 598.753L734.098 660.978L666.879 653.444L607.075 656.881Z" stroke="#CFFF00" stroke-width="15"/>
</svg>
