<svg width="124" height="27" viewBox="0 0 124 27" fill="none" xmlns="http://www.w3.org/2000/svg">
<path d="M43.9943 25.779V0.00234421C42.2735 0.00234421 40.3254 -0.0610473 38.8396 1.4263C37.4249 2.84872 37.6676 4.64993 37.6676 7.29067V15.8483L37.697 25.779H43.9958H43.9943Z" fill="#F4EDE3"/>
<path d="M87.5589 12.5207C86.7982 11.1323 85.7376 10.0593 84.3724 9.29865C83.0072 8.53951 81.424 8.15917 79.6212 8.15917C78.4817 8.15917 77.3964 8.33079 76.3651 8.67557C75.3339 9.02035 74.4742 9.48727 73.7862 10.0794V0.000391088C72.0824 0.000391088 70.1544 -0.0630005 68.6825 1.42435C67.2818 2.84676 67.523 4.64797 67.523 7.28872V15.8464L67.5199 25.777H73.5358L73.5713 24.0686C75.1607 25.5636 77.1784 26.3104 79.6228 26.3104C81.4023 26.3104 82.9809 25.9363 84.3569 25.1895C85.733 24.4412 86.8013 23.3867 87.5604 22.0215C88.3196 20.6579 88.6999 19.0731 88.6999 17.2704C88.6999 15.4676 88.3196 13.906 87.5604 12.5176L87.5589 12.5207ZM81.0807 20.3502C80.2969 21.097 79.2656 21.4711 77.9839 21.4711C77.0346 21.4711 76.1796 21.2284 75.422 20.7414C74.6613 20.2559 74.1171 19.5972 73.7847 18.7654V15.7397C74.1171 14.9095 74.6629 14.2508 75.422 13.7638C76.1811 13.2783 77.0361 13.034 77.9839 13.034C79.2656 13.034 80.2969 13.4144 81.0807 14.1735C81.8646 14.9326 82.2558 15.9654 82.2558 17.2704C82.2558 18.5753 81.8646 19.6019 81.0807 20.3486V20.3502Z" fill="#F4EDE3"/>
<path d="M27.55 22.0324C28.1901 21.7355 28.6771 21.3505 29.0095 20.8759V19.3808C27.9891 18.6928 26.8264 18.348 25.5215 18.348C24.6897 18.348 24.0496 18.5258 23.5997 18.8814C23.1482 19.237 22.924 19.7596 22.924 20.4476C22.924 21.0892 23.1436 21.5871 23.5827 21.9427C24.0218 22.2983 24.6557 22.4776 25.4875 22.4776C26.2234 22.4776 26.9114 22.3292 27.5515 22.0324M18.4558 24.7736C17.1385 23.7408 16.4799 22.2998 16.4799 20.4492C16.4799 18.5985 17.1138 17.0493 18.3847 16.018C19.654 14.9868 21.4753 14.4688 23.8486 14.4688C24.7747 14.4688 25.6993 14.5709 26.6254 14.7719C27.5515 14.9744 28.3493 15.2635 29.011 15.5727C29.0219 14.7023 28.9693 14.1318 28.2859 13.6169C26.9578 12.4465 22.4911 12.128 19.45 13.2196L19.4113 13.2319C19.4113 11.3735 19.3448 10.3809 20.1287 9.59551C21.1538 8.57045 22.3427 8.19629 25.874 8.19629C29.0528 8.19629 31.2127 8.80236 32.8392 10.0717C34.4642 11.3411 35.2774 13.116 35.2774 15.3934V23.2058C35.2774 25.2993 34.5461 25.7878 32.8129 25.7878H28.9708V24.3283C28.9755 24.3778 28.7606 24.5834 28.7188 24.6236C27.9226 25.3843 26.9702 25.8682 25.8941 26.1017C24.7021 26.3614 23.4203 26.3862 22.2128 26.2362C21.1847 26.1094 20.1704 25.8219 19.2644 25.3101C18.983 25.1508 18.7125 24.9715 18.4589 24.7705" fill="#F4EDE3"/>
<path d="M10.7872 12.6703H15.2368V10.566C15.2368 9.26423 14.1809 8.27317 12.879 8.27317H10.7887V0.992579C9.06789 0.992579 7.1198 0.929187 5.634 2.41654C4.21931 3.83895 4.46205 5.63243 4.46205 8.27317H0V10.3109C0 11.6128 1.05599 12.6687 2.35781 12.6687H4.46205V15.846L4.49143 19.5875C4.51307 23.343 7.56353 26.3811 11.3237 26.3811C12.6595 26.3811 13.9056 25.9961 14.9585 25.3329V21.2341C12.4477 22.134 10.7887 20.308 10.7887 18.0492V12.6672L10.7872 12.6703Z" fill="#F4EDE3"/>
<path d="M119.421 12.6703H123.871V10.566C123.871 9.26423 122.815 8.27317 121.513 8.27317H119.422V0.992579C117.702 0.992579 115.754 0.929187 114.268 2.41654C112.853 3.83895 113.096 5.63243 113.096 8.27317H108.634V10.3109C108.634 11.6128 109.69 12.6687 110.992 12.6687H113.096V15.846L113.125 19.5875C113.147 23.343 116.197 26.3811 119.957 26.3811C121.293 26.3811 122.539 25.9961 123.592 25.3329V21.2341C121.081 22.134 119.422 20.308 119.422 18.0492V12.6672L119.421 12.6703Z" fill="#F4EDE3"/>
<path d="M57.2877 22.0324C57.9278 21.7355 58.4148 21.3505 58.7472 20.8759V19.3808C57.7268 18.6928 56.5641 18.348 55.2592 18.348C54.4274 18.348 53.7873 18.5258 53.3374 18.8814C52.8859 19.237 52.6617 19.7596 52.6617 20.4476C52.6617 21.0892 52.8813 21.5871 53.3204 21.9427C53.7595 22.2983 54.3934 22.4776 55.2252 22.4776C55.9611 22.4776 56.6491 22.3292 57.2892 22.0324M48.1935 24.7736C46.8762 23.7408 46.2176 22.2998 46.2176 20.4492C46.2176 18.5985 46.8515 17.0493 48.1224 16.018C49.3917 14.9868 51.213 14.4688 53.5863 14.4688C54.5124 14.4688 55.437 14.5709 56.3631 14.7719C57.2892 14.9744 58.087 15.2635 58.7488 15.5727C58.7596 14.7023 58.707 14.1318 58.0236 13.6169C56.6955 12.4465 52.2288 12.128 49.1877 13.2196L49.149 13.2319C49.149 11.3735 49.0825 10.3809 49.8664 9.59551C50.8915 8.57045 52.0804 8.19629 55.6117 8.19629C58.7905 8.19629 60.9504 8.80236 62.5769 10.0717C64.2018 11.3411 65.0151 13.116 65.0151 15.3934V23.2058C65.0151 25.2993 64.2838 25.7878 62.5506 25.7878H58.7086V24.3283C58.7132 24.3778 58.4983 24.5834 58.4565 24.6236C57.6603 25.3843 56.7079 25.8682 55.6318 26.1017C54.4398 26.3614 53.158 26.3862 51.9505 26.2362C50.9224 26.1094 49.9081 25.8219 49.0021 25.3101C48.7207 25.1508 48.4502 24.9715 48.1966 24.7705" fill="#F4EDE3"/>
<path d="M100.684 22.0324C101.324 21.7355 101.811 21.3505 102.143 20.8759V19.3808C101.123 18.6928 99.9602 18.348 98.6553 18.348C97.8235 18.348 97.1834 18.5258 96.7335 18.8814C96.282 19.237 96.0579 19.7596 96.0579 20.4476C96.0579 21.0892 96.2774 21.5871 96.7165 21.9427C97.1556 22.2983 97.7895 22.4776 98.6213 22.4776C99.3572 22.4776 100.045 22.3292 100.685 22.0324M91.5896 24.7736C90.2723 23.7408 89.6137 22.2998 89.6137 20.4492C89.6137 18.5985 90.2476 17.0493 91.5185 16.018C92.7878 14.9868 94.6092 14.4688 96.9824 14.4688C97.9085 14.4688 98.8331 14.5709 99.7592 14.7719C100.685 14.9744 101.483 15.2635 102.145 15.5727C102.156 14.7023 102.103 14.1318 101.42 13.6169C100.092 12.4465 95.6249 12.128 92.5838 13.2196L92.5451 13.2319C92.5451 11.3735 92.4786 10.3809 93.2625 9.59551C94.2876 8.57045 95.4765 8.19629 99.0078 8.19629C102.187 8.19629 104.347 8.80236 105.973 10.0717C107.598 11.3411 108.411 13.116 108.411 15.3934V23.2058C108.411 25.2993 107.68 25.7878 105.947 25.7878H102.105V24.3283C102.109 24.3778 101.894 24.5834 101.853 24.6236C101.056 25.3843 100.104 25.8682 99.0279 26.1017C97.8359 26.3614 96.5542 26.3862 95.3466 26.2362C94.3185 26.1094 93.3042 25.8219 92.3982 25.3101C92.1168 25.1508 91.8463 24.9715 91.5927 24.7705" fill="#F4EDE3"/>
</svg>
