<svg width="305" height="127" viewBox="0 0 305 127" fill="none" xmlns="http://www.w3.org/2000/svg">
<path d="M246.246 70.4372C239.405 72.5691 221.637 75.9235 213.473 75.4243C205.309 74.9251 176.433 69.6627 170 70.3119" stroke="#411517" stroke-width="3.6" stroke-miterlimit="10"/>
<path d="M85.6791 22.6336L90.1479 7.48H94.9527L87.5607 31H83.6631L79.4967 16.6192L75.3303 31H71.3655L64.0071 7.48H68.9463L73.4151 22.6336L77.7495 7.48H81.3447L85.6791 22.6336ZM99.0484 11.68C97.6372 11.68 96.4948 10.5712 96.4948 9.1264C96.4948 7.6816 97.6372 6.5728 99.0484 6.5728C100.46 6.5728 101.602 7.6816 101.602 9.1264C101.602 10.5712 100.46 11.68 99.0484 11.68ZM101.333 31H96.7636V13.864H101.333V31ZM109.864 31H105.295V13.864H108.722L109.461 15.544H109.629C110.032 15.04 111.78 13.4272 114.3 13.4272C118.432 13.4272 121.221 16.384 121.221 20.8864V31H116.652V21.2896C116.652 19.2736 115.207 17.6608 113.258 17.6608C111.276 17.6608 109.864 19.2736 109.864 21.2896V31ZM139.495 31.4368C135.194 31.4368 132.54 28.8832 132.406 25.624H136.874C136.975 26.9008 137.983 27.7744 139.495 27.7744C141.007 27.7744 141.746 27.0352 141.746 26.1952C141.746 23.2048 132.809 24.5488 132.809 18.6016C132.809 15.712 135.127 13.4272 139.361 13.4272C143.359 13.4272 145.879 15.9136 146.114 19.072H141.612C141.478 17.9296 140.839 17.0896 139.361 17.0896C138.017 17.0896 137.378 17.728 137.378 18.4672C137.378 21.256 146.316 19.8112 146.316 25.9264C146.316 29.0848 143.93 31.4368 139.495 31.4368ZM155.956 31.4368C152.596 31.4368 150.177 29.1184 150.177 25.1872V17.9296H147.523V14.2H148.699C150.009 14.2 150.748 13.4608 150.748 12.184V9.5632H154.747V13.864H158.275V17.9296H154.747V24.7168C154.747 26.3632 155.654 27.136 157.099 27.136C157.536 27.136 157.939 27.0688 158.275 26.9008V31.0672C157.804 31.2352 156.998 31.4368 155.956 31.4368ZM167.829 13.4272C172.331 13.4272 174.986 16.384 174.986 20.752V31H171.559L170.819 29.32H170.651C169.946 30.0592 168.434 31.4368 165.779 31.4368C162.52 31.4368 160 29.1856 160 26.3296C160 22.8016 163.36 20.6176 168.232 20.6176H170.416V20.2816C170.416 18.5008 169.408 17.4928 167.795 17.4928C166.25 17.4928 165.511 18.5344 165.376 19.24H160.807C161.042 16.3504 163.327 13.4272 167.829 13.4272ZM166.855 27.7072C169.039 27.7072 170.416 26.1616 170.416 24.5488V23.6752H168.098C165.511 23.6752 164.57 24.616 164.57 25.8928C164.57 26.9344 165.343 27.7072 166.855 27.7072ZM196.973 13.4272C200.702 13.4272 203.121 16.0144 203.121 20.7184V31H198.552V20.8864C198.552 18.8368 197.376 17.6608 195.897 17.6608C194.419 17.6608 193.243 18.8368 193.243 20.8864V31H188.673V20.8864C188.673 18.8368 187.497 17.6608 186.019 17.6608C184.541 17.6608 183.365 18.8368 183.365 20.8864V31H178.795V13.864H182.222L182.961 15.544H183.129C183.499 15.0064 184.977 13.4272 187.262 13.4272C189.883 13.4272 191.361 14.872 192 15.8464C192.806 14.7712 194.654 13.4272 196.973 13.4272ZM211.485 37.048H206.915V13.864H210.342L211.082 15.544H211.25C211.72 14.9728 213.434 13.4272 216.122 13.4272C220.322 13.4272 224.051 17.2576 224.051 22.432C224.051 27.6064 220.322 31.4368 216.122 31.4368C213.669 31.4368 211.989 30.0256 211.653 29.5216H211.485V37.048ZM215.483 27.2032C217.6 27.2032 219.482 25.2544 219.482 22.432C219.482 19.6096 217.6 17.6608 215.483 17.6608C213.366 17.6608 211.485 19.6096 211.485 22.432C211.485 25.2544 213.366 27.2032 215.483 27.2032ZM233.109 31.4368C228.809 31.4368 226.154 28.8832 226.02 25.624H230.489C230.589 26.9008 231.597 27.7744 233.109 27.7744C234.621 27.7744 235.361 27.0352 235.361 26.1952C235.361 23.2048 226.423 24.5488 226.423 18.6016C226.423 15.712 228.741 13.4272 232.975 13.4272C236.973 13.4272 239.493 15.9136 239.729 19.072H235.226C235.092 17.9296 234.453 17.0896 232.975 17.0896C231.631 17.0896 230.993 17.728 230.993 18.4672C230.993 21.256 239.93 19.8112 239.93 25.9264C239.93 29.0848 237.545 31.4368 233.109 31.4368ZM60.7982 68.4368C55.0862 68.4368 51.323 64.304 51.323 58.9616V44.48H56.1278V58.9616C56.1278 61.7168 57.8078 63.8 60.7982 63.8C63.7886 63.8 65.4686 61.7168 65.4686 58.9616V44.48H70.2734V58.9616C70.2734 64.304 66.5102 68.4368 60.7982 68.4368ZM78.6926 68H74.123V50.864H77.5502L78.2894 52.544H78.4574C78.8606 52.04 80.6078 50.4272 83.1278 50.4272C87.2606 50.4272 90.0494 53.384 90.0494 57.8864V68H85.4798V58.2896C85.4798 56.2736 84.035 54.6608 82.0862 54.6608C80.1038 54.6608 78.6926 56.2736 78.6926 58.2896V68ZM98.5809 68H94.0113V44.48H98.5809V68ZM110.565 68.4368C105.827 68.4368 101.795 64.304 101.795 59.432C101.795 54.56 105.827 50.4272 110.565 50.4272C115.303 50.4272 119.335 54.56 119.335 59.432C119.335 64.304 115.303 68.4368 110.565 68.4368ZM110.565 64.2032C112.951 64.2032 114.765 62.2208 114.765 59.432C114.765 56.6432 112.951 54.6608 110.565 54.6608C108.179 54.6608 106.365 56.6432 106.365 59.432C106.365 62.2208 108.179 64.2032 110.565 64.2032ZM130.253 68.4368C125.515 68.4368 121.483 64.304 121.483 59.432C121.483 54.56 125.515 50.4272 130.253 50.4272C134.721 50.4272 137.745 53.9888 138.417 57.3152H133.848C133.646 56.576 132.504 54.6608 130.253 54.6608C127.867 54.6608 126.053 56.6432 126.053 59.432C126.053 62.2208 127.867 64.2032 130.253 64.2032C132.504 64.2032 133.646 62.2544 133.848 61.5488H138.417C137.745 64.8752 134.721 68.4368 130.253 68.4368ZM150.328 58.928L157.149 68H151.537L146.061 60.3392V68H141.491V44.48H146.061V57.92L151.201 50.864H156.409L150.328 58.928ZM171.093 74.048H166.523V50.864H169.95L170.689 52.544H170.857C171.328 51.9728 173.041 50.4272 175.729 50.4272C179.929 50.4272 183.659 54.2576 183.659 59.432C183.659 64.6064 179.929 68.4368 175.729 68.4368C173.277 68.4368 171.597 67.0256 171.261 66.5216H171.093V74.048ZM175.091 64.2032C177.208 64.2032 179.089 62.2544 179.089 59.432C179.089 56.6096 177.208 54.6608 175.091 54.6608C172.974 54.6608 171.093 56.6096 171.093 59.432C171.093 62.2544 172.974 64.2032 175.091 64.2032ZM191.272 68H186.703V50.864H190.13L190.869 52.544H191.037C191.373 52.0736 192.784 50.4272 195.036 50.4272C195.741 50.4272 196.077 50.4608 196.581 50.5952V55.1648C196.077 55.0304 195.573 54.9968 194.868 54.9968C192.717 54.9968 191.272 56.3744 191.272 58.7264V68ZM201.259 48.68C199.848 48.68 198.706 47.5712 198.706 46.1264C198.706 44.6816 199.848 43.5728 201.259 43.5728C202.671 43.5728 203.813 44.6816 203.813 46.1264C203.813 47.5712 202.671 48.68 201.259 48.68ZM203.544 68H198.975V50.864H203.544V68ZM219.635 54.5936L211.84 63.9008H219.904V68H206.464V64.2704L214.259 54.9632H206.632V50.864H219.635V54.5936ZM238.73 59.1632C238.73 60.0704 238.629 60.7424 238.528 61.0784H226.197C226.701 63.1616 228.247 64.3712 230.296 64.3712C232.077 64.3712 233.018 63.464 233.354 63.0944H238.159C237.252 65.4128 234.396 68.4368 230.364 68.4368C225.525 68.4368 221.594 64.4048 221.594 59.432C221.594 54.56 225.626 50.4272 230.296 50.4272C234.967 50.4272 238.73 54.1904 238.73 59.1632ZM230.296 54.4928C228.314 54.4928 226.735 55.7696 226.197 57.8192H234.328C233.791 55.8368 232.245 54.4928 230.296 54.4928ZM247.809 68.4368C243.509 68.4368 240.854 65.8832 240.72 62.624H245.189C245.289 63.9008 246.297 64.7744 247.809 64.7744C249.321 64.7744 250.061 64.0352 250.061 63.1952C250.061 60.2048 241.123 61.5488 241.123 55.6016C241.123 52.712 243.441 50.4272 247.675 50.4272C251.673 50.4272 254.193 52.9136 254.429 56.072H249.926C249.792 54.9296 249.153 54.0896 247.675 54.0896C246.331 54.0896 245.693 54.728 245.693 55.4672C245.693 58.256 254.63 56.8112 254.63 62.9264C254.63 66.0848 252.245 68.4368 247.809 68.4368ZM61.7784 105.437C56.3016 105.437 52.9416 102.043 52.74 97.5744H57.5448C57.8136 99.5568 59.1576 101.136 61.7784 101.136C64.2648 101.136 65.4072 99.9936 65.4072 98.6832C65.4072 94.2144 53.2776 96.3648 53.2776 87.864C53.2776 84 56.3016 81.0432 61.476 81.0432C66.4152 81.0432 69.708 84.4032 69.9096 88.704H65.1048C64.9704 86.7888 63.66 85.344 61.476 85.344C59.2584 85.344 58.0824 86.4864 58.0824 87.9312C58.0824 92.3664 70.212 90.1488 70.212 98.5152C70.212 102.413 67.188 105.437 61.7784 105.437ZM80.0282 105.437C76.6682 105.437 74.249 103.118 74.249 99.1872V91.9296H71.5946V88.2H72.7706C74.081 88.2 74.8202 87.4608 74.8202 86.184V83.5632H78.8186V87.864H82.3466V91.9296H78.8186V98.7168C78.8186 100.363 79.7258 101.136 81.1706 101.136C81.6074 101.136 82.0106 101.069 82.3466 100.901V105.067C81.8762 105.235 81.0698 105.437 80.0282 105.437ZM91.9008 87.4272C96.4032 87.4272 99.0576 90.384 99.0576 94.752V105H95.6304L94.8912 103.32H94.7232C94.0176 104.059 92.5056 105.437 89.8512 105.437C86.592 105.437 84.072 103.186 84.072 100.33C84.072 96.8016 87.432 94.6176 92.304 94.6176H94.488V94.2816C94.488 92.5008 93.48 91.4928 91.8672 91.4928C90.3216 91.4928 89.5824 92.5344 89.448 93.24H84.8784C85.1136 90.3504 87.3984 87.4272 91.9008 87.4272ZM90.9264 101.707C93.1104 101.707 94.488 100.162 94.488 98.5488V97.6752H92.1696C89.5824 97.6752 88.6416 98.616 88.6416 99.8928C88.6416 100.934 89.4144 101.707 90.9264 101.707ZM107.436 105H102.867V87.864H106.294L107.033 89.544H107.201C107.537 89.0736 108.948 87.4272 111.2 87.4272C111.905 87.4272 112.241 87.4608 112.745 87.5952V92.1648C112.241 92.0304 111.737 91.9968 111.032 91.9968C108.881 91.9968 107.436 93.3744 107.436 95.7264V105ZM122.422 105.437C119.062 105.437 116.643 103.118 116.643 99.1872V91.9296H113.988V88.2H115.164C116.475 88.2 117.214 87.4608 117.214 86.184V83.5632H121.212V87.864H124.74V91.9296H121.212V98.7168C121.212 100.363 122.12 101.136 123.564 101.136C124.001 101.136 124.404 101.069 124.74 100.901V105.067C124.27 105.235 123.464 105.437 122.422 105.437ZM140.282 111.048H135.712V87.864H139.139L139.878 89.544H140.046C140.517 88.9728 142.23 87.4272 144.918 87.4272C149.118 87.4272 152.848 91.2576 152.848 96.432C152.848 101.606 149.118 105.437 144.918 105.437C142.466 105.437 140.786 104.026 140.45 103.522H140.282V111.048ZM144.28 101.203C146.397 101.203 148.278 99.2544 148.278 96.432C148.278 93.6096 146.397 91.6608 144.28 91.6608C142.163 91.6608 140.282 93.6096 140.282 96.432C140.282 99.2544 142.163 101.203 144.28 101.203ZM160.629 105H156.06V81.48H160.629V105ZM171.471 87.4272C175.974 87.4272 178.628 90.384 178.628 94.752V105H175.201L174.462 103.32H174.294C173.588 104.059 172.076 105.437 169.422 105.437C166.162 105.437 163.642 103.186 163.642 100.33C163.642 96.8016 167.002 94.6176 171.874 94.6176H174.058V94.2816C174.058 92.5008 173.05 91.4928 171.438 91.4928C169.892 91.4928 169.153 92.5344 169.018 93.24H164.449C164.684 90.3504 166.969 87.4272 171.471 87.4272ZM170.497 101.707C172.681 101.707 174.058 100.162 174.058 98.5488V97.6752H171.74C169.153 97.6752 168.212 98.616 168.212 99.8928C168.212 100.934 168.985 101.707 170.497 101.707ZM188.736 99.0192L192.499 87.864H197.203L190.349 105.504C188.702 109.771 186.922 111.216 184.502 111.216C183.595 111.216 182.822 111.014 182.352 110.846V106.68C182.688 106.848 183.058 106.915 183.595 106.915C185.006 106.915 185.846 106.411 186.384 104.866L186.485 104.53L179.798 87.864H184.738L188.736 99.0192ZM201.456 85.68C200.045 85.68 198.903 84.5712 198.903 83.1264C198.903 81.6816 200.045 80.5728 201.456 80.5728C202.867 80.5728 204.01 81.6816 204.01 83.1264C204.01 84.5712 202.867 85.68 201.456 85.68ZM203.741 105H199.171V87.864H203.741V105ZM212.272 105H207.703V87.864H211.13L211.869 89.544H212.037C212.44 89.04 214.188 87.4272 216.708 87.4272C220.84 87.4272 223.629 90.384 223.629 94.8864V105H219.06V95.2896C219.06 93.2736 217.615 91.6608 215.666 91.6608C213.684 91.6608 212.272 93.2736 212.272 95.2896V105ZM235.185 111.384C229.338 111.384 227.524 107.218 227.221 105.874H231.925C232.261 106.546 233.303 107.318 235.084 107.318C237.369 107.318 238.813 106.042 238.813 103.79V102.413H238.645C238.276 102.984 236.697 104.362 234.345 104.362C230.145 104.362 226.516 100.598 226.516 95.8944C226.516 91.1904 230.145 87.4272 234.311 87.4272C236.965 87.4272 238.578 88.9728 239.049 89.544H239.217L239.989 87.864H243.383V103.723C243.383 108.461 240.325 111.384 235.185 111.384ZM234.949 100.296C237.033 100.296 238.813 98.4144 238.813 95.8944C238.813 93.3408 237.033 91.4928 234.949 91.4928C232.833 91.4928 231.085 93.3408 231.085 95.8944C231.085 98.4144 232.833 100.296 234.949 100.296ZM249.222 105.437C247.676 105.437 246.534 104.261 246.534 102.749C246.534 101.237 247.676 100.061 249.222 100.061C250.767 100.061 251.91 101.237 251.91 102.749C251.91 104.261 250.767 105.437 249.222 105.437Z" fill="white"/>
<path d="M241 33.0002C226.657 36.0873 216.199 40.5713 201.416 36.1773C186.646 31.7842 176.729 33.4344 166.759 34.2973C154.806 35.3311 139.284 39.68 131.273 31.9101" stroke="#411517" stroke-width="3.6" stroke-miterlimit="10"/>
<path d="M251 109.5C237.538 108.442 205.66 111.376 195.219 111.606C175.519 112.032 153.863 113.83 134 107.5" stroke="#411517" stroke-width="3.6" stroke-miterlimit="10"/>
</svg>
